<svg width="18" height="67" viewBox="0 0 18 67" fill="none" xmlns="http://www.w3.org/2000/svg">
<path d="M17.4546 66.6478L4.37938e-05 66.6478L4.3305e-05 55.466L2.65061 55.466L2.65061 63.4859L7.38925 63.4859L7.38925 56.233L10.0398 56.233L10.0398 63.4859L17.4546 63.4859L17.4546 66.6478ZM17.7103 47.9724C17.7103 49.2508 17.429 50.3587 16.8665 51.2962C16.304 52.2337 15.5171 52.961 14.5057 53.478C13.4944 53.9894 12.3125 54.2451 10.9603 54.2451C9.608 54.2451 8.42334 53.9894 7.40629 53.478C6.38925 52.961 5.59948 52.2337 5.03698 51.2962C4.47448 50.3587 4.19323 49.2508 4.19323 47.9724C4.19323 46.694 4.47448 45.586 5.03698 44.6485C5.59947 43.711 6.38925 42.9866 7.40629 42.4752C8.42334 41.9582 9.608 41.6996 10.9603 41.6996C12.3125 41.6996 13.4944 41.9582 14.5057 42.4752C15.5171 42.9866 16.304 43.711 16.8665 44.6485C17.429 45.586 17.7103 46.694 17.7103 47.9724ZM15.2387 47.9553C15.2387 47.2621 15.0483 46.6826 14.6677 46.2167C14.2813 45.7508 13.7642 45.4042 13.1165 45.1769C12.4688 44.944 11.7472 44.8275 10.9517 44.8275C10.1506 44.8275 9.42618 44.944 8.77845 45.1769C8.12504 45.4042 7.60516 45.7508 7.21879 46.2167C6.83243 46.6826 6.63925 47.2621 6.63925 47.9553C6.63925 48.6655 6.83243 49.2565 7.21879 49.728C7.60516 50.194 8.12504 50.5434 8.77845 50.7763C9.42618 51.0036 10.1506 51.1173 10.9517 51.1173C11.7472 51.1173 12.4688 51.0036 13.1165 50.7763C13.7642 50.5434 14.2813 50.194 14.6677 49.728C15.0483 49.2565 15.2387 48.6655 15.2387 47.9553ZM17.7103 33.3708C17.7103 34.6776 17.4233 35.7998 16.8495 36.7373C16.2756 37.6691 15.483 38.3878 14.4716 38.8935C13.4546 39.3935 12.2841 39.6435 10.9603 39.6435C9.63072 39.6435 8.45743 39.3879 7.44038 38.8765C6.41766 38.3651 5.6222 37.6435 5.05402 36.7117C4.48016 35.7742 4.19322 34.6663 4.19322 33.3878C4.19322 32.3253 4.38925 31.385 4.78129 30.5668C5.16766 29.743 5.71595 29.0867 6.42618 28.5981C7.13072 28.1094 7.95459 27.831 8.89777 27.7628L8.89777 30.7117C8.26709 30.831 7.74152 31.1151 7.32107 31.564C6.89493 32.0072 6.68186 32.6009 6.68186 33.3452C6.68186 33.9759 6.85232 34.5299 7.19322 35.0072C7.52845 35.4844 8.01141 35.8566 8.64209 36.1236C9.27277 36.385 10.0285 36.5157 10.9091 36.5157C11.8012 36.5157 12.5682 36.385 13.2103 36.1236C13.8466 35.8623 14.3381 35.4958 14.6847 35.0242C15.0256 34.5469 15.1961 33.9873 15.1961 33.3452C15.1961 32.8907 15.1108 32.4844 14.9404 32.1265C14.7642 31.7628 14.5114 31.4589 14.1819 31.2146C13.8523 30.9702 13.4517 30.8026 12.9802 30.7117L12.9802 27.7628C13.9063 27.8367 14.7273 28.1094 15.4432 28.581C16.1535 29.0526 16.7103 29.6947 17.1137 30.5072C17.5114 31.3197 17.7103 32.2742 17.7103 33.3708ZM11.9489 16.8857L4.36368 16.8857L4.36368 13.8005L17.4546 13.8005L17.4546 16.792L15.1279 16.792L15.1279 16.9283C15.8608 17.2238 16.4603 17.7096 16.9262 18.3857C17.3921 19.0562 17.625 19.8829 17.625 20.8658C17.625 21.7238 17.4347 22.4823 17.054 23.1414C16.6677 23.7948 16.108 24.3062 15.375 24.6755C14.6364 25.0448 13.7444 25.2295 12.6989 25.2295L4.36368 25.2295L4.36368 22.1442L12.2216 22.1442C13.0512 22.1442 13.7103 21.917 14.1989 21.4624C14.6875 21.0079 14.9319 20.4113 14.9319 19.6727C14.9319 19.2181 14.8211 18.7778 14.5995 18.3516C14.3779 17.9255 14.0483 17.5761 13.6108 17.3033C13.1677 17.0249 12.6137 16.8857 11.9489 16.8857ZM7.82391 0.281316L8.13072 3.09382C7.84663 3.17336 7.57959 3.31257 7.32959 3.51143C7.07959 3.70461 6.87788 3.96597 6.72447 4.29552C6.57106 4.62507 6.49436 5.02847 6.49436 5.50575C6.49436 6.14779 6.63356 6.68757 6.91197 7.12507C7.19038 7.55688 7.55118 7.76995 7.99436 7.76427C8.37504 7.76995 8.6847 7.63075 8.92334 7.34666C9.16197 7.05688 9.358 6.57961 9.51141 5.91484L9.98868 3.68188C10.2557 2.44325 10.679 1.52279 11.2586 0.92052C11.8381 0.312565 12.5966 0.005747 13.5341 6.49695e-05C14.358 0.00574693 15.0853 0.247224 15.716 0.724497C16.341 1.19609 16.8296 1.85234 17.1819 2.69325C17.5341 3.53416 17.7103 4.50007 17.7103 5.59097C17.7103 7.19325 17.375 8.48302 16.7046 9.46029C16.0285 10.4376 15.0881 11.02 13.8836 11.2075L13.5938 8.19893C14.1847 8.06257 14.6307 7.77279 14.9319 7.32961C15.233 6.88643 15.3836 6.30972 15.3836 5.5995C15.3836 4.86654 15.233 4.27847 14.9319 3.83529C14.6307 3.38643 14.2586 3.162 13.8154 3.162C13.4404 3.162 13.1307 3.30688 12.8864 3.59666C12.6421 3.88075 12.4546 4.32393 12.3239 4.9262L11.8552 7.15916C11.5938 8.41484 11.1535 9.34382 10.5341 9.94609C9.90913 10.5484 9.11936 10.8467 8.16481 10.841C7.358 10.8467 6.65913 10.6279 6.06822 10.1847C5.47163 9.73586 5.01141 9.1137 4.68754 8.31825C4.358 7.51711 4.19322 6.59382 4.19322 5.54836C4.19322 4.01427 4.51993 2.80688 5.17334 1.9262C5.82675 1.03984 6.71027 0.491543 7.82391 0.281316Z" fill="white"/>
</svg>
