<svg width="325" height="24" viewBox="0 0 325 24" fill="none" xmlns="http://www.w3.org/2000/svg">
<path d="M-8.88109e-05 18.2983V0.843794H11.1817V3.49436H3.16184V8.233H10.4147V10.8836H3.16184V18.2983H-8.88109e-05ZM18.6753 18.554C17.3969 18.554 16.289 18.2728 15.3515 17.7103C14.414 17.1478 13.6867 16.3608 13.1697 15.3495C12.6583 14.3381 12.4026 13.1563 12.4026 11.804C12.4026 10.4517 12.6583 9.26709 13.1697 8.25004C13.6867 7.233 14.414 6.44323 15.3515 5.88073C16.289 5.31823 17.3969 5.03698 18.6753 5.03698C19.9537 5.03698 21.0617 5.31823 21.9992 5.88073C22.9367 6.44323 23.6611 7.233 24.1725 8.25004C24.6895 9.26709 24.9481 10.4517 24.9481 11.804C24.9481 13.1563 24.6895 14.3381 24.1725 15.3495C23.6611 16.3608 22.9367 17.1478 21.9992 17.7103C21.0617 18.2728 19.9537 18.554 18.6753 18.554ZM18.6924 16.0824C19.3856 16.0824 19.9651 15.8921 20.431 15.5114C20.8969 15.125 21.2435 14.608 21.4708 13.9603C21.7037 13.3125 21.8202 12.591 21.8202 11.7955C21.8202 10.9944 21.7037 10.2699 21.4708 9.6222C21.2435 8.96879 20.8969 8.44891 20.431 8.06254C19.9651 7.67618 19.3856 7.483 18.6924 7.483C17.9822 7.483 17.3912 7.67618 16.9197 8.06254C16.4537 8.44891 16.1043 8.96879 15.8714 9.6222C15.6441 10.2699 15.5305 10.9944 15.5305 11.7955C15.5305 12.591 15.6441 13.3125 15.8714 13.9603C16.1043 14.608 16.4537 15.125 16.9197 15.5114C17.3912 15.8921 17.9822 16.0824 18.6924 16.0824ZM35.9104 12.7927V5.20743H38.9957V18.2983H36.0042V15.9716H35.8678C35.5724 16.7046 35.0866 17.304 34.4104 17.7699C33.74 18.2358 32.9133 18.4688 31.9303 18.4688C31.0724 18.4688 30.3138 18.2785 29.6547 17.8978C29.0013 17.5114 28.49 16.9517 28.1206 16.2188C27.7513 15.4802 27.5667 14.5881 27.5667 13.5427V5.20743H30.6519V13.0654C30.6519 13.8949 30.8792 14.554 31.3337 15.0427C31.7883 15.5313 32.3849 15.7756 33.1235 15.7756C33.578 15.7756 34.0184 15.6648 34.4445 15.4432C34.8707 15.2216 35.2201 14.8921 35.4928 14.4546C35.7712 14.0114 35.9104 13.4574 35.9104 12.7927ZM45.2535 10.6279V18.2983H42.1682V5.20743H45.1171V7.43186H45.2705C45.5716 6.69891 46.0518 6.11652 46.7108 5.6847C47.3756 5.25289 48.1966 5.03698 49.1739 5.03698C50.0773 5.03698 50.8643 5.23016 51.5347 5.61652C52.2108 6.00288 52.7336 6.56254 53.1029 7.2955C53.4779 8.02845 53.6626 8.91766 53.6569 9.96311V18.2983H50.5716V10.4404C50.5716 9.56539 50.3444 8.88073 49.8898 8.38641C49.441 7.89209 48.8188 7.64493 48.0233 7.64493C47.4836 7.64493 47.0035 7.76425 46.583 8.00289C46.1682 8.23584 45.8415 8.57391 45.6029 9.01709C45.3699 9.46027 45.2535 9.9972 45.2535 10.6279ZM61.6512 18.5285C60.6228 18.5285 59.7023 18.2642 58.8898 17.7358C58.0773 17.2074 57.4353 16.4404 56.9637 15.4347C56.4921 14.429 56.2563 13.2074 56.2563 11.7699C56.2563 10.3154 56.4949 9.08811 56.9722 8.08811C57.4552 7.08243 58.1057 6.32391 58.9239 5.81254C59.7421 5.2955 60.654 5.03698 61.6597 5.03698C62.4268 5.03698 63.0574 5.16766 63.5518 5.42902C64.0461 5.6847 64.4381 5.99436 64.7279 6.358C65.0177 6.71595 65.2421 7.05402 65.4012 7.3722H65.529V0.843794H68.6228V18.2983H65.5887V16.2358H65.4012C65.2421 16.554 65.012 16.8921 64.7108 17.25C64.4097 17.6023 64.012 17.9035 63.5177 18.1535C63.0233 18.4035 62.4012 18.5285 61.6512 18.5285ZM62.512 15.9972C63.1654 15.9972 63.7222 15.8211 64.1824 15.4688C64.6427 15.1108 64.9921 14.6137 65.2307 13.9773C65.4694 13.341 65.5887 12.5995 65.5887 11.7529C65.5887 10.9063 65.4694 10.1705 65.2307 9.5455C64.9978 8.9205 64.6512 8.4347 64.191 8.08811C63.7364 7.74152 63.1768 7.56823 62.512 7.56823C61.8245 7.56823 61.2506 7.7472 60.7904 8.10516C60.3302 8.46311 59.9836 8.95743 59.7506 9.58811C59.5177 10.2188 59.4012 10.9404 59.4012 11.7529C59.4012 12.5711 59.5177 13.3012 59.7506 13.9432C59.9893 14.5796 60.3387 15.0824 60.7989 15.4517C61.2648 15.8154 61.8358 15.9972 62.512 15.9972ZM71.9104 18.2983V5.20743H74.9957V18.2983H71.9104ZM73.4616 3.34948C72.9729 3.34948 72.5525 3.18754 72.2002 2.86368C71.8479 2.53413 71.6718 2.13925 71.6718 1.67902C71.6718 1.21311 71.8479 0.818225 72.2002 0.494361C72.5525 0.164816 72.9729 4.3869e-05 73.4616 4.3869e-05C73.9559 4.3869e-05 74.3763 0.164816 74.7229 0.494361C75.0752 0.818225 75.2513 1.21311 75.2513 1.67902C75.2513 2.13925 75.0752 2.53413 74.7229 2.86368C74.3763 3.18754 73.9559 3.34948 73.4616 3.34948ZM81.2535 10.6279V18.2983H78.1682V5.20743H81.1171V7.43186H81.2705C81.5716 6.69891 82.0518 6.11652 82.7108 5.6847C83.3756 5.25289 84.1966 5.03698 85.1739 5.03698C86.0773 5.03698 86.8643 5.23016 87.5347 5.61652C88.2108 6.00288 88.7336 6.56254 89.1029 7.2955C89.4779 8.02845 89.6626 8.91766 89.6569 9.96311V18.2983H86.5716V10.4404C86.5716 9.56539 86.3444 8.88073 85.8898 8.38641C85.441 7.89209 84.8188 7.64493 84.0233 7.64493C83.4836 7.64493 83.0035 7.76425 82.583 8.00289C82.1682 8.23584 81.8415 8.57391 81.6029 9.01709C81.3699 9.46027 81.2535 9.9972 81.2535 10.6279ZM98.4864 23.4802C97.3785 23.4802 96.4268 23.3296 95.6313 23.0285C94.8358 22.733 94.1966 22.3353 93.7137 21.8353C93.2307 21.3353 92.8955 20.7813 92.708 20.1733L95.4864 19.5C95.6114 19.7557 95.7932 20.0086 96.0319 20.2586C96.2705 20.5142 96.5915 20.7245 96.9949 20.8892C97.404 21.0597 97.9182 21.1449 98.5376 21.1449C99.4126 21.1449 100.137 20.9319 100.711 20.5057C101.285 20.0853 101.572 19.3921 101.572 18.4262V15.9461H101.418C101.259 16.2642 101.026 16.591 100.719 16.9262C100.418 17.2614 100.018 17.5427 99.5177 17.7699C99.0233 17.9972 98.4012 18.1108 97.6512 18.1108C96.6455 18.1108 95.7336 17.875 94.9154 17.4035C94.1029 16.9262 93.4552 16.216 92.9722 15.2728C92.4949 14.3239 92.2563 13.1364 92.2563 11.7103C92.2563 10.2728 92.4949 9.0597 92.9722 8.07107C93.4552 7.07675 94.1057 6.32391 94.9239 5.81254C95.7421 5.2955 96.654 5.03698 97.6597 5.03698C98.4268 5.03698 99.0574 5.16766 99.5518 5.42902C100.052 5.6847 100.449 5.99436 100.745 6.358C101.04 6.71595 101.265 7.05402 101.418 7.3722H101.589V5.20743H104.631V18.5114C104.631 19.6307 104.364 20.5569 103.83 21.2898C103.296 22.0228 102.566 22.5711 101.64 22.9347C100.714 23.2983 99.6626 23.4802 98.4864 23.4802ZM98.512 15.6904C99.1654 15.6904 99.7222 15.5313 100.182 15.2131C100.643 14.8949 100.992 14.4375 101.231 13.841C101.469 13.2444 101.589 12.5285 101.589 11.6932C101.589 10.8694 101.469 10.1478 101.231 9.52845C100.998 8.90913 100.651 8.42902 100.191 8.08811C99.7364 7.74152 99.1768 7.56823 98.512 7.56823C97.8245 7.56823 97.2506 7.7472 96.7904 8.10516C96.3302 8.46311 95.9836 8.95459 95.7506 9.57959C95.5177 10.1989 95.4012 10.9035 95.4012 11.6932C95.4012 12.4944 95.5177 13.1961 95.7506 13.7983C95.9893 14.3949 96.3387 14.8608 96.7989 15.1961C97.2648 15.5256 97.8358 15.6904 98.512 15.6904ZM120.283 5.20743V7.59379H112.758V5.20743H120.283ZM114.616 2.07107H117.701V14.3608C117.701 14.7756 117.763 15.0938 117.888 15.3154C118.019 15.5313 118.19 15.679 118.4 15.7586C118.61 15.8381 118.843 15.8779 119.099 15.8779C119.292 15.8779 119.468 15.8637 119.627 15.8353C119.792 15.8069 119.917 15.7813 120.002 15.7586L120.522 18.1705C120.357 18.2273 120.121 18.2898 119.815 18.358C119.513 18.4262 119.144 18.466 118.707 18.4773C117.934 18.5 117.238 18.3836 116.619 18.1279C115.999 17.8665 115.508 17.4631 115.144 16.9177C114.786 16.3722 114.61 15.6904 114.616 14.8722V2.07107ZM128.518 18.554C127.206 18.554 126.072 18.2813 125.118 17.7358C124.169 17.1847 123.439 16.4063 122.927 15.4006C122.416 14.3892 122.16 13.1989 122.16 11.8296C122.16 10.483 122.416 9.30118 122.927 8.28414C123.445 7.26141 124.166 6.46595 125.092 5.89777C126.018 5.32391 127.106 5.03698 128.356 5.03698C129.163 5.03698 129.925 5.16766 130.641 5.42902C131.362 5.6847 131.998 6.08243 132.55 6.6222C133.106 7.16198 133.544 7.84948 133.862 8.6847C134.18 9.51425 134.339 10.5029 134.339 11.6506V12.5966H123.609V10.5171H131.382C131.376 9.92618 131.248 9.40061 130.998 8.94039C130.748 8.47448 130.399 8.108 129.95 7.84095C129.507 7.57391 128.99 7.44039 128.399 7.44039C127.768 7.44039 127.214 7.59379 126.737 7.90061C126.26 8.20175 125.888 8.59948 125.621 9.09379C125.359 9.58243 125.226 10.1194 125.22 10.7046V12.5199C125.22 13.2813 125.359 13.9347 125.638 14.4802C125.916 15.0199 126.305 15.4347 126.805 15.7245C127.305 16.0086 127.891 16.1506 128.561 16.1506C129.01 16.1506 129.416 16.0881 129.78 15.9631C130.143 15.8324 130.459 15.6421 130.726 15.3921C130.993 15.1421 131.195 14.8324 131.331 14.4631L134.212 14.787C134.03 15.5483 133.683 16.2131 133.172 16.7813C132.666 17.3438 132.018 17.7813 131.229 18.0938C130.439 18.4006 129.535 18.554 128.518 18.554ZM140.717 18.5625C139.887 18.5625 139.14 18.4148 138.475 18.1194C137.816 17.8182 137.293 17.375 136.907 16.7898C136.526 16.2046 136.336 15.483 136.336 14.625C136.336 13.8864 136.472 13.2756 136.745 12.7927C137.018 12.3097 137.39 11.9233 137.861 11.6336C138.333 11.3438 138.864 11.125 139.455 10.9773C140.052 10.8239 140.668 10.7131 141.305 10.6449C142.072 10.5654 142.694 10.4944 143.171 10.4319C143.648 10.3637 143.995 10.2614 144.211 10.125C144.432 9.983 144.543 9.76425 144.543 9.46879V9.41766C144.543 8.77561 144.353 8.27845 143.972 7.92618C143.592 7.57391 143.043 7.39777 142.327 7.39777C141.572 7.39777 140.972 7.56254 140.529 7.89209C140.092 8.22163 139.796 8.61084 139.643 9.0597L136.762 8.65061C136.989 7.85516 137.364 7.19038 137.887 6.65629C138.41 6.11652 139.049 5.71311 139.805 5.44607C140.56 5.17334 141.396 5.03698 142.31 5.03698C142.941 5.03698 143.569 5.11084 144.194 5.25857C144.819 5.40629 145.39 5.65061 145.907 5.99152C146.424 6.32675 146.839 6.78413 147.151 7.36368C147.469 7.94323 147.628 8.66766 147.628 9.53698V18.2983H144.663V16.5H144.56C144.373 16.8637 144.109 17.2046 143.768 17.5228C143.432 17.8353 143.009 18.0881 142.498 18.2813C141.992 18.4688 141.398 18.5625 140.717 18.5625ZM141.518 16.2955C142.137 16.2955 142.674 16.1733 143.128 15.929C143.583 15.679 143.932 15.3495 144.177 14.9404C144.427 14.5313 144.552 14.0853 144.552 13.6023V12.0597C144.455 12.1392 144.29 12.2131 144.057 12.2813C143.83 12.3495 143.574 12.4091 143.29 12.4603C143.006 12.5114 142.725 12.5569 142.447 12.5966C142.168 12.6364 141.927 12.6705 141.722 12.6989C141.262 12.7614 140.85 12.8637 140.486 13.0057C140.123 13.1478 139.836 13.3466 139.626 13.6023C139.415 13.8523 139.31 14.1762 139.31 14.5739C139.31 15.1421 139.518 15.5711 139.932 15.8608C140.347 16.1506 140.876 16.2955 141.518 16.2955ZM150.731 18.2983V5.20743H153.68V7.43186H153.833C154.106 6.68186 154.557 6.09663 155.188 5.67618C155.819 5.25004 156.572 5.03698 157.447 5.03698C158.333 5.03698 159.08 5.25289 159.688 5.6847C160.302 6.11084 160.734 6.69323 160.984 7.43186H161.12C161.41 6.70459 161.898 6.12504 162.586 5.69323C163.279 5.25573 164.1 5.03698 165.049 5.03698C166.253 5.03698 167.236 5.41766 167.998 6.17902C168.759 6.94038 169.14 8.05118 169.14 9.51141V18.2983H166.046V9.98868C166.046 9.17618 165.83 8.58243 165.398 8.20743C164.967 7.82675 164.438 7.63641 163.813 7.63641C163.069 7.63641 162.486 7.86936 162.066 8.33527C161.651 8.7955 161.444 9.39493 161.444 10.1336V18.2983H158.418V9.86084C158.418 9.1847 158.214 8.64493 157.805 8.24152C157.401 7.83811 156.873 7.63641 156.219 7.63641C155.776 7.63641 155.373 7.75004 155.009 7.97732C154.646 8.19891 154.356 8.51425 154.14 8.92334C153.924 9.32675 153.816 9.79834 153.816 10.3381V18.2983H150.731ZM178.223 18.2983V5.20743H181.172V7.43186H181.325C181.598 6.68186 182.05 6.09663 182.68 5.67618C183.311 5.25004 184.064 5.03698 184.939 5.03698C185.825 5.03698 186.572 5.25289 187.18 5.6847C187.794 6.11084 188.226 6.69323 188.476 7.43186H188.612C188.902 6.70459 189.391 6.12504 190.078 5.69323C190.771 5.25573 191.592 5.03698 192.541 5.03698C193.746 5.03698 194.729 5.41766 195.49 6.17902C196.251 6.94038 196.632 8.05118 196.632 9.51141V18.2983H193.538V9.98868C193.538 9.17618 193.322 8.58243 192.891 8.20743C192.459 7.82675 191.93 7.63641 191.305 7.63641C190.561 7.63641 189.979 7.86936 189.558 8.33527C189.143 8.7955 188.936 9.39493 188.936 10.1336V18.2983H185.91V9.86084C185.91 9.1847 185.706 8.64493 185.297 8.24152C184.893 7.83811 184.365 7.63641 183.712 7.63641C183.268 7.63641 182.865 7.75004 182.501 7.97732C182.138 8.19891 181.848 8.51425 181.632 8.92334C181.416 9.32675 181.308 9.79834 181.308 10.3381V18.2983H178.223ZM208.106 12.7927V5.20743H211.191V18.2983H208.199V15.9716H208.063C207.768 16.7046 207.282 17.304 206.606 17.7699C205.935 18.2358 205.109 18.4688 204.126 18.4688C203.268 18.4688 202.509 18.2785 201.85 17.8978C201.197 17.5114 200.685 16.9517 200.316 16.2188C199.947 15.4802 199.762 14.5881 199.762 13.5427V5.20743H202.847V13.0654C202.847 13.8949 203.074 14.554 203.529 15.0427C203.984 15.5313 204.58 15.7756 205.319 15.7756C205.773 15.7756 206.214 15.6648 206.64 15.4432C207.066 15.2216 207.415 14.8921 207.688 14.4546C207.967 14.0114 208.106 13.4574 208.106 12.7927ZM224.71 8.66766L221.898 8.97448C221.818 8.69039 221.679 8.42334 221.48 8.17334C221.287 7.92334 221.025 7.72164 220.696 7.56823C220.366 7.41482 219.963 7.33811 219.486 7.33811C218.844 7.33811 218.304 7.47732 217.866 7.75573C217.435 8.03414 217.222 8.39493 217.227 8.83811C217.222 9.21879 217.361 9.52845 217.645 9.76709C217.935 10.0057 218.412 10.2017 219.077 10.3552L221.31 10.8324C222.548 11.0995 223.469 11.5228 224.071 12.1023C224.679 12.6819 224.986 13.4404 224.991 14.3779C224.986 15.2017 224.744 15.929 224.267 16.5597C223.795 17.1847 223.139 17.6733 222.298 18.0256C221.457 18.3779 220.491 18.554 219.4 18.554C217.798 18.554 216.508 18.2188 215.531 17.5483C214.554 16.8722 213.972 15.9319 213.784 14.7273L216.793 14.4375C216.929 15.0285 217.219 15.4745 217.662 15.7756C218.105 16.0767 218.682 16.2273 219.392 16.2273C220.125 16.2273 220.713 16.0767 221.156 15.7756C221.605 15.4745 221.829 15.1023 221.829 14.6591C221.829 14.2841 221.685 13.9745 221.395 13.7302C221.111 13.4858 220.668 13.2983 220.065 13.1677L217.832 12.6989C216.577 12.4375 215.648 11.9972 215.045 11.3779C214.443 10.7529 214.145 9.96311 214.15 9.00857C214.145 8.20175 214.364 7.50289 214.807 6.91198C215.256 6.31539 215.878 5.85516 216.673 5.53129C217.474 5.20175 218.398 5.03698 219.443 5.03698C220.977 5.03698 222.185 5.36368 223.065 6.01709C223.952 6.6705 224.5 7.55402 224.71 8.66766ZM234.072 5.20743V7.59379H226.547V5.20743H234.072ZM228.405 2.07107H231.49V14.3608C231.49 14.7756 231.552 15.0938 231.677 15.3154C231.808 15.5313 231.979 15.679 232.189 15.7586C232.399 15.8381 232.632 15.8779 232.888 15.8779C233.081 15.8779 233.257 15.8637 233.416 15.8353C233.581 15.8069 233.706 15.7813 233.791 15.7586L234.311 18.1705C234.146 18.2273 233.91 18.2898 233.604 18.358C233.302 18.4262 232.933 18.466 232.496 18.4773C231.723 18.5 231.027 18.3836 230.408 18.1279C229.788 17.8665 229.297 17.4631 228.933 16.9177C228.575 16.3722 228.399 15.6904 228.405 14.8722V2.07107ZM242.606 18.2983V5.20743H245.691V18.2983H242.606ZM244.157 3.34948C243.668 3.34948 243.248 3.18754 242.896 2.86368C242.543 2.53413 242.367 2.13925 242.367 1.67902C242.367 1.21311 242.543 0.818225 242.896 0.494361C243.248 0.164816 243.668 4.3869e-05 244.157 4.3869e-05C244.651 4.3869e-05 245.072 0.164816 245.418 0.494361C245.771 0.818225 245.947 1.21311 245.947 1.67902C245.947 2.13925 245.771 2.53413 245.418 2.86368C245.072 3.18754 244.651 3.34948 244.157 3.34948ZM251.949 10.6279V18.2983H248.864V5.20743H251.812V7.43186H251.966C252.267 6.69891 252.747 6.11652 253.406 5.6847C254.071 5.25289 254.892 5.03698 255.869 5.03698C256.773 5.03698 257.56 5.23016 258.23 5.61652C258.906 6.00288 259.429 6.56254 259.798 7.2955C260.173 8.02845 260.358 8.91766 260.352 9.96311V18.2983H257.267V10.4404C257.267 9.56539 257.04 8.88073 256.585 8.38641C256.136 7.89209 255.514 7.64493 254.719 7.64493C254.179 7.64493 253.699 7.76425 253.278 8.00289C252.864 8.23584 252.537 8.57391 252.298 9.01709C252.065 9.46027 251.949 9.9972 251.949 10.6279ZM269.199 18.554C267.892 18.554 266.77 18.2671 265.832 17.6932C264.9 17.1194 264.182 16.3267 263.676 15.3154C263.176 14.2983 262.926 13.1279 262.926 11.804C262.926 10.4745 263.182 9.30118 263.693 8.28414C264.204 7.26141 264.926 6.46595 265.858 5.89777C266.795 5.32391 267.903 5.03698 269.182 5.03698C270.244 5.03698 271.185 5.233 272.003 5.62504C272.827 6.01141 273.483 6.5597 273.972 7.26993C274.46 7.97448 274.739 8.79834 274.807 9.74152H271.858C271.739 9.11084 271.454 8.58527 271.006 8.16482C270.562 7.73868 269.969 7.52561 269.224 7.52561C268.594 7.52561 268.04 7.69607 267.562 8.03698C267.085 8.3722 266.713 8.85516 266.446 9.48584C266.185 10.1165 266.054 10.8722 266.054 11.7529C266.054 12.6449 266.185 13.412 266.446 14.054C266.707 14.6904 267.074 15.1819 267.545 15.5285C268.023 15.8694 268.582 16.0398 269.224 16.0398C269.679 16.0398 270.085 15.9546 270.443 15.7841C270.807 15.608 271.111 15.3552 271.355 15.0256C271.599 14.6961 271.767 14.2955 271.858 13.8239H274.807C274.733 14.75 274.46 15.5711 273.989 16.287C273.517 16.9972 272.875 17.554 272.062 17.9574C271.25 18.3552 270.295 18.554 269.199 18.554ZM280.425 0.843794V18.2983H277.34V0.843794H280.425ZM291.942 12.7927V5.20743H295.027V18.2983H292.035V15.9716H291.899C291.604 16.7046 291.118 17.304 290.442 17.7699C289.771 18.2358 288.945 18.4688 287.962 18.4688C287.104 18.4688 286.345 18.2785 285.686 17.8978C285.033 17.5114 284.521 16.9517 284.152 16.2188C283.783 15.4802 283.598 14.5881 283.598 13.5427V5.20743H286.683V13.0654C286.683 13.8949 286.91 14.554 287.365 15.0427C287.82 15.5313 288.416 15.7756 289.155 15.7756C289.609 15.7756 290.05 15.6648 290.476 15.4432C290.902 15.2216 291.251 14.8921 291.524 14.4546C291.802 14.0114 291.942 13.4574 291.942 12.7927ZM303.057 18.5285C302.029 18.5285 301.109 18.2642 300.296 17.7358C299.484 17.2074 298.842 16.4404 298.37 15.4347C297.898 14.429 297.663 13.2074 297.663 11.7699C297.663 10.3154 297.901 9.08811 298.378 8.08811C298.861 7.08243 299.512 6.32391 300.33 5.81254C301.148 5.2955 302.06 5.03698 303.066 5.03698C303.833 5.03698 304.464 5.16766 304.958 5.42902C305.452 5.6847 305.844 5.99436 306.134 6.358C306.424 6.71595 306.648 7.05402 306.807 7.3722H306.935V0.843794H310.029V18.2983H306.995V16.2358H306.807C306.648 16.554 306.418 16.8921 306.117 17.25C305.816 17.6023 305.418 17.9035 304.924 18.1535C304.43 18.4035 303.807 18.5285 303.057 18.5285ZM303.918 15.9972C304.572 15.9972 305.128 15.8211 305.589 15.4688C306.049 15.1108 306.398 14.6137 306.637 13.9773C306.876 13.341 306.995 12.5995 306.995 11.7529C306.995 10.9063 306.876 10.1705 306.637 9.5455C306.404 8.9205 306.057 8.4347 305.597 8.08811C305.143 7.74152 304.583 7.56823 303.918 7.56823C303.231 7.56823 302.657 7.7472 302.197 8.10516C301.736 8.46311 301.39 8.95743 301.157 9.58811C300.924 10.2188 300.807 10.9404 300.807 11.7529C300.807 12.5711 300.924 13.3012 301.157 13.9432C301.396 14.5796 301.745 15.0824 302.205 15.4517C302.671 15.8154 303.242 15.9972 303.918 15.9972ZM319.112 18.554C317.8 18.554 316.666 18.2813 315.712 17.7358C314.763 17.1847 314.033 16.4063 313.521 15.4006C313.01 14.3892 312.754 13.1989 312.754 11.8296C312.754 10.483 313.01 9.30118 313.521 8.28414C314.038 7.26141 314.76 6.46595 315.686 5.89777C316.612 5.32391 317.7 5.03698 318.95 5.03698C319.757 5.03698 320.518 5.16766 321.234 5.42902C321.956 5.6847 322.592 6.08243 323.143 6.6222C323.7 7.16198 324.138 7.84948 324.456 8.6847C324.774 9.51425 324.933 10.5029 324.933 11.6506V12.5966H314.203V10.5171H321.976C321.97 9.92618 321.842 9.40061 321.592 8.94039C321.342 8.47448 320.993 8.108 320.544 7.84095C320.101 7.57391 319.584 7.44039 318.993 7.44039C318.362 7.44039 317.808 7.59379 317.331 7.90061C316.854 8.20175 316.481 8.59948 316.214 9.09379C315.953 9.58243 315.82 10.1194 315.814 10.7046V12.5199C315.814 13.2813 315.953 13.9347 316.231 14.4802C316.51 15.0199 316.899 15.4347 317.399 15.7245C317.899 16.0086 318.484 16.1506 319.155 16.1506C319.604 16.1506 320.01 16.0881 320.373 15.9631C320.737 15.8324 321.052 15.6421 321.32 15.3921C321.587 15.1421 321.788 14.8324 321.925 14.4631L324.805 14.787C324.623 15.5483 324.277 16.2131 323.766 16.7813C323.26 17.3438 322.612 17.7813 321.822 18.0938C321.033 18.4006 320.129 18.554 319.112 18.554Z" fill="white"/>
</svg>
