<svg width="181" height="19" viewBox="0 0 181 19" fill="none" xmlns="http://www.w3.org/2000/svg">
<path d="M3.16184 0.843733V18.2983H-8.88109e-05V0.843733H3.16184ZM9.53471 10.6278V18.2983H6.44949V5.20737H9.39835V7.4318H9.55176C9.85289 6.69885 10.333 6.11646 10.9921 5.68464C11.6569 5.25282 12.4779 5.03692 13.4552 5.03692C14.3586 5.03692 15.1455 5.2301 15.816 5.61646C16.4921 6.00282 17.0148 6.56248 17.3841 7.29544C17.7591 8.02839 17.9438 8.9176 17.9381 9.96305V18.2983H14.8529V10.4403C14.8529 9.56532 14.6256 8.88066 14.1711 8.38635C13.7222 7.89203 13.1001 7.64487 12.3046 7.64487C11.7648 7.64487 11.2847 7.76419 10.8643 8.00282C10.4495 8.23578 10.1228 8.57385 9.88414 9.01703C9.65119 9.46021 9.53471 9.99714 9.53471 10.6278ZM32.2989 5.20737L27.637 18.2983H24.2279L19.566 5.20737H22.8557L25.8643 14.9318H26.0006L29.0177 5.20737H32.2989ZM39.784 18.554C38.4715 18.554 37.338 18.2812 36.3834 17.7358C35.4346 17.1846 34.7045 16.4062 34.1931 15.4006C33.6817 14.3892 33.426 13.1988 33.426 11.8295C33.426 10.4829 33.6817 9.30112 34.1931 8.28407C34.7101 7.26135 35.4317 6.46589 36.3579 5.89771C37.284 5.32385 38.3721 5.03692 39.6221 5.03692C40.4289 5.03692 41.1903 5.1676 41.9062 5.42896C42.6278 5.68464 43.2641 6.08237 43.8153 6.62214C44.3721 7.16191 44.8096 7.84941 45.1278 8.68464C45.4459 9.51419 45.605 10.5028 45.605 11.6506V12.5966H34.8749V10.517H42.6476C42.642 9.92612 42.5141 9.40055 42.2641 8.94032C42.0141 8.47442 41.6647 8.10794 41.2158 7.84089C40.7726 7.57385 40.2556 7.44032 39.6647 7.44032C39.034 7.44032 38.48 7.59373 38.0028 7.90055C37.5255 8.20169 37.1533 8.59941 36.8863 9.09373C36.6249 9.58237 36.4914 10.1193 36.4857 10.7045V12.5199C36.4857 13.2812 36.6249 13.9346 36.9033 14.4801C37.1817 15.0199 37.5709 15.4346 38.0709 15.7244C38.5709 16.0085 39.1562 16.1506 39.8266 16.1506C40.2755 16.1506 40.6817 16.0881 41.0454 15.9631C41.409 15.8324 41.7243 15.642 41.9914 15.392C42.2584 15.142 42.4601 14.8324 42.5965 14.4631L45.4772 14.7869C45.2954 15.5483 44.9488 16.2131 44.4374 16.7812C43.9317 17.3437 43.284 17.7812 42.4942 18.0937C41.7045 18.4006 40.801 18.554 39.784 18.554ZM58.5617 8.6676L55.7492 8.97441C55.6697 8.69032 55.5305 8.42328 55.3316 8.17328C55.1384 7.92328 54.877 7.72157 54.5475 7.56816C54.218 7.41476 53.8145 7.33805 53.3373 7.33805C52.6952 7.33805 52.1555 7.47726 51.718 7.75566C51.2861 8.03407 51.0731 8.39487 51.0787 8.83805C51.0731 9.21873 51.2123 9.52839 51.4964 9.76703C51.7861 10.0057 52.2634 10.2017 52.9282 10.3551L55.1611 10.8324C56.3998 11.0994 57.3202 11.5227 57.9225 12.1023C58.5305 12.6818 58.8373 13.4403 58.843 14.3778C58.8373 15.2017 58.5958 15.929 58.1185 16.5596C57.6469 17.1846 56.9907 17.6733 56.1498 18.0256C55.3089 18.3778 54.343 18.554 53.252 18.554C51.6498 18.554 50.36 18.2187 49.3827 17.5483C48.4055 16.8721 47.8231 15.9318 47.6356 14.7273L50.6441 14.4375C50.7805 15.0284 51.0702 15.4744 51.5134 15.7756C51.9566 16.0767 52.5333 16.2273 53.2435 16.2273C53.9765 16.2273 54.5645 16.0767 55.0077 15.7756C55.4566 15.4744 55.681 15.1023 55.681 14.6591C55.681 14.2841 55.5361 13.9744 55.2464 13.7301C54.9623 13.4858 54.5191 13.2983 53.9168 13.1676L51.6839 12.6988C50.4282 12.4375 49.4992 11.9971 48.8969 11.3778C48.2947 10.7528 47.9964 9.96305 48.002 9.00851C47.9964 8.20169 48.2151 7.50282 48.6583 6.91191C49.1072 6.31532 49.7293 5.8551 50.5248 5.53123C51.3259 5.20169 52.2492 5.03692 53.2947 5.03692C54.8287 5.03692 56.0361 5.36362 56.9168 6.01703C57.8032 6.67044 58.3515 7.55396 58.5617 8.6676ZM67.9239 5.20737V7.59373H60.3983V5.20737H67.9239ZM62.2563 2.07101H65.3415V14.3608C65.3415 14.7756 65.404 15.0937 65.529 15.3153C65.6597 15.5312 65.8302 15.679 66.0404 15.7585C66.2506 15.8381 66.4836 15.8778 66.7393 15.8778C66.9324 15.8778 67.1086 15.8636 67.2677 15.8352C67.4324 15.8068 67.5574 15.7812 67.6427 15.7585L68.1626 18.1704C67.9978 18.2273 67.762 18.2898 67.4552 18.3579C67.154 18.4261 66.7847 18.4659 66.3472 18.4773C65.5745 18.5 64.8785 18.3835 64.2591 18.1278C63.6398 17.8665 63.1483 17.4631 62.7847 16.9176C62.4268 16.3721 62.2506 15.6903 62.2563 14.8721V2.07101ZM70.5042 18.2983V5.20737H73.453V7.4318H73.6064C73.8792 6.6818 74.3309 6.09657 74.9616 5.67612C75.5922 5.24998 76.3451 5.03692 77.2201 5.03692C78.1064 5.03692 78.8536 5.25282 79.4616 5.68464C80.0752 6.11078 80.507 6.69316 80.757 7.4318H80.8934C81.1832 6.70453 81.6718 6.12498 82.3593 5.69317C83.0525 5.25567 83.8735 5.03692 84.8224 5.03692C86.0269 5.03692 87.0099 5.4176 87.7712 6.17896C88.5326 6.94032 88.9133 8.05112 88.9133 9.51135V18.2983H85.8195V9.98862C85.8195 9.17612 85.6036 8.58237 85.1718 8.20737C84.74 7.82669 84.2116 7.63635 83.5866 7.63635C82.8422 7.63635 82.2599 7.8693 81.8394 8.33521C81.4246 8.79544 81.2172 9.39487 81.2172 10.1335V18.2983H78.1917V9.86078C78.1917 9.18464 77.9871 8.64487 77.578 8.24146C77.1746 7.83805 76.6462 7.63635 75.9928 7.63635C75.5496 7.63635 75.1462 7.74998 74.7826 7.97726C74.4189 8.19885 74.1292 8.51419 73.9133 8.92328C73.6974 9.32669 73.5894 9.79828 73.5894 10.3381V18.2983H70.5042ZM97.8387 18.554C96.5262 18.554 95.3927 18.2812 94.4381 17.7358C93.4893 17.1846 92.7591 16.4062 92.2478 15.4006C91.7364 14.3892 91.4807 13.1988 91.4807 11.8295C91.4807 10.4829 91.7364 9.30112 92.2478 8.28407C92.7648 7.26135 93.4864 6.46589 94.4126 5.89771C95.3387 5.32385 96.4268 5.03692 97.6768 5.03692C98.4836 5.03692 99.2449 5.1676 99.9608 5.42896C100.682 5.68464 101.319 6.08237 101.87 6.62214C102.427 7.16191 102.864 7.84941 103.182 8.68464C103.501 9.51419 103.66 10.5028 103.66 11.6506V12.5966H92.9296V10.517H100.702C100.697 9.92612 100.569 9.40055 100.319 8.94032C100.069 8.47442 99.7194 8.10794 99.2705 7.84089C98.8273 7.57385 98.3103 7.44032 97.7194 7.44032C97.0887 7.44032 96.5347 7.59373 96.0574 7.90055C95.5802 8.20169 95.208 8.59941 94.941 9.09373C94.6796 9.58237 94.5461 10.1193 94.5404 10.7045V12.5199C94.5404 13.2812 94.6796 13.9346 94.958 14.4801C95.2364 15.0199 95.6256 15.4346 96.1256 15.7244C96.6256 16.0085 97.2108 16.1506 97.8813 16.1506C98.3302 16.1506 98.7364 16.0881 99.1001 15.9631C99.4637 15.8324 99.779 15.642 100.046 15.392C100.313 15.142 100.515 14.8324 100.651 14.4631L103.532 14.7869C103.35 15.5483 103.003 16.2131 102.492 16.7812C101.986 17.3437 101.339 17.7812 100.549 18.0937C99.7591 18.4006 98.8557 18.554 97.8387 18.554ZM109.355 10.6278V18.2983H106.27V5.20737H109.219V7.4318H109.372C109.673 6.69885 110.153 6.11646 110.812 5.68464C111.477 5.25282 112.298 5.03692 113.275 5.03692C114.179 5.03692 114.966 5.2301 115.636 5.61646C116.312 6.00282 116.835 6.56248 117.204 7.29544C117.579 8.02839 117.764 8.9176 117.758 9.96305V18.2983H114.673V10.4403C114.673 9.56532 114.446 8.88066 113.991 8.38635C113.543 7.89203 112.92 7.64487 112.125 7.64487C111.585 7.64487 111.105 7.76419 110.685 8.00282C110.27 8.23578 109.943 8.57385 109.704 9.01703C109.472 9.46021 109.355 9.99714 109.355 10.6278ZM127.432 5.20737V7.59373H119.906V5.20737H127.432ZM121.764 2.07101H124.849V14.3608C124.849 14.7756 124.912 15.0937 125.037 15.3153C125.168 15.5312 125.338 15.679 125.548 15.7585C125.758 15.8381 125.991 15.8778 126.247 15.8778C126.44 15.8778 126.616 15.8636 126.775 15.8352C126.94 15.8068 127.065 15.7812 127.15 15.7585L127.67 18.1704C127.506 18.2273 127.27 18.2898 126.963 18.3579C126.662 18.4261 126.293 18.4659 125.855 18.4773C125.082 18.5 124.386 18.3835 123.767 18.1278C123.148 17.8665 122.656 17.4631 122.293 16.9176C121.935 16.3721 121.758 15.6903 121.764 14.8721V2.07101ZM146.312 8.6676L143.499 8.97441C143.42 8.69032 143.28 8.42328 143.082 8.17328C142.888 7.92328 142.627 7.72157 142.297 7.56816C141.968 7.41476 141.565 7.33805 141.087 7.33805C140.445 7.33805 139.905 7.47726 139.468 7.75566C139.036 8.03407 138.823 8.39487 138.829 8.83805C138.823 9.21873 138.962 9.52839 139.246 9.76703C139.536 10.0057 140.013 10.2017 140.678 10.3551L142.911 10.8324C144.15 11.0994 145.07 11.5227 145.672 12.1023C146.28 12.6818 146.587 13.4403 146.593 14.3778C146.587 15.2017 146.346 15.929 145.869 16.5596C145.397 17.1846 144.741 17.6733 143.9 18.0256C143.059 18.3778 142.093 18.554 141.002 18.554C139.4 18.554 138.11 18.2187 137.133 17.5483C136.155 16.8721 135.573 15.9318 135.386 14.7273L138.394 14.4375C138.53 15.0284 138.82 15.4744 139.263 15.7756C139.707 16.0767 140.283 16.2273 140.994 16.2273C141.726 16.2273 142.315 16.0767 142.758 15.7756C143.207 15.4744 143.431 15.1023 143.431 14.6591C143.431 14.2841 143.286 13.9744 142.996 13.7301C142.712 13.4858 142.269 13.2983 141.667 13.1676L139.434 12.6988C138.178 12.4375 137.249 11.9971 136.647 11.3778C136.045 10.7528 135.746 9.96305 135.752 9.00851C135.746 8.20169 135.965 7.50282 136.408 6.91191C136.857 6.31532 137.479 5.8551 138.275 5.53123C139.076 5.20169 139.999 5.03692 141.045 5.03692C142.579 5.03692 143.786 5.36362 144.667 6.01703C145.553 6.67044 146.101 7.55396 146.312 8.6676ZM149.137 18.2983V5.20737H152.222V18.2983H149.137ZM150.688 3.34942C150.199 3.34942 149.779 3.18748 149.427 2.86362C149.074 2.53407 148.898 2.13919 148.898 1.67896C148.898 1.21305 149.074 0.818164 149.427 0.4943C149.779 0.164755 150.199 -1.71661e-05 150.688 -1.71661e-05C151.182 -1.71661e-05 151.603 0.164755 151.949 0.4943C152.302 0.818164 152.478 1.21305 152.478 1.67896C152.478 2.13919 152.302 2.53407 151.949 2.86362C151.603 3.18748 151.182 3.34942 150.688 3.34942ZM155.224 18.2983V16.3381L161.974 7.87498V7.76419H155.446V5.20737H165.75V7.31248L159.324 15.6307V15.7415H165.972V18.2983H155.224ZM174.292 18.554C172.979 18.554 171.846 18.2812 170.891 17.7358C169.942 17.1846 169.212 16.4062 168.701 15.4006C168.19 14.3892 167.934 13.1988 167.934 11.8295C167.934 10.4829 168.19 9.30112 168.701 8.28407C169.218 7.26135 169.94 6.46589 170.866 5.89771C171.792 5.32385 172.88 5.03692 174.13 5.03692C174.937 5.03692 175.698 5.1676 176.414 5.42896C177.136 5.68464 177.772 6.08237 178.323 6.62214C178.88 7.16191 179.317 7.84941 179.636 8.68464C179.954 9.51419 180.113 10.5028 180.113 11.6506V12.5966H169.383V10.517H177.155C177.15 9.92612 177.022 9.40055 176.772 8.94032C176.522 8.47442 176.172 8.10794 175.724 7.84089C175.28 7.57385 174.763 7.44032 174.172 7.44032C173.542 7.44032 172.988 7.59373 172.511 7.90055C172.033 8.20169 171.661 8.59941 171.394 9.09373C171.133 9.58237 170.999 10.1193 170.994 10.7045V12.5199C170.994 13.2812 171.133 13.9346 171.411 14.4801C171.69 15.0199 172.079 15.4346 172.579 15.7244C173.079 16.0085 173.664 16.1506 174.334 16.1506C174.783 16.1506 175.19 16.0881 175.553 15.9631C175.917 15.8324 176.232 15.642 176.499 15.392C176.766 15.142 176.968 14.8324 177.104 14.4631L179.985 14.7869C179.803 15.5483 179.457 16.2131 178.945 16.7812C178.44 17.3437 177.792 17.7812 177.002 18.0937C176.212 18.4006 175.309 18.554 174.292 18.554Z" fill="white"/>
</svg>
