<?xml version="1.0" encoding="UTF-8"?><svg xmlns="http://www.w3.org/2000/svg" xmlns:xlink="http://www.w3.org/1999/xlink" viewBox="0 0 52 52"><defs><style>.f{fill:none;}.g{fill:#000000;}.h{fill:#fff;fill-rule:evenodd;}.i{clip-path:url(#e);}.j{clip-path:url(#d);}.k{isolation:isolate;}</style><clipPath id="d"><rect class="f" width="52" height="52"/></clipPath><clipPath id="e"><rect class="f" width="52" height="52"/></clipPath></defs><g id="a"/><g id="b"><g id="c"><g class="j"><g class="k"><g class="i"><path class="h" d="M25.9,51.28C11.9,51.28,.52,39.9,.52,25.9S11.9,.52,25.9,.52s25.38,11.39,25.38,25.38-11.39,25.38-25.38,25.38"/><path class="g" d="M12.34,15.99c-.03,.32,.05,.7,.2,1.07,.41,.99,1.17,1.57,2.19,1.8,.49,.11,.99,.11,1.49,.03,.63-.11,1.19-.33,1.67-.75,.47-.41,.77-.93,.9-1.53,.11-.52,.09-1.05-.07-1.57-.18-.63-.54-1.13-1.04-1.52-.54-.41-1.17-.56-1.83-.63-.56-.05-1.11,.07-1.63,.25-1.1,.4-1.91,1.43-1.89,2.84m.32,14.09v8.41c0,.35,0,.35,.35,.35,1.72,0,3.44,0,5.17,0,.06,0,.12,0,.18,0,.1,0,.15-.04,.15-.15,0-.13,0-.26,0-.39,0-5.5,0-10.99,0-16.49,0-.1,0-.2,0-.3,.01-.15-.05-.19-.19-.19-1.8,0-3.61,0-5.41,0-.23,0-.23,0-.23,.24v8.52m14.87-6.31c0-.08,0-.11,0-.14,0-.72,0-1.44,0-2.17,0-.11-.03-.15-.15-.15-1.81,0-3.62,0-5.43,0-.24,0-.24,0-.24,.25,.02,1.08,.04,2.15,.05,3.23,0,2.07,.01,4.14,0,6.21-.01,2.45-.04,4.9-.05,7.35,0,.46,0,.47,.45,.47,1.7,0,3.4,0,5.1,0,.27,0,.27,0,.27-.27,0-.09,0-.18,0-.27,0-3.18,0-6.36,0-9.54,0-.4,.05-.79,.2-1.16,.27-.65,.67-1.21,1.27-1.6,.32-.21,.67-.39,1.06-.43,.35-.04,.71-.07,1.06-.04,.53,.04,1.01,.22,1.42,.58,.55,.48,.84,1.12,.97,1.81,.11,.57,.15,1.16,.15,1.74,.01,2.94,0,5.88,0,8.82,0,.34,0,.34,.35,.35,1.72,0,3.43,0,5.15,0,.31,0,.31,0,.32-.3,0-.06,0-.12,0-.18,0-3.02,0-6.05,0-9.07,0-.93-.02-1.87-.2-2.79-.15-.78-.38-1.53-.74-2.24-.5-.98-1.2-1.79-2.12-2.38-.86-.54-1.81-.84-2.81-.92-1.14-.09-2.27-.03-3.34,.43-.87,.37-1.6,.93-2.18,1.67-.18,.22-.34,.45-.54,.71"/></g></g></g></g></g></svg>