<svg width="31" height="206" viewBox="0 0 31 206" fill="none" xmlns="http://www.w3.org/2000/svg">
<path d="M1.04182 206L1.04181 198.199C1.04181 196.901 1.22057 195.702 1.57809 194.599C1.9356 193.486 2.52377 192.59 3.3426 191.913C4.14989 191.224 5.2455 190.88 6.62943 190.88C7.54051 190.88 8.35357 191.052 9.0686 191.396C9.78363 191.729 10.3718 192.177 10.8331 192.74C11.2829 193.291 11.5827 193.893 11.7327 194.548C11.8019 193.974 11.9691 193.417 12.2343 192.877C12.4881 192.326 12.8456 191.833 13.3069 191.396C13.7567 190.949 14.3218 190.598 15.0022 190.346C15.6711 190.082 16.4669 189.95 17.3895 189.95C18.6696 189.95 19.7998 190.237 20.7801 190.811C21.7489 191.373 22.51 192.2 23.0636 193.291C23.6056 194.37 23.8766 195.696 23.8766 197.269L23.8766 206L1.04182 206ZM19.7422 200.851L19.7422 198.509C19.7422 197.774 19.6326 197.177 19.4135 196.718C19.1828 196.247 18.8599 195.903 18.4447 195.684C18.018 195.466 17.5106 195.357 16.9224 195.357C15.9998 195.357 15.3251 195.644 14.8984 196.218C14.4602 196.781 14.241 197.573 14.241 198.595L14.241 200.851L19.7422 200.851ZM10.193 200.851L10.193 198.767C10.193 198.159 10.0835 197.653 9.86436 197.252C9.64524 196.838 9.33962 196.528 8.94751 196.322C8.54386 196.103 8.08255 195.994 7.56358 195.994C6.62943 195.994 6.00089 196.258 5.67798 196.787C5.34353 197.315 5.1763 198.038 5.1763 198.956L5.1763 200.851L10.193 200.851Z" fill="white"/>
<path d="M16.2477 183.299C17.3779 183.299 18.2833 183.087 18.9637 182.662C19.6326 182.237 19.967 181.525 19.967 180.526C19.967 179.505 19.6326 178.787 18.9637 178.374C18.2833 177.949 17.3779 177.737 16.2477 177.737L9.67407 177.737L9.67407 172.57L16.8013 172.57C18.3236 172.57 19.6499 172.886 20.7801 173.517C21.8988 174.137 22.7637 175.039 23.375 176.221C23.9862 177.404 24.2918 178.839 24.2918 180.526C24.2918 182.203 23.9862 183.632 23.375 184.815C22.7637 185.997 21.8988 186.898 20.7801 187.518C19.6499 188.138 18.3236 188.448 16.8013 188.448L9.67407 188.448L9.67407 183.299L16.2477 183.299Z" fill="white"/>
<path d="M23.8766 165.98L23.8766 171.215L9.67407 171.215L9.67407 165.98L11.8711 165.98L11.8711 166.066C11.6058 165.974 11.2714 165.75 10.8677 165.394C10.4525 165.038 10.0835 164.539 9.76057 163.896C9.42612 163.253 9.25889 162.466 9.25889 161.536C9.25889 160.882 9.36269 160.279 9.57028 159.728C9.76633 159.177 9.95662 158.775 10.1411 158.523L14.414 160.555C14.218 160.716 14.0161 161.003 13.8086 161.416C13.5894 161.818 13.4799 162.323 13.4799 162.931C13.4799 163.632 13.6586 164.212 14.0161 164.671C14.3737 165.119 14.8061 165.451 15.3136 165.67C15.821 165.876 16.2996 165.98 16.7494 165.98L23.8766 165.98Z" fill="white"/>
<path d="M23.8766 153.701L23.8766 158.937L9.67407 158.937L9.67407 153.701L11.8711 153.701L11.8711 153.787C11.6058 153.696 11.2714 153.472 10.8677 153.116C10.4525 152.76 10.0835 152.26 9.76057 151.618C9.42612 150.975 9.25889 150.188 9.25889 149.258C9.25889 148.604 9.36269 148.001 9.57028 147.45C9.76633 146.899 9.95662 146.497 10.1411 146.245L14.414 148.277C14.218 148.437 14.0161 148.724 13.8086 149.138C13.5894 149.54 13.4799 150.045 13.4799 150.653C13.4799 151.353 13.6586 151.933 14.0161 152.393C14.3737 152.84 14.8061 153.173 15.3136 153.391C15.821 153.598 16.2996 153.701 16.7494 153.701L23.8766 153.701Z" fill="white"/>
<path d="M24.2918 139.382C24.2918 140.932 23.9747 142.31 23.3404 143.515C22.6945 144.709 21.8123 145.651 20.6936 146.339C19.5634 147.017 18.2717 147.356 16.8186 147.356C15.3655 147.356 14.0738 147.017 12.9436 146.339C11.8019 145.651 10.9023 144.709 10.2449 143.515C9.58757 142.31 9.25889 140.932 9.25889 139.382C9.25889 137.832 9.58757 136.466 10.2449 135.283C10.9023 134.101 11.8019 133.177 12.9436 132.511C14.0738 131.845 15.3655 131.512 16.8186 131.512C18.2717 131.512 19.5634 131.845 20.6936 132.511C21.8123 133.177 22.6945 134.101 23.3404 135.283C23.9747 136.466 24.2918 137.832 24.2918 139.382ZM19.967 139.382C19.967 138.785 19.8344 138.268 19.5692 137.832C19.3039 137.396 18.9291 137.057 18.4447 136.816C17.9603 136.575 17.4125 136.454 16.8013 136.454C16.1785 136.454 15.625 136.575 15.1406 136.816C14.6562 137.057 14.2756 137.396 13.9988 137.832C13.7221 138.268 13.5837 138.785 13.5837 139.382C13.5837 139.979 13.7221 140.501 13.9988 140.949C14.2756 141.385 14.6562 141.73 15.1406 141.983C15.625 142.224 16.1785 142.344 16.8013 142.344C17.4125 142.344 17.9603 142.224 18.4447 141.983C18.9291 141.73 19.3039 141.385 19.5692 140.949C19.8344 140.501 19.967 139.979 19.967 139.382Z" fill="white"/>
<path d="M15.6423 119.281L23.8766 122.571L23.8766 127.375L9.67407 132.06L9.67407 126.497L18.2544 124.241L9.95085 120.986L9.95085 117.542L18.2544 114.339L9.67407 112.066L9.67407 106.503L23.8766 111.17L23.8766 115.958L15.6423 119.281Z" fill="white"/>
<path d="M19.0982 87.0655C19.0982 86.0093 18.9425 85.0506 18.6311 84.1895C18.3198 83.317 18.0141 82.6683 17.7143 82.2435L22.1083 80.0392C22.5696 80.5788 23.0366 81.503 23.5095 82.8118C23.9823 84.1092 24.2188 85.6533 24.2188 87.4444C24.2188 89.1206 23.9247 90.6935 23.3365 92.163C22.7483 93.6326 21.9237 94.9299 20.8627 96.055C19.7902 97.1687 18.5389 98.047 17.1088 98.6899C15.6672 99.3213 14.1045 99.6371 12.4208 99.6371C10.737 99.6371 9.17429 99.3213 7.7327 98.6899C6.27957 98.0584 5.01674 97.1859 3.94419 96.0722C2.87165 94.9471 2.04129 93.6498 1.45312 92.1802C0.853417 90.6992 0.553566 89.1206 0.553565 87.4444C0.553565 85.6534 0.789987 84.1092 1.26283 82.8118C1.73567 81.503 2.20275 80.5788 2.66406 80.0392L7.05803 82.2435C6.74665 82.6683 6.44103 83.317 6.14118 84.1895C5.82979 85.0506 5.6741 86.0093 5.6741 87.0655C5.6741 88.2365 5.85863 89.2584 6.22768 90.1309C6.58519 91.0034 7.0811 91.7325 7.7154 92.318C8.3497 92.9035 9.06473 93.3398 9.86049 93.6268C10.6562 93.9138 11.4924 94.0574 12.3689 94.0574C13.2569 94.0574 14.1045 93.9138 14.9118 93.6268C15.7076 93.3398 16.4226 92.9035 17.0569 92.318C17.6912 91.7325 18.1929 91.0034 18.5619 90.1309C18.9195 89.2584 19.0982 88.2365 19.0982 87.0655Z" fill="white"/>
<path d="M23.8036 67.2944L21.5028 67.2944C21.7334 67.3977 22.0679 67.6618 22.5061 68.0865C22.9444 68.4999 23.3423 69.0509 23.6998 69.7398C24.0458 70.4286 24.2188 71.2323 24.2188 72.1508C24.2188 73.5285 23.8843 74.734 23.2154 75.7673C22.535 76.8005 21.6297 77.6042 20.4994 78.1782C19.3577 78.7523 18.0949 79.0393 16.7109 79.0393C15.327 79.0393 14.0699 78.7523 12.9397 78.1782C11.798 77.6042 10.8869 76.8005 10.2065 75.7673C9.52604 74.734 9.18582 73.5285 9.18582 72.1508C9.18582 71.2668 9.32998 70.4918 9.6183 69.8259C9.89509 69.16 10.2295 68.6204 10.6216 68.2071C11.0022 67.7938 11.354 67.5068 11.6769 67.346L9.601 67.346L9.601 62.1452L23.8036 62.1452L23.8036 67.2944ZM16.7109 73.9073C17.3568 73.9073 17.9392 73.7581 18.4581 73.4596C18.9656 73.1611 19.3635 72.765 19.6518 72.2713C19.9401 71.7662 20.0843 71.2093 20.0843 70.6009C20.0843 69.9694 19.9401 69.4126 19.6518 68.9304C19.3635 68.4482 18.9656 68.0693 18.4581 67.7938C17.9392 67.5068 17.3568 67.3633 16.7109 67.3633C16.0651 67.3633 15.4885 67.5068 14.981 67.7938C14.4621 68.0693 14.0584 68.4482 13.7701 68.9304C13.4702 69.4126 13.3203 69.9694 13.3203 70.6009C13.3203 71.2094 13.4702 71.7662 13.7701 72.2713C14.0584 72.765 14.4621 73.1611 14.981 73.4596C15.4885 73.7581 16.0651 73.9073 16.7109 73.9073Z" fill="white"/>
<path d="M31 55.0516L31 60.2353L9.601 60.2353L9.601 55L11.6769 55C11.354 54.8392 11.0022 54.535 10.6216 54.0872C10.2295 53.628 9.89509 53.0482 9.6183 52.3479C9.32998 51.6361 9.18582 50.8324 9.18582 49.9369C9.18582 48.5592 9.52604 47.3824 10.2065 46.4066C10.8869 45.4192 11.798 44.6615 12.9397 44.1333C14.0699 43.6052 15.327 43.3412 16.7109 43.3412C18.0949 43.3412 19.3577 43.6225 20.4994 44.185C21.6297 44.7476 22.535 45.5397 23.2154 46.5615C23.8843 47.5719 24.2188 48.7659 24.2188 50.1436C24.2188 51.1309 24.0458 51.9748 23.6998 52.6751C23.3423 53.364 22.9501 53.9093 22.5234 54.3111C22.0852 54.7015 21.745 54.9483 21.5028 55.0517L31 55.0516ZM16.7109 48.4559C16.0651 48.4559 15.4885 48.5994 14.981 48.8864C14.4621 49.1734 14.0584 49.5638 13.7701 50.0575C13.4702 50.5397 13.3203 51.085 13.3203 51.6935C13.3203 52.325 13.4702 52.8932 13.7701 53.3984C14.0584 53.8921 14.4621 54.2824 14.981 54.5695C15.4885 54.8565 16.0651 55 16.7109 55C17.3568 55 17.9392 54.8565 18.4581 54.5695C18.9656 54.2824 19.3635 53.8921 19.6518 53.3984C19.9401 52.8932 20.0843 52.325 20.0843 51.6935C20.0843 51.085 19.9401 50.5397 19.6518 50.0575C19.3635 49.5638 18.9656 49.1734 18.4581 48.8864C17.9392 48.5994 17.3568 48.4559 16.7109 48.4559Z" fill="white"/>
<path d="M23.8036 41.8978L9.601 41.8978L9.601 36.6625L23.8036 36.6625L23.8036 41.8978ZM6.67745 39.2113C6.67745 40.0379 6.38913 40.7382 5.81249 41.3123C5.22432 41.8863 4.52659 42.1733 3.7193 42.1733C2.91201 42.1733 2.21428 41.8863 1.62611 41.3123C1.02641 40.7267 0.726554 40.0264 0.726554 39.2113C0.726554 38.6717 0.864947 38.178 1.14173 37.7303C1.40699 37.2825 1.7645 36.9208 2.21428 36.6453C2.66406 36.3698 3.16573 36.232 3.7193 36.232C4.52659 36.232 5.22432 36.5248 5.81249 37.1103C6.38913 37.6958 6.67745 38.3961 6.67745 39.2113Z" fill="white"/>
<path d="M9.601 35.6389L9.601 33.228L3.7712 33.228L3.7712 28.0443L9.601 28.0443L9.601 24.8756L13.9258 24.8756L13.9258 28.0443L17.8873 28.0443C18.4754 28.0443 18.9541 27.9582 19.3231 27.786C19.6806 27.6138 19.8594 27.2981 19.8594 26.8389C19.8594 26.5289 19.7902 26.2648 19.6518 26.0467C19.5134 25.8285 19.4211 25.6965 19.375 25.6506L23.1116 23.8596C23.1808 23.9399 23.3077 24.1925 23.4922 24.6173C23.6767 25.0306 23.8439 25.5587 23.9939 26.2017C24.1438 26.8446 24.2187 27.5621 24.2187 28.3543C24.2187 29.7665 23.8209 30.9318 23.0251 31.8502C22.2178 32.7687 20.978 33.228 19.3058 33.228L13.9258 33.228L13.9258 35.6389L9.601 35.6389Z" fill="white"/>
<path d="M23.8036 12.3288L21.5028 12.3288C21.7334 12.4321 22.0679 12.6962 22.5061 13.121C22.9444 13.5343 23.3423 14.0854 23.6998 14.7743C24.0458 15.4631 24.2187 16.2668 24.2187 17.1852C24.2187 18.5629 23.8843 19.7684 23.2154 20.8017C22.535 21.835 21.6296 22.6386 20.4994 23.2127C19.3577 23.7867 18.0949 24.0737 16.7109 24.0737C15.327 24.0737 14.0699 23.7867 12.9397 23.2127C11.798 22.6386 10.8869 21.835 10.2065 20.8017C9.52604 19.7684 9.18582 18.5629 9.18582 17.1852C9.18582 16.3012 9.32998 15.5262 9.6183 14.8604C9.89508 14.1945 10.2295 13.6549 10.6216 13.2416C11.0022 12.8282 11.354 12.5412 11.6769 12.3805L9.601 12.3805L9.601 7.17966L23.8036 7.17966L23.8036 12.3288ZM16.7109 18.9418C17.3568 18.9418 17.9392 18.7926 18.4581 18.494C18.9656 18.1955 19.3635 17.7995 19.6518 17.3058C19.9401 16.8006 20.0843 16.2438 20.0843 15.6353C20.0843 15.0039 19.9401 14.4471 19.6518 13.9649C19.3635 13.4826 18.9656 13.1038 18.4581 12.8282C17.9392 12.5412 17.3568 12.3977 16.7109 12.3977C16.0651 12.3977 15.4885 12.5412 14.981 12.8282C14.462 13.1038 14.0584 13.4827 13.7701 13.9649C13.4702 14.4471 13.3203 15.0039 13.3203 15.6353C13.3203 16.2438 13.4702 16.8006 13.7701 17.3058C14.0584 17.7995 14.462 18.1955 14.981 18.494C15.4885 18.7926 16.0651 18.9418 16.7109 18.9418Z" fill="white"/>
<path d="M23.8036 -1.04049e-06L23.8036 5.25249L-8.77495e-06 5.25249L-9.00455e-06 0L23.8036 -1.04049e-06Z" fill="white"/>
</svg>
