<svg width="23" height="23" viewBox="0 0 23 23" fill="none" xmlns="http://www.w3.org/2000/svg">
<path d="M11.3109 12.2537C11.8314 12.2537 12.2534 11.8317 12.2534 11.3111C12.2534 10.7905 11.8314 10.3685 11.3109 10.3685C10.7903 10.3685 10.3683 10.7905 10.3683 11.3111C10.3683 11.8317 10.7903 12.2537 11.3109 12.2537Z" stroke="white" stroke-width="2" stroke-linecap="round" stroke-linejoin="round"/>
<path d="M11.3109 5.65565C11.8314 5.65565 12.2534 5.23365 12.2534 4.71308C12.2534 4.19251 11.8314 3.77051 11.3109 3.77051C10.7903 3.77051 10.3683 4.19251 10.3683 4.71308C10.3683 5.23365 10.7903 5.65565 11.3109 5.65565Z" stroke="white" stroke-width="2" stroke-linecap="round" stroke-linejoin="round"/>
<path d="M11.3109 18.8517C11.8314 18.8517 12.2534 18.4297 12.2534 17.9091C12.2534 17.3885 11.8314 16.9665 11.3109 16.9665C10.7903 16.9665 10.3683 17.3885 10.3683 17.9091C10.3683 18.4297 10.7903 18.8517 11.3109 18.8517Z" stroke="white" stroke-width="2" stroke-linecap="round" stroke-linejoin="round"/>
</svg>
