<svg width="297" height="73" viewBox="0 0 297 73" fill="none" xmlns="http://www.w3.org/2000/svg">
<path d="M0.000177532 27.6777V1.49592H5.53569V23.1138H16.7601V27.6777H0.000177532ZM28.5526 28.0613C26.5327 28.0613 24.794 27.6522 23.3366 26.834C21.8878 26.0073 20.7713 24.8397 19.9872 23.3311C19.2031 21.8141 18.8111 20.0201 18.8111 17.949C18.8111 15.9292 19.2031 14.1564 19.9872 12.6309C20.7713 11.1053 21.875 9.91637 23.2983 9.0641C24.7301 8.21182 26.4091 7.78569 28.3352 7.78569C29.6307 7.78569 30.8366 7.9945 31.9531 8.41211C33.0781 8.8212 34.0582 9.4391 34.8935 10.2658C35.7372 11.0925 36.3935 12.1323 36.8622 13.3851C37.331 14.6294 37.5653 16.0868 37.5653 17.7573V19.253H20.9844V15.878H32.4389C32.4389 15.0939 32.2685 14.3993 31.9276 13.7942C31.5866 13.1891 31.1136 12.7161 30.5085 12.3752C29.9119 12.0257 29.2173 11.851 28.4247 11.851C27.598 11.851 26.8651 12.0428 26.2258 12.4263C25.5952 12.8013 25.1008 13.3084 24.7429 13.9476C24.3849 14.5783 24.2017 15.2814 24.1932 16.057V19.2658C24.1932 20.2374 24.3722 21.0769 24.7301 21.7843C25.0966 22.4917 25.6122 23.0371 26.277 23.4206C26.9418 23.8042 27.7301 23.9959 28.642 23.9959C29.2472 23.9959 29.8011 23.9107 30.304 23.7402C30.8068 23.5698 31.2372 23.3141 31.5952 22.9732C31.9531 22.6323 32.2258 22.2147 32.4133 21.7203L37.4503 22.0527C37.1946 23.263 36.6704 24.3198 35.8778 25.2232C35.0937 26.1181 34.0795 26.8169 32.8352 27.3198C31.5994 27.8141 30.1719 28.0613 28.5526 28.0613ZM50.8439 8.04137V12.1323H39.0186V8.04137H50.8439ZM41.7033 3.33682H47.1493V21.6436C47.1493 22.1465 47.226 22.5385 47.3794 22.8198C47.5328 23.0925 47.7459 23.2843 48.0186 23.3951C48.2999 23.5059 48.6237 23.5613 48.9902 23.5613C49.2459 23.5613 49.5016 23.54 49.7573 23.4973C50.0129 23.4462 50.209 23.4078 50.3453 23.3823L51.2019 27.4348C50.9291 27.5201 50.5456 27.6181 50.0513 27.7289C49.557 27.8482 48.9561 27.9206 48.2487 27.9462C46.9362 27.9973 45.7857 27.8226 44.797 27.4221C43.8169 27.0215 43.0541 26.3993 42.5087 25.5556C41.9632 24.7118 41.6948 23.6465 41.7033 22.3596V3.33682ZM59.1143 1.49592V4.25728C59.1143 5.04137 58.9609 5.84251 58.6541 6.66069C58.3558 7.47035 57.9552 8.23739 57.4524 8.96182C56.9496 9.67773 56.3998 10.2871 55.8032 10.7899L53.3998 9.37092C53.826 8.69762 54.201 7.95188 54.5248 7.1337C54.8572 6.31552 55.0234 5.36523 55.0234 4.28285V1.49592H59.1143ZM75.8989 13.6408L70.9131 13.9476C70.8279 13.5215 70.6447 13.138 70.3634 12.7971C70.0822 12.4476 69.7114 12.1706 69.2512 11.9661C68.7995 11.753 68.2583 11.6465 67.6276 11.6465C66.7839 11.6465 66.0722 11.8255 65.4927 12.1834C64.9131 12.5328 64.6234 13.0016 64.6234 13.5897C64.6234 14.0584 64.8109 14.4547 65.1859 14.7786C65.5609 15.1025 66.2043 15.3624 67.1163 15.5584L70.6702 16.2743C72.5793 16.6664 74.0026 17.2971 74.9401 18.1664C75.8776 19.0357 76.3464 20.1777 76.3464 21.5925C76.3464 22.8794 75.9671 24.0087 75.2086 24.9803C74.4586 25.9519 73.4274 26.7104 72.1149 27.2559C70.8109 27.7928 69.3066 28.0613 67.6021 28.0613C65.0026 28.0613 62.9316 27.5201 61.389 26.4377C59.8549 25.3468 58.9558 23.8638 58.6916 21.9888L64.0481 21.7076C64.21 22.5002 64.6021 23.1053 65.2242 23.5229C65.8464 23.932 66.6433 24.1365 67.6148 24.1365C68.5694 24.1365 69.3364 23.9533 69.916 23.5868C70.5041 23.2118 70.8024 22.7303 70.8109 22.1422C70.8024 21.6479 70.5935 21.2431 70.1845 20.9277C69.7754 20.6039 69.1447 20.3567 68.2924 20.1863L64.8918 19.5087C62.9742 19.1252 61.5467 18.4604 60.6092 17.5144C59.6802 16.5684 59.2157 15.3624 59.2157 13.8965C59.2157 12.6351 59.5566 11.5485 60.2384 10.6365C60.9288 9.72461 61.8961 9.02148 63.1404 8.52717C64.3933 8.03285 65.8592 7.78569 67.5381 7.78569C70.0183 7.78569 71.97 8.30984 73.3933 9.35813C74.8251 10.4064 75.6603 11.834 75.8989 13.6408ZM86.77 27.6777V1.49592H97.253C99.1791 1.49592 100.786 1.78143 102.073 2.35245C103.36 2.92347 104.327 3.71609 104.975 4.73029C105.622 5.73597 105.946 6.89506 105.946 8.20756C105.946 9.23029 105.742 10.1294 105.333 10.905C104.923 11.6721 104.361 12.3027 103.645 12.7971C102.938 13.2828 102.128 13.628 101.216 13.8326V14.0882C102.213 14.1309 103.146 14.4121 104.016 14.932C104.894 15.4519 105.605 16.1806 106.151 17.1181C106.696 18.0471 106.969 19.155 106.969 20.4419C106.969 21.8311 106.624 23.0712 105.933 24.1621C105.252 25.2445 104.242 26.101 102.904 26.7317C101.565 27.3624 99.9163 27.6777 97.9561 27.6777H86.77ZM92.3055 23.1522H96.8183C98.3609 23.1522 99.4859 22.8581 100.193 22.2701C100.901 21.6735 101.254 20.8809 101.254 19.8922C101.254 19.1678 101.08 18.5286 100.73 17.9746C100.381 17.4206 99.8822 16.986 99.2345 16.6706C98.5953 16.3553 97.8325 16.1976 96.9462 16.1976H92.3055V23.1522ZM92.3055 12.4519H96.4092C97.1677 12.4519 97.841 12.3198 98.4291 12.0556C99.0257 11.7828 99.4945 11.3993 99.8354 10.905C100.185 10.4107 100.36 9.81836 100.36 9.12802C100.36 8.182 100.023 7.41921 99.3496 6.83967C98.6848 6.26012 97.7388 5.97035 96.5115 5.97035H92.3055V12.4519ZM122.341 19.3169V8.04137H127.787V27.6777H122.558V24.111H122.354C121.91 25.2615 121.173 26.1863 120.142 26.8851C119.119 27.584 117.871 27.9334 116.396 27.9334C115.084 27.9334 113.929 27.6351 112.932 27.0385C111.935 26.4419 111.155 25.5939 110.592 24.4945C110.038 23.3951 109.757 22.0783 109.749 20.5442V8.04137H115.195V19.5726C115.203 20.7317 115.514 21.6479 116.128 22.3212C116.741 22.9945 117.564 23.3311 118.595 23.3311C119.251 23.3311 119.865 23.182 120.436 22.8837C121.007 22.5769 121.467 22.1252 121.817 21.5286C122.175 20.932 122.349 20.1948 122.341 19.3169ZM131.423 27.6777V8.04137H136.869V27.6777H131.423ZM134.159 5.51012C133.349 5.51012 132.655 5.24165 132.075 4.70472C131.504 4.15927 131.219 3.50728 131.219 2.74876C131.219 1.99876 131.504 1.35529 132.075 0.818359C132.655 0.272904 133.349 0.000176191 134.159 0.000176191C134.969 0.000176191 135.659 0.272904 136.23 0.818359C136.809 1.35529 137.099 1.99876 137.099 2.74876C137.099 3.50728 136.809 4.15927 136.23 4.70472C135.659 5.24165 134.969 5.51012 134.159 5.51012ZM145.958 1.49592V27.6777H140.512V1.49592H145.958ZM156.836 27.9973C155.345 27.9973 153.994 27.6138 152.783 26.8468C151.582 26.0712 150.627 24.9334 149.92 23.4334C149.221 21.9249 148.872 20.0755 148.872 17.8851C148.872 15.6351 149.234 13.7644 149.958 12.2729C150.683 10.7729 151.646 9.65217 152.847 8.91069C154.058 8.16069 155.383 7.78569 156.823 7.78569C157.923 7.78569 158.839 7.97319 159.572 8.34819C160.313 8.71467 160.91 9.17489 161.362 9.72887C161.822 10.2743 162.171 10.8113 162.41 11.3397H162.576V1.49592H168.009V27.6777H162.64V24.5328H162.41C162.154 25.0783 161.792 25.6195 161.323 26.1564C160.863 26.6848 160.262 27.1238 159.521 27.4732C158.788 27.8226 157.893 27.9973 156.836 27.9973ZM158.562 23.6635C159.44 23.6635 160.181 23.4249 160.786 22.9476C161.4 22.4618 161.869 21.7843 162.193 20.9149C162.525 20.0456 162.691 19.0272 162.691 17.8596C162.691 16.6919 162.529 15.6777 162.205 14.8169C161.882 13.9561 161.413 13.2914 160.799 12.8226C160.185 12.3539 159.44 12.1195 158.562 12.1195C157.667 12.1195 156.913 12.3624 156.299 12.8482C155.685 13.334 155.221 14.0073 154.906 14.8681C154.59 15.7289 154.433 16.726 154.433 17.8596C154.433 19.0016 154.59 20.0115 154.906 20.8894C155.23 21.7587 155.694 22.4405 156.299 22.9348C156.913 23.4206 157.667 23.6635 158.562 23.6635ZM0.000177532 71.6777V45.4959H17.3354V50.0598H5.53569V56.2985H16.1848V60.8624H5.53569V71.6777H0.000177532ZM31.5984 63.3169V52.0414H37.0444V71.6777H31.8157V68.111H31.6111C31.168 69.2615 30.4307 70.1863 29.3995 70.8851C28.3768 71.584 27.1282 71.9334 25.6538 71.9334C24.3413 71.9334 23.1864 71.6351 22.1893 71.0385C21.1921 70.4419 20.4123 69.5939 19.8498 68.4945C19.2958 67.3951 19.0146 66.0783 19.006 64.5442V52.0414H24.4521V63.5726C24.4606 64.7317 24.7717 65.6479 25.3853 66.3212C25.9989 66.9945 26.8214 67.3311 27.8526 67.3311C28.5089 67.3311 29.1225 67.182 29.6935 66.8837C30.2646 66.5769 30.7248 66.1252 31.0742 65.5286C31.4322 64.932 31.6069 64.1948 31.5984 63.3169ZM51.1252 52.0414V56.1323H39.2999V52.0414H51.1252ZM41.9845 47.3368H47.4306V65.6436C47.4306 66.1465 47.5073 66.5385 47.6607 66.8198C47.8141 67.0925 48.0272 67.2843 48.2999 67.3951C48.5811 67.5059 48.905 67.5613 49.2715 67.5613C49.5272 67.5613 49.7828 67.54 50.0385 67.4973C50.2942 67.4462 50.4902 67.4078 50.6266 67.3823L51.4831 71.4348C51.2104 71.5201 50.8269 71.6181 50.3326 71.7289C49.8382 71.8482 49.2374 71.9206 48.53 71.9462C47.2175 71.9973 46.0669 71.8226 45.0783 71.4221C44.0982 71.0215 43.3354 70.3993 42.7899 69.5556C42.2445 68.7118 41.976 67.6465 41.9845 66.3596V47.3368ZM66.5451 63.3169V52.0414H71.9911V71.6777H66.7624V68.111H66.5579C66.1147 69.2615 65.3775 70.1863 64.3462 70.8851C63.3235 71.584 62.0749 71.9334 60.6005 71.9334C59.288 71.9334 58.1331 71.6351 57.136 71.0385C56.1388 70.4419 55.359 69.5939 54.7965 68.4945C54.2425 67.3951 53.9613 66.0783 53.9527 64.5442V52.0414H59.3988V63.5726C59.4073 64.7317 59.7184 65.6479 60.332 66.3212C60.9456 66.9945 61.7681 67.3311 62.7993 67.3311C63.4556 67.3311 64.0692 67.182 64.6402 66.8837C65.2113 66.5769 65.6715 66.1252 66.0209 65.5286C66.3789 64.932 66.5536 64.1948 66.5451 63.3169ZM75.6273 71.6777V52.0414H80.9071V55.4675H81.1117C81.4696 54.2488 82.0705 53.3283 82.9142 52.7061C83.758 52.0755 84.7296 51.7601 85.829 51.7601C86.1017 51.7601 86.3957 51.7772 86.7111 51.8113C87.0264 51.8453 87.3034 51.8922 87.5421 51.9519V56.7843C87.2864 56.7076 86.9327 56.6394 86.481 56.5797C86.0293 56.5201 85.6159 56.4902 85.2409 56.4902C84.4398 56.4902 83.7239 56.665 83.0932 57.0144C82.471 57.3553 81.9767 57.8326 81.6102 58.4462C81.2523 59.0598 81.0733 59.7672 81.0733 60.5684V71.6777H75.6273ZM97.6726 72.0613C95.6527 72.0613 93.914 71.6522 92.4566 70.834C91.0078 70.0073 89.8913 68.8397 89.1072 67.3311C88.3231 65.8141 87.9311 64.0201 87.9311 61.949C87.9311 59.9292 88.3231 58.1564 89.1072 56.6309C89.8913 55.1053 90.995 53.9164 92.4183 53.0641C93.8501 52.2118 95.5291 51.7857 97.4552 51.7857C98.7507 51.7857 99.9566 51.9945 101.073 52.4121C102.198 52.8212 103.178 53.4391 104.013 54.2658C104.857 55.0925 105.513 56.1323 105.982 57.3851C106.451 58.6294 106.685 60.0868 106.685 61.7573V63.253H90.1044V59.878H101.559C101.559 59.0939 101.388 58.3993 101.048 57.7942C100.707 57.1891 100.234 56.7161 99.6285 56.3752C99.0319 56.0257 98.3373 55.851 97.5447 55.851C96.718 55.851 95.9851 56.0428 95.3458 56.4263C94.7152 56.8013 94.2208 57.3084 93.8629 57.9476C93.5049 58.5783 93.3217 59.2814 93.3132 60.057V63.2658C93.3132 64.2374 93.4922 65.0769 93.8501 65.7843C94.2166 66.4917 94.7322 67.0371 95.397 67.4206C96.0618 67.8042 96.8501 67.9959 97.762 67.9959C98.3672 67.9959 98.9211 67.9107 99.424 67.7402C99.9268 67.5698 100.357 67.3141 100.715 66.9732C101.073 66.6323 101.346 66.2147 101.533 65.7203L106.57 66.0527C106.315 67.263 105.79 68.3198 104.998 69.2232C104.214 70.1181 103.2 70.8169 101.955 71.3198C100.719 71.8141 99.2919 72.0613 97.6726 72.0613Z" fill="white"/>
<path d="M178.484 6.05984V1.49592H199.987V6.05984H191.971V27.6777H186.5V6.05984H178.484ZM208.152 16.3255V27.6777H202.706V1.49592H207.998V11.5059H208.229C208.672 10.3468 209.388 9.4391 210.376 8.78285C211.365 8.11807 212.605 7.78569 214.096 7.78569C215.46 7.78569 216.649 8.08398 217.663 8.68057C218.686 9.26864 219.479 10.1167 220.041 11.2246C220.612 12.324 220.893 13.6408 220.885 15.1749V27.6777H215.439V16.1465C215.447 14.9363 215.141 13.9945 214.518 13.3212C213.905 12.6479 213.044 12.3113 211.936 12.3113C211.195 12.3113 210.538 12.4689 209.967 12.7843C209.405 13.0996 208.962 13.5598 208.638 14.1649C208.322 14.7615 208.16 15.4817 208.152 16.3255ZM233.4 28.0613C231.38 28.0613 229.641 27.6522 228.184 26.834C226.735 26.0073 225.618 24.8397 224.834 23.3311C224.05 21.8141 223.658 20.0201 223.658 17.949C223.658 15.9292 224.05 14.1564 224.834 12.6309C225.618 11.1053 226.722 9.91637 228.145 9.0641C229.577 8.21182 231.256 7.78569 233.182 7.78569C234.478 7.78569 235.684 7.9945 236.8 8.41211C237.925 8.8212 238.905 9.4391 239.74 10.2658C240.584 11.0925 241.24 12.1323 241.709 13.3851C242.178 14.6294 242.412 16.0868 242.412 17.7573V19.253H225.831V15.878H237.286C237.286 15.0939 237.115 14.3993 236.775 13.7942C236.434 13.1891 235.961 12.7161 235.356 12.3752C234.759 12.0257 234.064 11.851 233.272 11.851C232.445 11.851 231.712 12.0428 231.073 12.4263C230.442 12.8013 229.948 13.3084 229.59 13.9476C229.232 14.5783 229.049 15.2814 229.04 16.057V19.2658C229.04 20.2374 229.219 21.0769 229.577 21.7843C229.944 22.4917 230.459 23.0371 231.124 23.4206C231.789 23.8042 232.577 23.9959 233.489 23.9959C234.094 23.9959 234.648 23.9107 235.151 23.7402C235.654 23.5698 236.084 23.3141 236.442 22.9732C236.8 22.6323 237.073 22.2147 237.26 21.7203L242.297 22.0527C242.042 23.263 241.517 24.3198 240.725 25.2232C239.941 26.1181 238.927 26.8169 237.682 27.3198C236.446 27.8141 235.019 28.0613 233.4 28.0613ZM141.293 58.5868C141.293 61.4419 140.752 63.8709 139.67 65.8738C138.596 67.8766 137.13 69.4064 135.272 70.4632C133.423 71.5115 131.343 72.0357 129.033 72.0357C126.707 72.0357 124.619 71.5073 122.769 70.4505C120.92 69.3936 119.458 67.8638 118.384 65.861C117.31 63.8581 116.773 61.4334 116.773 58.5868C116.773 55.7317 117.31 53.3027 118.384 51.2999C119.458 49.2971 120.92 47.7715 122.769 46.7232C124.619 45.6664 126.707 45.138 129.033 45.138C131.343 45.138 133.423 45.6664 135.272 46.7232C137.13 47.7715 138.596 49.2971 139.67 51.2999C140.752 53.3027 141.293 55.7317 141.293 58.5868ZM135.681 58.5868C135.681 56.7374 135.404 55.1777 134.85 53.9078C134.305 52.638 133.533 51.6749 132.536 51.0186C131.539 50.3624 130.371 50.0343 129.033 50.0343C127.695 50.0343 126.528 50.3624 125.53 51.0186C124.533 51.6749 123.758 52.638 123.204 53.9078C122.658 55.1777 122.386 56.7374 122.386 58.5868C122.386 60.4363 122.658 61.9959 123.204 63.2658C123.758 64.5357 124.533 65.4988 125.53 66.155C126.528 66.8113 127.695 67.1394 129.033 67.1394C130.371 67.1394 131.539 66.8113 132.536 66.155C133.533 65.4988 134.305 64.5357 134.85 63.2658C135.404 61.9959 135.681 60.4363 135.681 58.5868ZM155.131 52.0414V56.1323H143.012V52.0414H155.131ZM145.786 71.6777V50.6223C145.786 49.199 146.063 48.0186 146.617 47.0811C147.179 46.1436 147.947 45.4405 148.918 44.9718C149.89 44.503 150.993 44.2686 152.229 44.2686C153.064 44.2686 153.827 44.3326 154.518 44.4604C155.216 44.5882 155.736 44.7033 156.077 44.8056L155.106 48.8965C154.893 48.8283 154.628 48.7644 154.313 48.7047C154.006 48.6451 153.691 48.6152 153.367 48.6152C152.566 48.6152 152.008 48.8027 151.692 49.1777C151.377 49.5442 151.219 50.0598 151.219 50.7246V71.6777H145.786ZM165.453 71.6777V45.4959H182.788V50.0598H170.988V56.2985H181.637V60.8624H170.988V71.6777H165.453ZM185.689 71.6777V52.0414H191.135V71.6777H185.689ZM188.425 49.5101C187.615 49.5101 186.92 49.2417 186.341 48.7047C185.77 48.1593 185.484 47.5073 185.484 46.7488C185.484 45.9988 185.77 45.3553 186.341 44.8184C186.92 44.2729 187.615 44.0002 188.425 44.0002C189.234 44.0002 189.925 44.2729 190.496 44.8184C191.075 45.3553 191.365 45.9988 191.365 46.7488C191.365 47.5073 191.075 48.1593 190.496 48.7047C189.925 49.2417 189.234 49.5101 188.425 49.5101ZM200.223 60.3255V71.6777H194.777V52.0414H199.968V55.5059H200.198C200.633 54.3638 201.361 53.4604 202.384 52.7956C203.407 52.1223 204.647 51.7857 206.104 51.7857C207.468 51.7857 208.657 52.084 209.671 52.6806C210.685 53.2772 211.473 54.1294 212.036 55.2374C212.598 56.3368 212.88 57.6493 212.88 59.1749V71.6777H207.434V60.1465C207.442 58.9448 207.135 58.0073 206.513 57.334C205.891 56.6522 205.035 56.3113 203.944 56.3113C203.211 56.3113 202.563 56.4689 202 56.7843C201.446 57.0996 201.012 57.5598 200.696 58.1649C200.39 58.7615 200.232 59.4817 200.223 60.3255ZM222.051 72.0485C220.799 72.0485 219.682 71.8311 218.702 71.3965C217.722 70.9533 216.946 70.3013 216.375 69.4405C215.813 68.5712 215.532 67.4888 215.532 66.1934C215.532 65.1025 215.732 64.1863 216.132 63.4448C216.533 62.7033 217.078 62.1067 217.769 61.655C218.459 61.2033 219.243 60.8624 220.121 60.6323C221.007 60.4022 221.936 60.2402 222.908 60.1465C224.05 60.0272 224.97 59.9164 225.669 59.8141C226.368 59.7033 226.875 59.5414 227.191 59.3283C227.506 59.1152 227.664 58.7999 227.664 58.3823V58.3056C227.664 57.4959 227.408 56.8695 226.897 56.4263C226.394 55.9831 225.678 55.7615 224.749 55.7615C223.769 55.7615 222.989 55.9789 222.409 56.4135C221.83 56.8397 221.446 57.3766 221.259 58.0243L216.222 57.6152C216.478 56.4221 216.98 55.3908 217.73 54.5215C218.48 53.6436 219.448 52.9703 220.632 52.5016C221.826 52.0243 223.206 51.7857 224.774 51.7857C225.865 51.7857 226.909 51.9135 227.907 52.1692C228.912 52.4249 229.803 52.8212 230.578 53.3581C231.362 53.8951 231.98 54.5854 232.432 55.4292C232.884 56.2644 233.11 57.2658 233.11 58.4334V71.6777H227.945V68.9547H227.791C227.476 69.5684 227.054 70.1096 226.526 70.5783C225.997 71.0385 225.362 71.4007 224.621 71.665C223.88 71.9206 223.023 72.0485 222.051 72.0485ZM223.611 68.29C224.412 68.29 225.12 68.1323 225.733 67.8169C226.347 67.4931 226.828 67.0584 227.178 66.513C227.527 65.9675 227.702 65.3496 227.702 64.6593V62.5755C227.532 62.6863 227.297 62.7885 226.999 62.8823C226.709 62.9675 226.381 63.0485 226.014 63.1252C225.648 63.1934 225.282 63.2573 224.915 63.3169C224.549 63.3681 224.216 63.415 223.918 63.4576C223.279 63.5513 222.72 63.7005 222.243 63.905C221.766 64.1096 221.395 64.3865 221.131 64.736C220.867 65.0769 220.735 65.503 220.735 66.0144C220.735 66.7559 221.003 67.3226 221.54 67.7147C222.085 68.0982 222.776 68.29 223.611 68.29ZM242.061 60.3255V71.6777H236.615V52.0414H241.805V55.5059H242.035C242.47 54.3638 243.199 53.4604 244.221 52.7956C245.244 52.1223 246.484 51.7857 247.941 51.7857C249.305 51.7857 250.494 52.084 251.508 52.6806C252.522 53.2772 253.311 54.1294 253.873 55.2374C254.436 56.3368 254.717 57.6493 254.717 59.1749V71.6777H249.271V60.1465C249.28 58.9448 248.973 58.0073 248.351 57.334C247.728 56.6522 246.872 56.3113 245.781 56.3113C245.048 56.3113 244.4 56.4689 243.838 56.7843C243.284 57.0996 242.849 57.5598 242.534 58.1649C242.227 58.7615 242.069 59.4817 242.061 60.3255ZM267.161 72.0613C265.15 72.0613 263.42 71.6351 261.971 70.7828C260.531 69.9221 259.423 68.7289 258.647 67.2033C257.88 65.6777 257.497 63.9221 257.497 61.9363C257.497 59.9249 257.884 58.1607 258.66 56.6436C259.444 55.1181 260.556 53.9292 261.997 53.0769C263.437 52.2161 265.15 51.7857 267.136 51.7857C268.849 51.7857 270.349 52.0968 271.636 52.7189C272.923 53.3411 273.941 54.2147 274.691 55.3397C275.441 56.4647 275.855 57.7857 275.931 59.3027H270.792C270.647 58.3226 270.264 57.5343 269.642 56.9377C269.028 56.3326 268.223 56.03 267.225 56.03C266.382 56.03 265.644 56.2601 265.014 56.7203C264.392 57.1721 263.906 57.8326 263.556 58.7019C263.207 59.5712 263.032 60.6238 263.032 61.8596C263.032 63.1124 263.203 64.1777 263.544 65.0556C263.893 65.9334 264.383 66.6025 265.014 67.0627C265.644 67.5229 266.382 67.753 267.225 67.753C267.848 67.753 268.406 67.6252 268.9 67.3695C269.403 67.1138 269.816 66.7431 270.14 66.2573C270.473 65.763 270.69 65.1706 270.792 64.4803H275.931C275.846 65.9803 275.437 67.3013 274.704 68.4434C273.98 69.5769 272.978 70.4632 271.7 71.1025C270.421 71.7417 268.909 72.0613 267.161 72.0613ZM287.647 72.0613C285.627 72.0613 283.889 71.6522 282.431 70.834C280.982 70.0073 279.866 68.8397 279.082 67.3311C278.298 65.8141 277.906 64.0201 277.906 61.949C277.906 59.9292 278.298 58.1564 279.082 56.6309C279.866 55.1053 280.97 53.9164 282.393 53.0641C283.825 52.2118 285.504 51.7857 287.43 51.7857C288.725 51.7857 289.931 51.9945 291.048 52.4121C292.173 52.8212 293.153 53.4391 293.988 54.2658C294.832 55.0925 295.488 56.1323 295.957 57.3851C296.426 58.6294 296.66 60.0868 296.66 61.7573V63.253H280.079V59.878H291.533C291.533 59.0939 291.363 58.3993 291.022 57.7942C290.681 57.1891 290.208 56.7161 289.603 56.3752C289.006 56.0257 288.312 55.851 287.519 55.851C286.693 55.851 285.96 56.0428 285.32 56.4263C284.69 56.8013 284.195 57.3084 283.837 57.9476C283.479 58.5783 283.296 59.2814 283.288 60.057V63.2658C283.288 64.2374 283.467 65.0769 283.825 65.7843C284.191 66.4917 284.707 67.0371 285.372 67.4206C286.036 67.8042 286.825 67.9959 287.737 67.9959C288.342 67.9959 288.896 67.9107 289.399 67.7402C289.901 67.5698 290.332 67.3141 290.69 66.9732C291.048 66.6323 291.32 66.2147 291.508 65.7203L296.545 66.0527C296.289 67.263 295.765 68.3198 294.972 69.2232C294.188 70.1181 293.174 70.8169 291.93 71.3198C290.694 71.8141 289.266 72.0613 287.647 72.0613Z" fill="white" fill-opacity="0.8"/>
</svg>
