<svg width="656" height="119" viewBox="0 0 656 119" fill="none" xmlns="http://www.w3.org/2000/svg">
<path d="M-0.000355154 46.1289V2.49254H9.2255V38.5224H27.9329V46.1289H-0.000355154ZM47.5869 46.7681C44.2205 46.7681 41.3227 46.0863 38.8937 44.7227C36.479 43.3448 34.6182 41.3988 33.3114 38.8846C32.0045 36.3562 31.3511 33.3661 31.3511 29.9144C31.3511 26.5479 32.0045 23.5934 33.3114 21.0508C34.6182 18.5082 36.4577 16.5266 38.8298 15.1062C41.2162 13.6857 44.0145 12.9755 47.2247 12.9755C49.3838 12.9755 51.3937 13.3235 53.2545 14.0195C55.1295 14.7013 56.7631 15.7312 58.1551 17.109C59.5614 18.4869 60.6551 20.2198 61.4364 22.3079C62.2176 24.3817 62.6082 26.8107 62.6082 29.5948V32.0877H34.9733V26.4627H54.0642C54.0642 25.1559 53.7801 23.9982 53.2119 22.9897C52.6438 21.9812 51.8554 21.1928 50.8469 20.6246C49.8526 20.0423 48.6949 19.7511 47.3739 19.7511C45.996 19.7511 44.7744 20.0707 43.7091 20.7099C42.658 21.3349 41.8341 22.18 41.2375 23.2454C40.6409 24.2965 40.3355 25.4684 40.3213 26.761V32.109C40.3213 33.7283 40.6196 35.1275 41.2162 36.3065C41.827 37.4854 42.6864 38.3945 43.7943 39.0337C44.9023 39.6729 46.2162 39.9925 47.7361 39.9925C48.7446 39.9925 49.6679 39.8505 50.506 39.5664C51.344 39.2823 52.0614 38.8562 52.658 38.288C53.2545 37.7198 53.7091 37.0238 54.0216 36.1999L62.4165 36.7539C61.9903 38.771 61.1168 40.5323 59.7957 42.038C58.4889 43.5295 56.7986 44.6942 54.7247 45.5323C52.6651 46.3562 50.2858 46.7681 47.5869 46.7681ZM84.7392 13.4016V20.2198H65.0304V13.4016H84.7392ZM69.5048 5.56072H78.5815V36.0721C78.5815 36.9102 78.7094 37.5636 78.9651 38.0323C79.2207 38.4869 79.5759 38.8065 80.0304 38.9911C80.4991 39.1758 81.0389 39.2681 81.6497 39.2681C82.0759 39.2681 82.502 39.2326 82.9281 39.1616C83.3543 39.0763 83.681 39.0124 83.9082 38.9698L85.3358 45.7241C84.8812 45.8661 84.242 46.0295 83.4182 46.2141C82.5943 46.413 81.5929 46.5337 80.4139 46.5763C78.2264 46.6616 76.3088 46.3704 74.6611 45.7028C73.0276 45.0352 71.7562 43.9982 70.8472 42.592C69.9381 41.1857 69.4906 39.4102 69.5048 37.2653V5.56072ZM98.5232 2.49254V7.09482C98.5232 8.40163 98.2675 9.73686 97.7562 11.1005C97.259 12.4499 96.5914 13.7283 95.7533 14.9357C94.9153 16.1289 93.9991 17.1445 93.0048 17.9826L88.9991 15.6175C89.7093 14.4954 90.3343 13.2525 90.8741 11.8888C91.4281 10.5252 91.705 8.9414 91.705 7.13743V2.49254H98.5232ZM126.498 22.734L118.188 23.2454C118.046 22.5352 117.74 21.896 117.272 21.3278C116.803 20.7454 116.185 20.2837 115.418 19.9428C114.665 19.5877 113.763 19.4102 112.712 19.4102C111.306 19.4102 110.12 19.7085 109.154 20.305C108.188 20.8874 107.705 21.6687 107.705 22.6488C107.705 23.43 108.017 24.0906 108.642 24.6303C109.267 25.1701 110.34 25.6033 111.86 25.93L117.783 27.1232C120.965 27.7766 123.337 28.8278 124.9 30.2766C126.462 31.7255 127.243 33.6289 127.243 35.9869C127.243 38.1317 126.611 40.0138 125.347 41.6332C124.097 43.2525 122.378 44.5167 120.191 45.4258C118.017 46.3207 115.51 46.7681 112.669 46.7681C108.337 46.7681 104.885 45.8661 102.314 44.0621C99.7575 42.244 98.2589 39.7724 97.8186 36.6474L106.746 36.1786C107.016 37.4996 107.669 38.5082 108.706 39.2042C109.743 39.886 111.071 40.2269 112.691 40.2269C114.282 40.2269 115.56 39.9215 116.526 39.3107C117.506 38.6857 118.003 37.8832 118.017 36.9031C118.003 36.0792 117.655 35.4045 116.973 34.8789C116.292 34.3391 115.24 33.9272 113.82 33.6431L108.152 32.5138C104.956 31.8746 102.577 30.7667 101.015 29.19C99.4663 27.6133 98.6922 25.6033 98.6922 23.1602C98.6922 21.0579 99.2604 19.2468 100.397 17.7269C101.547 16.207 103.16 15.0352 105.233 14.2113C107.321 13.3874 109.765 12.9755 112.563 12.9755C116.696 12.9755 119.949 13.8491 122.321 15.5962C124.708 17.3434 126.1 19.7227 126.498 22.734ZM144.616 46.1289V2.49254H162.088C165.298 2.49254 167.975 2.96839 170.12 3.9201C172.265 4.8718 173.877 6.19283 174.957 7.88317C176.037 9.5593 176.576 11.4911 176.576 13.6786C176.576 15.3832 176.235 16.8817 175.554 18.1744C174.872 19.4528 173.934 20.5039 172.741 21.3278C171.562 22.1374 170.213 22.7127 168.693 23.0536V23.4798C170.355 23.5508 171.91 24.0195 173.359 24.886C174.822 25.7525 176.008 26.967 176.917 28.5295C177.826 30.0778 178.281 31.9244 178.281 34.0692C178.281 36.3846 177.706 38.4513 176.555 40.2695C175.419 42.0735 173.735 43.5011 171.505 44.5522C169.275 45.6033 166.527 46.1289 163.26 46.1289H144.616ZM153.842 38.5863H161.363C163.934 38.5863 165.809 38.0962 166.988 37.1161C168.167 36.1218 168.757 34.8008 168.757 33.1531C168.757 31.9457 168.465 30.8803 167.883 29.957C167.301 29.0337 166.47 28.3093 165.39 27.7837C164.325 27.2582 163.054 26.9954 161.576 26.9954H153.842V38.5863ZM153.842 20.7525H160.681C161.946 20.7525 163.068 20.5323 164.048 20.092C165.042 19.6374 165.823 18.9982 166.392 18.1744C166.974 17.3505 167.265 16.3633 167.265 15.2127C167.265 13.636 166.704 12.3647 165.582 11.3988C164.474 10.4329 162.897 9.94993 160.852 9.94993H153.842V20.7525ZM203.901 32.1942V13.4016H212.977V46.1289H204.263V40.1843H203.922C203.183 42.1019 201.955 43.6431 200.236 44.8079C198.531 45.9727 196.451 46.555 193.993 46.555C191.806 46.555 189.881 46.0579 188.219 45.0636C186.557 44.0692 185.257 42.6559 184.32 40.8235C183.397 38.9911 182.928 36.7965 182.914 34.2397V13.4016H191.99V32.6204C192.004 34.5522 192.523 36.0792 193.546 37.2013C194.568 38.3235 195.939 38.8846 197.658 38.8846C198.752 38.8846 199.774 38.636 200.726 38.1388C201.678 37.6275 202.445 36.8746 203.027 35.8803C203.624 34.886 203.915 33.6573 203.901 32.1942ZM219.038 46.1289V13.4016H228.114V46.1289H219.038ZM223.597 9.18288C222.248 9.18288 221.09 8.73544 220.124 7.84055C219.173 6.93146 218.697 5.84481 218.697 4.58061C218.697 3.33061 219.173 2.25817 220.124 1.36328C221.09 0.454189 222.248 -0.000357389 223.597 -0.000357389C224.947 -0.000357389 226.097 0.454189 227.049 1.36328C228.015 2.25817 228.498 3.33061 228.498 4.58061C228.498 5.84481 228.015 6.93146 227.049 7.84055C226.097 8.73544 224.947 9.18288 223.597 9.18288ZM243.262 2.49254V46.1289H234.185V2.49254H243.262ZM261.393 46.6616C258.907 46.6616 256.656 46.0224 254.638 44.744C252.636 43.4513 251.045 41.555 249.866 39.055C248.701 36.5408 248.119 33.4585 248.119 29.8079C248.119 26.0579 248.722 22.94 249.93 20.4542C251.137 17.9542 252.742 16.0863 254.745 14.8505C256.762 13.6005 258.971 12.9755 261.371 12.9755C263.204 12.9755 264.731 13.288 265.952 13.913C267.188 14.5238 268.183 15.2908 268.935 16.2141C269.702 17.1232 270.285 18.0181 270.683 18.8988H270.96V2.49254H280.015V46.1289H271.066V40.8874H270.683C270.256 41.7965 269.653 42.6985 268.871 43.5934C268.104 44.4741 267.103 45.2056 265.867 45.788C264.646 46.3704 263.154 46.6616 261.393 46.6616ZM264.269 39.4386C265.732 39.4386 266.968 39.0408 267.977 38.2454C268.999 37.4357 269.781 36.3065 270.32 34.8576C270.874 33.4087 271.151 31.7113 271.151 29.7653C271.151 27.8192 270.881 26.1289 270.342 24.6942C269.802 23.2596 269.021 22.1516 267.998 21.3704C266.975 20.5891 265.732 20.1985 264.269 20.1985C262.778 20.1985 261.521 20.6033 260.498 21.413C259.475 22.2227 258.701 23.3448 258.175 24.7795C257.65 26.2141 257.387 27.8761 257.387 29.7653C257.387 31.6687 257.65 33.3519 258.175 34.815C258.715 36.2638 259.489 37.4002 260.498 38.2241C261.521 39.0337 262.778 39.4386 264.269 39.4386ZM405.546 46.1289V2.49254H434.438V10.0991H414.772V20.4968H432.52V28.1033H414.772V46.1289H405.546ZM458.209 32.1942V13.4016H467.286V46.1289H458.572V40.1843H458.231C457.492 42.1019 456.263 43.6431 454.545 44.8079C452.84 45.9727 450.759 46.555 448.302 46.555C446.114 46.555 444.189 46.0579 442.528 45.0636C440.866 44.0692 439.566 42.6559 438.628 40.8235C437.705 38.9911 437.236 36.7965 437.222 34.2397V13.4016H446.299V32.6204C446.313 34.5522 446.832 36.0792 447.854 37.2013C448.877 38.3235 450.248 38.8846 451.966 38.8846C453.06 38.8846 454.083 38.636 455.035 38.1388C455.986 37.6275 456.753 36.8746 457.336 35.8803C457.932 34.886 458.224 33.6573 458.209 32.1942ZM490.754 13.4016V20.2198H471.045V13.4016H490.754ZM475.52 5.56072H484.596V36.0721C484.596 36.9102 484.724 37.5636 484.98 38.0323C485.236 38.4869 485.591 38.8065 486.045 38.9911C486.514 39.1758 487.054 39.2681 487.665 39.2681C488.091 39.2681 488.517 39.2326 488.943 39.1616C489.369 39.0763 489.696 39.0124 489.923 38.9698L491.351 45.7241C490.896 45.8661 490.257 46.0295 489.433 46.2141C488.609 46.413 487.608 46.5337 486.429 46.5763C484.241 46.6616 482.324 46.3704 480.676 45.7028C479.042 45.0352 477.771 43.9982 476.862 42.592C475.953 41.1857 475.505 39.4102 475.52 37.2653V5.56072ZM516.454 32.1942V13.4016H525.531V46.1289H516.816V40.1843H516.475C515.737 42.1019 514.508 43.6431 512.789 44.8079C511.085 45.9727 509.004 46.555 506.546 46.555C504.359 46.555 502.434 46.0579 500.772 45.0636C499.11 44.0692 497.81 42.6559 496.873 40.8235C495.95 38.9911 495.481 36.7965 495.467 34.2397V13.4016H504.543V32.6204C504.558 34.5522 505.076 36.0792 506.099 37.2013C507.122 38.3235 508.492 38.8846 510.211 38.8846C511.305 38.8846 512.327 38.636 513.279 38.1388C514.231 37.6275 514.998 36.8746 515.58 35.8803C516.177 34.886 516.468 33.6573 516.454 32.1942ZM531.591 46.1289V13.4016H540.391V19.1119H540.732C541.328 17.0806 542.33 15.5465 543.736 14.5096C545.142 13.4585 546.761 12.9329 548.594 12.9329C549.048 12.9329 549.538 12.9613 550.064 13.0181C550.589 13.0749 551.051 13.1531 551.449 13.2525V21.3065C551.023 21.1786 550.433 21.065 549.68 20.9656C548.928 20.8661 548.239 20.8164 547.614 20.8164C546.278 20.8164 545.085 21.1076 544.034 21.69C542.997 22.2582 542.173 23.0536 541.562 24.0763C540.966 25.0991 540.668 26.2781 540.668 27.6133V46.1289H531.591ZM568.333 46.7681C564.967 46.7681 562.069 46.0863 559.64 44.7227C557.225 43.3448 555.364 41.3988 554.057 38.8846C552.751 36.3562 552.097 33.3661 552.097 29.9144C552.097 26.5479 552.751 23.5934 554.057 21.0508C555.364 18.5082 557.204 16.5266 559.576 15.1062C561.962 13.6857 564.761 12.9755 567.971 12.9755C570.13 12.9755 572.14 13.3235 574.001 14.0195C575.876 14.7013 577.509 15.7312 578.901 17.109C580.307 18.4869 581.401 20.2198 582.182 22.3079C582.964 24.3817 583.354 26.8107 583.354 29.5948V32.0877H555.719V26.4627H574.81C574.81 25.1559 574.526 23.9982 573.958 22.9897C573.39 21.9812 572.601 21.1928 571.593 20.6246C570.599 20.0423 569.441 19.7511 568.12 19.7511C566.742 19.7511 565.521 20.0707 564.455 20.7099C563.404 21.3349 562.58 22.18 561.984 23.2454C561.387 24.2965 561.082 25.4684 561.067 26.761V32.109C561.067 33.7283 561.366 35.1275 561.962 36.3065C562.573 37.4854 563.432 38.3945 564.54 39.0337C565.648 39.6729 566.962 39.9925 568.482 39.9925C569.491 39.9925 570.414 39.8505 571.252 39.5664C572.09 39.2823 572.807 38.8562 573.404 38.288C574.001 37.7198 574.455 37.0238 574.768 36.1999L583.163 36.7539C582.736 38.771 581.863 40.5323 580.542 42.038C579.235 43.5295 577.545 44.6942 575.471 45.5323C573.411 46.3562 571.032 46.7681 568.333 46.7681Z" fill="white"/>
<path d="M316.372 13.4016V20.2198H296.663V13.4016H316.372ZM301.138 5.56072H310.214V36.0721C310.214 36.9102 310.342 37.5636 310.598 38.0323C310.854 38.4869 311.209 38.8065 311.663 38.9911C312.132 39.1758 312.672 39.2681 313.283 39.2681C313.709 39.2681 314.135 39.2326 314.561 39.1616C314.987 39.0763 315.314 39.0124 315.541 38.9698L316.969 45.7241C316.514 45.8661 315.875 46.0295 315.051 46.2141C314.227 46.413 313.226 46.5337 312.047 46.5763C309.859 46.6616 307.942 46.3704 306.294 45.7028C304.66 45.0352 303.389 43.9982 302.48 42.592C301.571 41.1857 301.123 39.4102 301.138 37.2653V5.56072ZM330.864 27.2085V46.1289H321.788V2.49254H330.609V19.1758H330.992C331.731 17.244 332.924 15.7312 334.572 14.6374C336.22 13.5295 338.286 12.9755 340.772 12.9755C343.045 12.9755 345.026 13.4727 346.717 14.467C348.421 15.4471 349.742 16.8604 350.68 18.707C351.632 20.5394 352.1 22.734 352.086 25.2908V46.1289H343.009V26.9102C343.024 24.8931 342.512 23.3235 341.475 22.2013C340.453 21.0792 339.018 20.5181 337.171 20.5181C335.936 20.5181 334.842 20.7809 333.89 21.3065C332.953 21.832 332.214 22.5991 331.674 23.6076C331.149 24.6019 330.879 25.8022 330.864 27.2085ZM372.944 46.7681C369.577 46.7681 366.68 46.0863 364.251 44.7227C361.836 43.3448 359.975 41.3988 358.668 38.8846C357.362 36.3562 356.708 33.3661 356.708 29.9144C356.708 26.5479 357.362 23.5934 358.668 21.0508C359.975 18.5082 361.815 16.5266 364.187 15.1062C366.573 13.6857 369.372 12.9755 372.582 12.9755C374.741 12.9755 376.751 13.3235 378.612 14.0195C380.487 14.7013 382.12 15.7312 383.512 17.109C384.918 18.4869 386.012 20.2198 386.793 22.3079C387.575 24.3817 387.965 26.8107 387.965 29.5948V32.0877H360.33V26.4627H379.421C379.421 25.1559 379.137 23.9982 378.569 22.9897C378.001 21.9812 377.212 21.1928 376.204 20.6246C375.21 20.0423 374.052 19.7511 372.731 19.7511C371.353 19.7511 370.131 20.0707 369.066 20.7099C368.015 21.3349 367.191 22.18 366.595 23.2454C365.998 24.2965 365.693 25.4684 365.678 26.761V32.109C365.678 33.7283 365.977 35.1275 366.573 36.3065C367.184 37.4854 368.043 38.3945 369.151 39.0337C370.259 39.6729 371.573 39.9925 373.093 39.9925C374.102 39.9925 375.025 39.8505 375.863 39.5664C376.701 39.2823 377.418 38.8562 378.015 38.288C378.612 37.7198 379.066 37.0238 379.379 36.1999L387.774 36.7539C387.347 38.771 386.474 40.5323 385.153 42.038C383.846 43.5295 382.156 44.6942 380.082 45.5323C378.022 46.3562 375.643 46.7681 372.944 46.7681ZM615.551 46.7681C612.242 46.7681 609.379 46.065 606.965 44.6587C604.564 43.2383 602.71 41.2638 601.404 38.7354C600.097 36.1928 599.443 33.2454 599.443 29.8931C599.443 26.5124 600.097 23.5579 601.404 21.0295C602.71 18.4869 604.564 16.5124 606.965 15.1062C609.379 13.6857 612.242 12.9755 615.551 12.9755C618.861 12.9755 621.716 13.6857 624.117 15.1062C626.531 16.5124 628.392 18.4869 629.699 21.0295C631.006 23.5579 631.659 26.5124 631.659 29.8931C631.659 33.2454 631.006 36.1928 629.699 38.7354C628.392 41.2638 626.531 43.2383 624.117 44.6587C621.716 46.065 618.861 46.7681 615.551 46.7681ZM615.594 39.7369C617.1 39.7369 618.357 39.3107 619.365 38.4585C620.374 37.592 621.134 36.413 621.645 34.9215C622.171 33.43 622.433 31.7326 622.433 29.8292C622.433 27.9258 622.171 26.2283 621.645 24.7369C621.134 23.2454 620.374 22.0664 619.365 21.1999C618.357 20.3335 617.1 19.9002 615.594 19.9002C614.074 19.9002 612.796 20.3335 611.759 21.1999C610.736 22.0664 609.962 23.2454 609.436 24.7369C608.925 26.2283 608.669 27.9258 608.669 29.8292C608.669 31.7326 608.925 33.43 609.436 34.9215C609.962 36.413 610.736 37.592 611.759 38.4585C612.796 39.3107 614.074 39.7369 615.594 39.7369ZM653.961 13.4016V20.2198H633.762V13.4016H653.961ZM638.385 46.1289V11.0366C638.385 8.66442 638.847 6.69709 639.77 5.13459C640.708 3.57209 641.986 2.40021 643.606 1.61896C645.225 0.83771 647.064 0.447085 649.124 0.447085C650.516 0.447085 651.787 0.55362 652.938 0.76669C654.103 0.979758 654.969 1.17152 655.537 1.34197L653.918 8.16016C653.563 8.04652 653.123 7.93998 652.597 7.84055C652.086 7.74112 651.56 7.69141 651.02 7.69141C649.685 7.69141 648.755 8.00391 648.229 8.62891C647.704 9.2397 647.441 10.0991 647.441 11.207V46.1289H638.385ZM-0.000355154 118.129V74.4925H28.8917V82.0991H9.2255V92.4968H26.9741V100.103H9.2255V118.129H-0.000355154ZM33.7268 118.129V85.4016H42.8036V118.129H33.7268ZM38.2865 81.1829C36.9371 81.1829 35.7794 80.7354 34.8135 79.8406C33.8618 78.9315 33.3859 77.8448 33.3859 76.5806C33.3859 75.3306 33.8618 74.2582 34.8135 73.3633C35.7794 72.4542 36.9371 71.9996 38.2865 71.9996C39.6359 71.9996 40.7865 72.4542 41.7382 73.3633C42.7041 74.2582 43.1871 75.3306 43.1871 76.5806C43.1871 77.8448 42.7041 78.9315 41.7382 79.8406C40.7865 80.7354 39.6359 81.1829 38.2865 81.1829ZM57.9512 99.2085V118.129H48.8745V85.4016H57.5251V91.1758H57.9086C58.633 89.2724 59.8475 87.7667 61.5521 86.6587C63.2566 85.5366 65.3234 84.9755 67.7523 84.9755C70.0251 84.9755 72.0066 85.4727 73.6969 86.467C75.3873 87.4613 76.7012 88.8817 77.6387 90.7283C78.5762 92.5607 79.045 94.7482 79.045 97.2908V118.129H69.9683V98.9102C69.9825 96.9073 69.4711 95.3448 68.4342 94.2227C67.3972 93.0863 65.9697 92.5181 64.1515 92.5181C62.9299 92.5181 61.8504 92.7809 60.9129 93.3065C59.9896 93.832 59.2651 94.5991 58.7396 95.6076C58.2282 96.6019 57.9654 97.8022 57.9512 99.2085ZM94.3311 118.747C92.243 118.747 90.3822 118.385 88.7487 117.66C87.1152 116.922 85.8226 115.835 84.8709 114.4C83.9334 112.951 83.4646 111.147 83.4646 108.988C83.4646 107.17 83.7984 105.643 84.4661 104.407C85.1337 103.172 86.0428 102.177 87.1933 101.424C88.3439 100.672 89.6507 100.103 91.1138 99.7198C92.5911 99.3363 94.1393 99.0664 95.7587 98.9102C97.6621 98.7113 99.1962 98.5266 100.361 98.3562C101.526 98.1715 102.371 97.9016 102.896 97.5465C103.422 97.1914 103.685 96.6658 103.685 95.9698V95.842C103.685 94.4925 103.259 93.4485 102.406 92.7099C101.568 91.9712 100.375 91.6019 98.8268 91.6019C97.1933 91.6019 95.8936 91.9641 94.9277 92.6886C93.9618 93.3988 93.3226 94.2937 93.0101 95.3732L84.6152 94.6914C85.0413 92.7028 85.8794 90.984 87.1294 89.5352C88.3794 88.0721 89.9916 86.9499 91.9661 86.1687C93.9547 85.3732 96.2558 84.9755 98.8695 84.9755C100.688 84.9755 102.428 85.1886 104.09 85.6147C105.766 86.0408 107.25 86.7013 108.543 87.5962C109.85 88.4911 110.879 89.6417 111.632 91.0479C112.385 92.44 112.762 94.109 112.762 96.055V118.129H104.154V113.591H103.898C103.372 114.613 102.669 115.515 101.788 116.297C100.908 117.064 99.8496 117.667 98.6138 118.108C97.378 118.534 95.9504 118.747 94.3311 118.747ZM96.9305 112.483C98.2658 112.483 99.4447 112.22 100.467 111.694C101.49 111.154 102.293 110.43 102.875 109.521C103.458 108.612 103.749 107.582 103.749 106.431V102.958C103.465 103.143 103.074 103.314 102.577 103.47C102.094 103.612 101.547 103.747 100.936 103.875C100.325 103.988 99.7146 104.095 99.1038 104.194C98.493 104.279 97.9391 104.358 97.4419 104.429C96.3766 104.585 95.4462 104.833 94.6507 105.174C93.8553 105.515 93.2374 105.977 92.797 106.559C92.3567 107.127 92.1365 107.838 92.1365 108.69C92.1365 109.926 92.584 110.87 93.4788 111.524C94.3879 112.163 95.5385 112.483 96.9305 112.483ZM127.68 99.2085V118.129H118.603V85.4016H127.254V91.1758H127.637C128.362 89.2724 129.576 87.7667 131.281 86.6587C132.986 85.5366 135.052 84.9755 137.481 84.9755C139.754 84.9755 141.736 85.4727 143.426 86.467C145.116 87.4613 146.43 88.8817 147.368 90.7283C148.305 92.5607 148.774 94.7482 148.774 97.2908V118.129H139.697V98.9102C139.711 96.9073 139.2 95.3448 138.163 94.2227C137.126 93.0863 135.699 92.5181 133.88 92.5181C132.659 92.5181 131.579 92.7809 130.642 93.3065C129.718 93.832 128.994 94.5991 128.468 95.6076C127.957 96.6019 127.694 97.8022 127.68 99.2085ZM169.515 118.768C166.162 118.768 163.279 118.058 160.864 116.637C158.463 115.203 156.617 113.214 155.324 110.672C154.046 108.129 153.407 105.203 153.407 101.893C153.407 98.5408 154.053 95.6005 155.346 93.0721C156.652 90.5295 158.506 88.5479 160.907 87.1275C163.307 85.6928 166.162 84.9755 169.472 84.9755C172.327 84.9755 174.827 85.494 176.972 86.5309C179.117 87.5678 180.814 89.0238 182.064 90.8988C183.314 92.7738 184.003 94.9755 184.131 97.5039H175.566C175.324 95.8704 174.685 94.5565 173.648 93.5621C172.625 92.5536 171.283 92.0494 169.621 92.0494C168.215 92.0494 166.986 92.4329 165.935 93.1999C164.898 93.9528 164.088 95.0536 163.506 96.5025C162.924 97.9513 162.632 99.7056 162.632 101.765C162.632 103.853 162.917 105.629 163.485 107.092C164.067 108.555 164.884 109.67 165.935 110.437C166.986 111.204 168.215 111.588 169.621 111.588C170.658 111.588 171.588 111.375 172.412 110.949C173.25 110.522 173.939 109.904 174.479 109.095C175.033 108.271 175.395 107.284 175.566 106.133H184.131C183.989 108.633 183.307 110.835 182.086 112.738C180.878 114.627 179.209 116.105 177.078 117.17C174.948 118.235 172.426 118.768 169.515 118.768ZM203.657 118.768C200.291 118.768 197.393 118.086 194.964 116.723C192.549 115.345 190.688 113.399 189.382 110.885C188.075 108.356 187.421 105.366 187.421 101.914C187.421 98.5479 188.075 95.5934 189.382 93.0508C190.688 90.5082 192.528 88.5266 194.9 87.1062C197.287 85.6857 200.085 84.9755 203.295 84.9755C205.454 84.9755 207.464 85.3235 209.325 86.0195C211.2 86.7013 212.833 87.7312 214.225 89.109C215.632 90.4869 216.725 92.2198 217.507 94.3079C218.288 96.3817 218.679 98.8107 218.679 101.595V104.088H191.044V98.4627H210.135C210.135 97.1559 209.85 95.9982 209.282 94.9897C208.714 93.9812 207.926 93.1928 206.917 92.6246C205.923 92.0423 204.765 91.7511 203.444 91.7511C202.066 91.7511 200.845 92.0707 199.779 92.7099C198.728 93.3349 197.904 94.18 197.308 95.2454C196.711 96.2965 196.406 97.4684 196.392 98.761V104.109C196.392 105.728 196.69 107.127 197.287 108.306C197.897 109.485 198.757 110.395 199.865 111.034C200.973 111.673 202.287 111.993 203.806 111.993C204.815 111.993 205.738 111.85 206.576 111.566C207.414 111.282 208.132 110.856 208.728 110.288C209.325 109.72 209.779 109.024 210.092 108.2L218.487 108.754C218.061 110.771 217.187 112.532 215.866 114.038C214.559 115.529 212.869 116.694 210.795 117.532C208.735 118.356 206.356 118.768 203.657 118.768Z" fill="white" fill-opacity="0.6"/>
</svg>
