<svg width="375" height="71" viewBox="0 0 375 71" fill="none" xmlns="http://www.w3.org/2000/svg">
<rect width="375" height="70.6218" fill="black" fill-opacity="0.4"/>
<path d="M31.9033 37.3187L24.8998 33.0577C24.7227 32.9496 24.524 32.9469 24.3579 33.0181C24.0474 33.151 24.0097 33.5511 24.0006 33.8887C24.0004 33.8964 24.0002 33.9041 24 33.9118L24.0298 35.1848C24.3274 39.574 26.6764 43.4023 30.1266 45.7171L31.1729 46.3536C31.1809 46.358 31.1889 46.3624 31.1969 46.3667C31.5031 46.5341 31.8852 46.707 32.1571 46.4883C32.2924 46.3796 32.3818 46.2118 32.3772 46.0124L32.1895 37.8156C32.1849 37.6118 32.0773 37.4241 31.9033 37.3187Z" fill="white"/>
<path d="M37.6793 33.6343C37.6786 33.6355 37.6771 33.636 37.6759 33.6352L28.8979 28.2949C28.4698 28.0339 27.9226 28.3498 27.9341 28.8513L28.0417 33.5748C28.0463 33.79 28.1607 33.9892 28.3462 34.1014L32.3711 36.549C32.8084 36.8146 33.0762 37.2794 33.0877 37.79L33.1884 42.1586C33.193 42.3738 33.3075 42.573 33.4929 42.6852L37.2958 44.9977C37.6987 45.2427 38.2138 44.945 38.2024 44.4734L37.9666 34.1288C37.962 33.9259 37.8553 33.7389 37.6826 33.6333C37.6814 33.6326 37.6799 33.633 37.6793 33.6343Z" fill="white"/>
<path d="M43.7257 30.8206C43.726 30.8212 43.7268 30.821 43.7268 30.8204C43.7213 30.6176 43.6139 30.4309 43.4406 30.3261L33.1929 24.0937C32.7648 23.8327 32.2176 24.1487 32.2291 24.6501L32.3275 28.9912C32.3321 29.2064 32.4466 29.4056 32.632 29.5178L38.1428 32.8698C38.5801 33.1354 38.8479 33.6002 38.8594 34.1108L39.0059 40.5744C39.0105 40.7896 39.125 40.9888 39.3104 41.101L43.0926 43.4021C43.4956 43.6471 44.0107 43.3494 43.9993 42.8778L43.7246 30.8209C43.7246 30.8203 43.7254 30.8201 43.7257 30.8206Z" fill="white"/>
<path d="M344.402 30.5977L334.976 40.0234M334.976 30.5977L344.402 40.0234" stroke="white" stroke-width="2" stroke-linecap="round" stroke-linejoin="round"/>
</svg>
