<svg width="261" height="71" viewBox="0 0 261 71" fill="none" xmlns="http://www.w3.org/2000/svg">
<path d="M24.5198 13.4491C24.5198 16.3042 23.9786 18.7332 22.8962 20.7361C21.8224 22.7389 20.3564 24.2687 18.4985 25.3256C16.6491 26.3738 14.5695 26.898 12.2599 26.898C9.93315 26.898 7.84508 26.3696 5.99565 25.3128C4.14622 24.2559 2.68457 22.7261 1.61071 20.7233C0.536843 18.7204 -8.87662e-05 16.2957 -8.87662e-05 13.4491C-8.87662e-05 10.594 0.536843 8.16504 1.61071 6.1622C2.68457 4.15936 4.14622 2.63379 5.99565 1.58549C7.84508 0.528675 9.93315 0.00026536 12.2599 0.00026536C14.5695 0.00026536 16.6491 0.528675 18.4985 1.58549C20.3564 2.63379 21.8224 4.15936 22.8962 6.1622C23.9786 8.16504 24.5198 10.594 24.5198 13.4491ZM18.9076 13.4491C18.9076 11.5997 18.6306 10.04 18.0766 8.77015C17.5312 7.50027 16.7599 6.5372 15.7627 5.88095C14.7655 5.2247 13.5979 4.89657 12.2599 4.89657C10.9218 4.89657 9.75417 5.2247 8.75701 5.88095C7.75985 6.5372 6.98429 7.50027 6.43031 8.77015C5.88485 10.04 5.61213 11.5997 5.61213 13.4491C5.61213 15.2986 5.88485 16.8582 6.43031 18.1281C6.98429 19.398 7.75985 20.3611 8.75701 21.0173C9.75417 21.6736 10.9218 22.0017 12.2599 22.0017C13.5979 22.0017 14.7655 21.6736 15.7627 21.0173C16.7599 20.3611 17.5312 19.398 18.0766 18.1281C18.6306 16.8582 18.9076 15.2986 18.9076 13.4491ZM40.3904 18.1792V6.90367H45.8364V26.54H40.6077V22.9733H40.4031C39.96 24.1238 39.2227 25.0486 38.1915 25.7474C37.1688 26.4463 35.9202 26.7957 34.4458 26.7957C33.1333 26.7957 31.9784 26.4974 30.9813 25.9008C29.9841 25.3042 29.2043 24.4562 28.6418 23.3568C28.0878 22.2574 27.8065 20.9406 27.798 19.4065V6.90367H33.244V18.4349C33.2526 19.594 33.5636 20.5102 34.1773 21.1835C34.7909 21.8568 35.6134 22.1934 36.6446 22.1934C37.3009 22.1934 37.9145 22.0443 38.4855 21.746C39.0565 21.4392 39.5168 20.9875 39.8662 20.3909C40.2242 19.7943 40.3989 19.0571 40.3904 18.1792ZM49.4726 26.54V6.90367H54.7524V10.3298H54.9569C55.3149 9.11106 55.9157 8.19061 56.7595 7.56845C57.6032 6.93777 58.5748 6.62242 59.6743 6.62242C59.947 6.62242 60.241 6.63947 60.5564 6.67356C60.8717 6.70765 61.1487 6.75453 61.3873 6.81419V11.6466C61.1316 11.5699 60.778 11.5017 60.3262 11.442C59.8745 11.3824 59.4612 11.3525 59.0862 11.3525C58.2851 11.3525 57.5691 11.5273 56.9385 11.8767C56.3163 12.2176 55.822 12.6949 55.4555 13.3085C55.0976 13.9221 54.9186 14.6295 54.9186 15.4307V26.54H49.4726ZM0.460138 70.54V44.3582H17.7954V48.9221H5.99565V55.1608H16.6448V59.7247H5.99565V70.54H0.460138ZM28.1272 70.9236C26.1414 70.9236 24.4241 70.5017 22.9752 69.6579C21.5349 68.8057 20.4227 67.621 19.6386 66.104C18.8545 64.5784 18.4624 62.8099 18.4624 60.7986C18.4624 58.7702 18.8545 56.9974 19.6386 55.4804C20.4227 53.9548 21.5349 52.7702 22.9752 51.9264C24.4241 51.0741 26.1414 50.648 28.1272 50.648C30.113 50.648 31.8261 51.0741 33.2664 51.9264C34.7153 52.7702 35.8318 53.9548 36.6158 55.4804C37.3999 56.9974 37.792 58.7702 37.792 60.7986C37.792 62.8099 37.3999 64.5784 36.6158 66.104C35.8318 67.621 34.7153 68.8057 33.2664 69.6579C31.8261 70.5017 30.113 70.9236 28.1272 70.9236ZM28.1528 66.7048C29.0562 66.7048 29.8105 66.4491 30.4156 65.9378C31.0207 65.4179 31.4766 64.7105 31.7835 63.8156C32.0988 62.9207 32.2565 61.9023 32.2565 60.7602C32.2565 59.6182 32.0988 58.5997 31.7835 57.7048C31.4766 56.8099 31.0207 56.1025 30.4156 55.5827C29.8105 55.0628 29.0562 54.8028 28.1528 54.8028C27.2408 54.8028 26.4738 55.0628 25.8516 55.5827C25.238 56.1025 24.7735 56.8099 24.4582 57.7048C24.1514 58.5997 23.998 59.6182 23.998 60.7602C23.998 61.9023 24.1514 62.9207 24.4582 63.8156C24.7735 64.7105 25.238 65.4179 25.8516 65.9378C26.4738 66.4491 27.2408 66.7048 28.1528 66.7048ZM49.4853 70.9236C47.474 70.9236 45.7439 70.4974 44.295 69.6452C42.8547 68.7844 41.7467 67.5912 40.9711 66.0656C40.2041 64.54 39.8206 62.7844 39.8206 60.7986C39.8206 58.7872 40.2084 57.023 40.9839 55.5059C41.768 53.9804 42.8802 52.7915 44.3206 51.9392C45.7609 51.0784 47.474 50.648 49.4598 50.648C51.1728 50.648 52.6728 50.9591 53.9598 51.5812C55.2467 52.2034 56.2652 53.077 57.0152 54.202C57.7652 55.327 58.1785 56.648 58.2552 58.165H53.116C52.9711 57.1849 52.5876 56.3966 51.9655 55.8C51.3518 55.1949 50.5464 54.8923 49.5493 54.8923C48.7055 54.8923 47.9683 55.1224 47.3376 55.5827C46.7155 56.0344 46.2297 56.6949 45.8802 57.5642C45.5308 58.4335 45.3561 59.4861 45.3561 60.7219C45.3561 61.9747 45.5265 63.04 45.8674 63.9179C46.2169 64.7957 46.7069 65.4648 47.3376 65.925C47.9683 66.3852 48.7055 66.6153 49.5493 66.6153C50.1714 66.6153 50.7297 66.4875 51.224 66.2318C51.7268 65.9761 52.1402 65.6054 52.464 65.1196C52.7964 64.6253 53.0137 64.0329 53.116 63.3426H58.2552C58.17 64.8426 57.7609 66.1636 57.028 67.3057C56.3035 68.4392 55.3021 69.3256 54.0237 69.9648C52.7453 70.604 51.2325 70.9236 49.4853 70.9236ZM73.6144 62.1792V50.9037H79.0604V70.54H73.8317V66.9733H73.6272C73.184 68.1238 72.4468 69.0486 71.4156 69.7474C70.3928 70.4463 69.1442 70.7957 67.6698 70.7957C66.3573 70.7957 65.2025 70.4974 64.2053 69.9008C63.2082 69.3042 62.4283 68.4562 61.8658 67.3568C61.3119 66.2574 61.0306 64.9406 61.0221 63.4065V50.9037H66.4681V62.4349C66.4766 63.594 66.7877 64.5102 67.4013 65.1835C68.015 65.8568 68.8374 66.1934 69.8687 66.1934C70.5249 66.1934 71.1386 66.0443 71.7096 65.746C72.2806 65.4392 72.7408 64.9875 73.0903 64.3909C73.4482 63.7943 73.6229 63.0571 73.6144 62.1792ZM99.0347 56.5031L94.0489 56.8099C93.9637 56.3838 93.7804 56.0003 93.4992 55.6594C93.2179 55.3099 92.8472 55.0329 92.387 54.8284C91.9353 54.6153 91.3941 54.5088 90.7634 54.5088C89.9196 54.5088 89.208 54.6878 88.6284 55.0457C88.0489 55.3952 87.7591 55.8639 87.7591 56.452C87.7591 56.9207 87.9466 57.317 88.3216 57.6409C88.6966 57.9648 89.3401 58.2247 90.252 58.4207L93.806 59.1366C95.7151 59.5287 97.1384 60.1594 98.0759 61.0287C99.0134 61.898 99.4821 63.04 99.4821 64.4548C99.4821 65.7417 99.1029 66.871 98.3443 67.8426C97.5943 68.8142 96.5631 69.5727 95.2506 70.1182C93.9466 70.6551 92.4424 70.9236 90.7378 70.9236C88.1384 70.9236 86.0674 70.3824 84.5247 69.3C82.9907 68.2091 82.0915 66.7261 81.8273 64.8511L87.1838 64.5699C87.3458 65.3625 87.7378 65.9676 88.36 66.3852C88.9821 66.7943 89.779 66.9988 90.7506 66.9988C91.7051 66.9988 92.4722 66.8156 93.0517 66.4491C93.6398 66.0741 93.9381 65.5926 93.9466 65.0045C93.9381 64.5102 93.7293 64.1054 93.3202 63.79C92.9111 63.4662 92.2804 63.219 91.4282 63.0486L88.0276 62.371C86.11 61.9875 84.6824 61.3227 83.7449 60.3767C82.8159 59.4307 82.3514 58.2247 82.3514 56.7588C82.3514 55.4974 82.6924 54.4108 83.3742 53.4988C84.0645 52.5869 85.0318 51.8838 86.2762 51.3895C87.529 50.8952 88.9949 50.648 90.6739 50.648C93.154 50.648 95.1057 51.1721 96.529 52.2204C97.9608 53.2687 98.7961 54.6963 99.0347 56.5031Z" fill="white" fill-opacity="0.8"/>
<path d="M76.7328 0.35822V26.54H71.1973V0.35822H76.7328ZM85.9109 15.1878V26.54H80.4649V6.90367H85.6552V10.3682H85.8854C86.32 9.22612 87.0487 8.32271 88.0714 7.65794C89.0942 6.98464 90.3342 6.64799 91.7916 6.64799C93.1552 6.64799 94.3442 6.94629 95.3584 7.54288C96.3726 8.13947 97.1609 8.99174 97.7234 10.0997C98.2859 11.1991 98.5672 12.5116 98.5672 14.0372V26.54H93.1211V15.0088C93.1297 13.8071 92.8229 12.8696 92.2007 12.1963C91.5785 11.5145 90.722 11.1736 89.6311 11.1736C88.8981 11.1736 88.2504 11.3312 87.6879 11.6466C87.1339 11.9619 86.6993 12.4221 86.3839 13.0273C86.0771 13.6238 85.9194 14.344 85.9109 15.1878ZM119.743 6.90367L112.878 26.54H106.742L99.8766 6.90367H105.629L109.708 20.9534H109.912L113.977 6.90367H119.743ZM130.126 26.9236C128.106 26.9236 126.368 26.5145 124.91 25.6963C123.461 24.8696 122.345 23.702 121.561 22.1934C120.777 20.6764 120.385 18.8824 120.385 16.8113C120.385 14.7915 120.777 13.0187 121.561 11.4932C122.345 9.9676 123.449 8.77867 124.872 7.9264C126.304 7.07413 127.983 6.64799 129.909 6.64799C131.204 6.64799 132.41 6.8568 133.527 7.27441C134.652 7.6835 135.632 8.3014 136.467 9.12811C137.311 9.95481 137.967 10.9946 138.436 12.2474C138.905 13.4917 139.139 14.9491 139.139 16.6196V18.1153H122.558V14.7403H134.012C134.012 13.9562 133.842 13.2616 133.501 12.6565C133.16 12.0514 132.687 11.5784 132.082 11.2375C131.485 10.8881 130.791 10.7133 129.998 10.7133C129.172 10.7133 128.439 10.9051 127.799 11.2886C127.169 11.6636 126.674 12.1707 126.316 12.8099C125.958 13.4406 125.775 14.1437 125.767 14.9193V18.1281C125.767 19.0997 125.946 19.9392 126.304 20.6466C126.67 21.354 127.186 21.8994 127.851 22.2829C128.515 22.6665 129.304 22.8582 130.216 22.8582C130.821 22.8582 131.375 22.773 131.878 22.6025C132.38 22.4321 132.811 22.1764 133.169 21.8355C133.527 21.4946 133.799 21.077 133.987 20.5827L139.024 20.915C138.768 22.1253 138.244 23.1821 137.451 24.0855C136.667 24.9804 135.653 25.6792 134.409 26.1821C133.173 26.6764 131.745 26.9236 130.126 26.9236ZM158.311 12.5031L153.325 12.8099C153.24 12.3838 153.057 12.0003 152.775 11.6594C152.494 11.3099 152.123 11.0329 151.663 10.8284C151.212 10.6153 150.67 10.5088 150.04 10.5088C149.196 10.5088 148.484 10.6878 147.905 11.0457C147.325 11.3952 147.035 11.8639 147.035 12.452C147.035 12.9207 147.223 13.317 147.598 13.6409C147.973 13.9648 148.616 14.2247 149.528 14.4207L153.082 15.1366C154.991 15.5287 156.415 16.1594 157.352 17.0287C158.29 17.898 158.758 19.04 158.758 20.4548C158.758 21.7417 158.379 22.871 157.621 23.8426C156.871 24.8142 155.839 25.5727 154.527 26.1182C153.223 26.6551 151.719 26.9236 150.014 26.9236C147.415 26.9236 145.344 26.3824 143.801 25.3C142.267 24.2091 141.368 22.7261 141.104 20.8511L146.46 20.5699C146.622 21.3625 147.014 21.9676 147.636 22.3852C148.258 22.7943 149.055 22.9988 150.027 22.9988C150.981 22.9988 151.748 22.8156 152.328 22.4491C152.916 22.0741 153.214 21.5926 153.223 21.0045C153.214 20.5102 153.006 20.1054 152.596 19.79C152.187 19.4662 151.557 19.219 150.704 19.0486L147.304 18.371C145.386 17.9875 143.959 17.3227 143.021 16.3767C142.092 15.4307 141.628 14.2247 141.628 12.7588C141.628 11.4974 141.969 10.4108 142.65 9.49885C143.341 8.58691 144.308 7.88379 145.552 7.38947C146.805 6.89515 148.271 6.64799 149.95 6.64799C152.43 6.64799 154.382 7.17214 155.805 8.22044C157.237 9.26873 158.072 10.6963 158.311 12.5031ZM171.912 6.90367V10.9946H160.087V6.90367H171.912ZM162.772 2.19913H168.218V20.5059C168.218 21.0088 168.294 21.4008 168.448 21.6821C168.601 21.9548 168.814 22.1466 169.087 22.2574C169.368 22.3682 169.692 22.4236 170.059 22.4236C170.314 22.4236 170.57 22.4023 170.826 22.3596C171.081 22.3085 171.277 22.2702 171.414 22.2446L172.27 26.2971C171.998 26.3824 171.614 26.4804 171.12 26.5912C170.625 26.7105 170.025 26.7829 169.317 26.8085C168.005 26.8596 166.854 26.6849 165.865 26.2844C164.885 25.8838 164.123 25.2616 163.577 24.4179C163.032 23.5741 162.763 22.5088 162.772 21.2219V2.19913ZM174.74 26.54V6.90367H179.93V10.3682H180.16C180.569 9.2176 181.251 8.30992 182.206 7.64515C183.16 6.98038 184.302 6.64799 185.632 6.64799C186.979 6.64799 188.125 6.98464 189.071 7.65794C190.017 8.32271 190.648 9.22612 190.963 10.3682H191.167C191.568 9.24316 192.292 8.34402 193.341 7.67072C194.398 6.9889 195.646 6.64799 197.086 6.64799C198.919 6.64799 200.406 7.2318 201.548 8.39941C202.699 9.5585 203.274 11.2034 203.274 13.3341V26.54H197.841V14.4079C197.841 13.317 197.551 12.4988 196.971 11.9534C196.392 11.4079 195.667 11.1352 194.798 11.1352C193.81 11.1352 193.038 11.4506 192.484 12.0812C191.93 12.7034 191.653 13.5258 191.653 14.5486V26.54H186.373V14.2929C186.373 13.3298 186.096 12.5628 185.542 11.9917C184.997 11.4207 184.277 11.1352 183.382 11.1352C182.777 11.1352 182.231 11.2886 181.746 11.5954C181.268 11.8937 180.889 12.3156 180.608 12.8611C180.327 13.398 180.186 14.0287 180.186 14.7531V26.54H174.74ZM215.805 26.9236C213.785 26.9236 212.046 26.5145 210.589 25.6963C209.14 24.8696 208.023 23.702 207.239 22.1934C206.455 20.6764 206.063 18.8824 206.063 16.8113C206.063 14.7915 206.455 13.0187 207.239 11.4932C208.023 9.9676 209.127 8.77867 210.55 7.9264C211.982 7.07413 213.661 6.64799 215.587 6.64799C216.883 6.64799 218.089 6.8568 219.205 7.27441C220.33 7.6835 221.31 8.3014 222.146 9.12811C222.989 9.95481 223.646 10.9946 224.114 12.2474C224.583 13.4917 224.817 14.9491 224.817 16.6196V18.1153H208.237V14.7403H219.691C219.691 13.9562 219.521 13.2616 219.18 12.6565C218.839 12.0514 218.366 11.5784 217.761 11.2375C217.164 10.8881 216.469 10.7133 215.677 10.7133C214.85 10.7133 214.117 10.9051 213.478 11.2886C212.847 11.6636 212.353 12.1707 211.995 12.8099C211.637 13.4406 211.454 14.1437 211.445 14.9193V18.1281C211.445 19.0997 211.624 19.9392 211.982 20.6466C212.349 21.354 212.864 21.8994 213.529 22.2829C214.194 22.6665 214.982 22.8582 215.894 22.8582C216.499 22.8582 217.053 22.773 217.556 22.6025C218.059 22.4321 218.489 22.1764 218.847 21.8355C219.205 21.4946 219.478 21.077 219.665 20.5827L224.702 20.915C224.447 22.1253 223.923 23.1821 223.13 24.0855C222.346 24.9804 221.332 25.6792 220.087 26.1821C218.852 26.6764 217.424 26.9236 215.805 26.9236ZM233.097 15.1878V26.54H227.651V6.90367H232.842V10.3682H233.072C233.507 9.22612 234.235 8.32271 235.258 7.65794C236.281 6.98464 237.521 6.64799 238.978 6.64799C240.342 6.64799 241.531 6.94629 242.545 7.54288C243.559 8.13947 244.347 8.99174 244.91 10.0997C245.472 11.1991 245.754 12.5116 245.754 14.0372V26.54H240.308V15.0088C240.316 13.8071 240.009 12.8696 239.387 12.1963C238.765 11.5145 237.909 11.1736 236.818 11.1736C236.085 11.1736 235.437 11.3312 234.874 11.6466C234.32 11.9619 233.886 12.4221 233.57 13.0273C233.264 13.6238 233.106 14.344 233.097 15.1878ZM259.771 6.90367V10.9946H247.945V6.90367H259.771ZM250.63 2.19913H256.076V20.5059C256.076 21.0088 256.153 21.4008 256.306 21.6821C256.46 21.9548 256.673 22.1466 256.945 22.2574C257.227 22.3682 257.55 22.4236 257.917 22.4236C258.173 22.4236 258.428 22.4023 258.684 22.3596C258.94 22.3085 259.136 22.2702 259.272 22.2446L260.129 26.2971C259.856 26.3824 259.472 26.4804 258.978 26.5912C258.484 26.7105 257.883 26.7829 257.175 26.8085C255.863 26.8596 254.712 26.6849 253.724 26.2844C252.744 25.8838 251.981 25.2616 251.435 24.4179C250.89 23.5741 250.621 22.5088 250.63 21.2219V2.19913Z" fill="white"/>
</svg>
