<svg width="616" height="45" viewBox="0 0 616 45" fill="none" xmlns="http://www.w3.org/2000/svg">
<path d="M40.8667 22.4152C40.8667 27.1737 39.9647 31.222 38.1607 34.5601C36.3709 37.8982 33.9277 40.4479 30.8311 42.2093C27.7488 43.9564 24.2828 44.83 20.4334 44.83C16.5556 44.83 13.0755 43.9493 9.99308 42.1879C6.91069 40.4266 4.47461 37.8769 2.68484 34.5388C0.895064 31.2007 0.000177577 27.1595 0.000177577 22.4152C0.000177577 17.6567 0.895064 13.6084 2.68484 10.2703C4.47461 6.93226 6.91069 4.38965 9.99308 2.64249C13.0755 0.881125 16.5556 0.000442266 20.4334 0.000442266C24.2828 0.000442266 27.7488 0.881125 30.8311 2.64249C33.9277 4.38965 36.3709 6.93226 38.1607 10.2703C39.9647 13.6084 40.8667 17.6567 40.8667 22.4152ZM31.513 22.4152C31.513 19.3328 31.0513 16.7334 30.128 14.6169C29.2189 12.5004 27.9334 10.8953 26.2715 9.80158C24.6096 8.70783 22.6635 8.16096 20.4334 8.16096C18.2033 8.16096 16.2573 8.70783 14.5953 9.80158C12.9334 10.8953 11.6408 12.5004 10.7175 14.6169C9.80842 16.7334 9.35387 19.3328 9.35387 22.4152C9.35387 25.4976 9.80842 28.097 10.7175 30.2135C11.6408 32.33 12.9334 33.9351 14.5953 35.0289C16.2573 36.1226 18.2033 36.6695 20.4334 36.6695C22.6635 36.6695 24.6096 36.1226 26.2715 35.0289C27.9334 33.9351 29.2189 32.33 30.128 30.2135C31.0513 28.097 31.513 25.4976 31.513 22.4152ZM67.3176 30.2987V11.5061H76.3943V44.2334H67.6798V38.2888H67.3389C66.6002 40.2064 65.3716 41.7476 63.6528 42.9124C61.9483 44.0771 59.8673 44.6595 57.4099 44.6595C55.2224 44.6595 53.2977 44.1624 51.6358 43.1681C49.9738 42.1737 48.6741 40.7604 47.7366 38.928C46.8133 37.0956 46.3446 34.901 46.3304 32.3442V11.5061H55.4071V30.7249C55.4213 32.6567 55.9397 34.1837 56.9625 35.3058C57.9852 36.428 59.3559 36.9891 61.0747 36.9891C62.1684 36.9891 63.1912 36.7405 64.1429 36.2433C65.0946 35.732 65.8616 34.9791 66.444 33.9848C67.0406 32.9905 67.3318 31.7618 67.3176 30.2987ZM82.4546 44.2334V11.5061H91.2543V17.2164H91.5952C92.1918 15.1851 93.1932 13.651 94.5995 12.6141C96.0057 11.5629 97.625 11.0374 99.4574 11.0374C99.912 11.0374 100.402 11.0658 100.928 11.1226C101.453 11.1794 101.915 11.2575 102.313 11.357V19.411C101.886 19.2831 101.297 19.1695 100.544 19.07C99.7912 18.9706 99.1023 18.9209 98.4773 18.9209C97.1421 18.9209 95.9489 19.2121 94.8978 19.7945C93.8608 20.3627 93.037 21.1581 92.4262 22.1808C91.8296 23.2036 91.5313 24.3825 91.5313 25.7178V44.2334H82.4546ZM450.521 44.2334V0.597034H479.413V8.20357H459.747V18.6013H477.496V26.2078H459.747V44.2334H450.521ZM496.633 44.8726C493.323 44.8726 490.461 44.1695 488.046 42.7632C485.646 41.3428 483.792 39.3683 482.485 36.8399C481.178 34.2973 480.525 31.3499 480.525 27.9976C480.525 24.6169 481.178 21.6624 482.485 19.134C483.792 16.5914 485.646 14.6169 488.046 13.2107C490.461 11.7902 493.323 11.08 496.633 11.08C499.943 11.08 502.798 11.7902 505.198 13.2107C507.613 14.6169 509.474 16.5914 510.781 19.134C512.087 21.6624 512.741 24.6169 512.741 27.9976C512.741 31.3499 512.087 34.2973 510.781 36.8399C509.474 39.3683 507.613 41.3428 505.198 42.7632C502.798 44.1695 499.943 44.8726 496.633 44.8726ZM496.676 37.8414C498.181 37.8414 499.438 37.4152 500.447 36.5629C501.455 35.6965 502.215 34.5175 502.727 33.026C503.252 31.5345 503.515 29.8371 503.515 27.9337C503.515 26.0303 503.252 24.3328 502.727 22.8414C502.215 21.3499 501.455 20.1709 500.447 19.3044C499.438 18.4379 498.181 18.0047 496.676 18.0047C495.156 18.0047 493.877 18.4379 492.84 19.3044C491.818 20.1709 491.043 21.3499 490.518 22.8414C490.006 24.3328 489.751 26.0303 489.751 27.9337C489.751 29.8371 490.006 31.5345 490.518 33.026C491.043 34.5175 491.818 35.6965 492.84 36.5629C493.877 37.4152 495.156 37.8414 496.676 37.8414ZM532.23 44.8726C528.877 44.8726 525.994 44.1624 523.579 42.7419C521.179 41.3073 519.332 39.3186 518.039 36.776C516.761 34.2334 516.122 31.3073 516.122 27.9976C516.122 24.6453 516.768 21.705 518.061 19.1766C519.368 16.634 521.221 14.6524 523.622 13.232C526.022 11.7973 528.877 11.08 532.187 11.08C535.042 11.08 537.542 11.5985 539.687 12.6354C541.832 13.6723 543.529 15.1283 544.779 17.0033C546.029 18.8783 546.718 21.08 546.846 23.6084H538.281C538.039 21.9749 537.4 20.661 536.363 19.6666C535.341 18.6581 533.998 18.1539 532.336 18.1539C530.93 18.1539 529.701 18.5374 528.65 19.3044C527.613 20.0573 526.804 21.1581 526.221 22.607C525.639 24.0558 525.348 25.8101 525.348 27.8698C525.348 29.9578 525.632 31.7334 526.2 33.1965C526.782 34.6595 527.599 35.7746 528.65 36.5416C529.701 37.3087 530.93 37.6922 532.336 37.6922C533.373 37.6922 534.304 37.4791 535.127 37.053C535.966 36.6269 536.654 36.009 537.194 35.1993C537.748 34.3754 538.11 33.3882 538.281 32.2377H546.846C546.704 34.7377 546.022 36.9394 544.801 38.8428C543.593 40.732 541.924 42.2093 539.794 43.2746C537.663 44.3399 535.142 44.8726 532.23 44.8726ZM572.445 30.2987V11.5061H581.522V44.2334H572.807V38.2888H572.466C571.728 40.2064 570.499 41.7476 568.78 42.9124C567.076 44.0771 564.995 44.6595 562.537 44.6595C560.35 44.6595 558.425 44.1624 556.763 43.1681C555.101 42.1737 553.801 40.7604 552.864 38.928C551.941 37.0956 551.472 34.901 551.458 32.3442V11.5061H560.534V30.7249C560.549 32.6567 561.067 34.1837 562.09 35.3058C563.113 36.428 564.483 36.9891 566.202 36.9891C567.296 36.9891 568.319 36.7405 569.27 36.2433C570.222 35.732 570.989 34.9791 571.571 33.9848C572.168 32.9905 572.459 31.7618 572.445 30.2987ZM614.812 20.8385L606.502 21.3499C606.36 20.6396 606.055 20.0004 605.586 19.4323C605.117 18.8499 604.5 18.3882 603.733 18.0473C602.98 17.6922 602.078 17.5146 601.027 17.5146C599.62 17.5146 598.434 17.8129 597.468 18.4095C596.502 18.9919 596.019 19.7732 596.019 20.7533C596.019 21.5345 596.332 22.195 596.957 22.7348C597.582 23.2746 598.654 23.7078 600.174 24.0345L606.098 25.2277C609.279 25.8811 611.652 26.9323 613.214 28.3811C614.777 29.83 615.558 31.7334 615.558 34.0914C615.558 36.2362 614.926 38.1183 613.661 39.7377C612.411 41.357 610.693 42.6212 608.505 43.5303C606.332 44.4252 603.825 44.8726 600.984 44.8726C596.652 44.8726 593.2 43.9706 590.629 42.1666C588.072 40.3485 586.573 37.8769 586.133 34.7519L595.061 34.2831C595.331 35.6041 595.984 36.6127 597.021 37.3087C598.058 37.9905 599.386 38.3314 601.005 38.3314C602.596 38.3314 603.875 38.026 604.84 37.4152C605.821 36.7902 606.318 35.9877 606.332 35.0075C606.318 34.1837 605.97 33.509 605.288 32.9834C604.606 32.4436 603.555 32.0317 602.134 31.7476L596.467 30.6183C593.271 29.9791 590.892 28.8712 589.329 27.2945C587.781 25.7178 587.007 23.7078 587.007 21.2646C587.007 19.1624 587.575 17.3513 588.711 15.8314C589.862 14.3115 591.474 13.1396 593.548 12.3158C595.636 11.4919 598.079 11.08 600.877 11.08C605.011 11.08 608.264 11.9536 610.636 13.7007C613.022 15.4479 614.414 17.8271 614.812 20.8385Z" fill="white" fill-opacity="0.8"/>
<path d="M127.888 0.597034V44.2334H118.663V0.597034H127.888ZM143.185 25.3129V44.2334H134.108V11.5061H142.759V17.2803H143.143C143.867 15.3769 145.081 13.8712 146.786 12.7632C148.491 11.6411 150.557 11.08 152.986 11.08C155.259 11.08 157.241 11.5771 158.931 12.5715C160.621 13.5658 161.935 14.9862 162.873 16.8328C163.81 18.6652 164.279 20.8527 164.279 23.3953V44.2334H155.202V25.0146C155.216 23.0118 154.705 21.4493 153.668 20.3271C152.631 19.1908 151.204 18.6226 149.385 18.6226C148.164 18.6226 147.084 18.8854 146.147 19.411C145.224 19.9365 144.499 20.7036 143.974 21.7121C143.462 22.7064 143.199 23.9067 143.185 25.3129ZM199.572 11.5061L188.13 44.2334H177.903L166.461 11.5061H176.049L182.846 34.9223H183.187L189.963 11.5061H199.572ZM216.877 44.8726C213.511 44.8726 210.613 44.1908 208.184 42.8271C205.769 41.4493 203.908 39.5033 202.602 36.9891C201.295 34.4607 200.641 31.4706 200.641 28.0189C200.641 24.6524 201.295 21.6979 202.602 19.1553C203.908 16.6127 205.748 14.6311 208.12 13.2107C210.506 11.7902 213.305 11.08 216.515 11.08C218.674 11.08 220.684 11.428 222.545 12.124C224.42 12.8058 226.053 13.8357 227.445 15.2135C228.852 16.5914 229.945 18.3243 230.727 20.4124C231.508 22.4862 231.898 24.9152 231.898 27.6993V30.1922H204.264V24.5672H223.354C223.354 23.2604 223.07 22.1027 222.502 21.0942C221.934 20.0857 221.146 19.2973 220.137 18.7291C219.143 18.1468 217.985 17.8556 216.664 17.8556C215.286 17.8556 214.065 18.1752 212.999 18.8144C211.948 19.4394 211.124 20.2845 210.528 21.3499C209.931 22.401 209.626 23.5729 209.612 24.8655V30.2135C209.612 31.8328 209.91 33.232 210.506 34.411C211.117 35.5899 211.977 36.499 213.085 37.1382C214.193 37.7774 215.506 38.097 217.026 38.097C218.035 38.097 218.958 37.955 219.796 37.6709C220.634 37.3868 221.352 36.9607 221.948 36.3925C222.545 35.8243 222.999 35.1283 223.312 34.3044L231.707 34.8584C231.281 36.8754 230.407 38.6368 229.086 40.1425C227.779 41.634 226.089 42.7987 224.015 43.6368C221.955 44.4607 219.576 44.8726 216.877 44.8726ZM263.852 20.8385L255.542 21.3499C255.4 20.6396 255.095 20.0004 254.626 19.4323C254.157 18.8499 253.539 18.3882 252.772 18.0473C252.019 17.6922 251.118 17.5146 250.066 17.5146C248.66 17.5146 247.474 17.8129 246.508 18.4095C245.542 18.9919 245.059 19.7732 245.059 20.7533C245.059 21.5345 245.372 22.195 245.997 22.7348C246.622 23.2746 247.694 23.7078 249.214 24.0345L255.137 25.2277C258.319 25.8811 260.691 26.9323 262.254 28.3811C263.816 29.83 264.598 31.7334 264.598 34.0914C264.598 36.2362 263.966 38.1183 262.701 39.7377C261.451 41.357 259.733 42.6212 257.545 43.5303C255.372 44.4252 252.865 44.8726 250.024 44.8726C245.691 44.8726 242.24 43.9706 239.669 42.1666C237.112 40.3485 235.613 37.8769 235.173 34.7519L244.1 34.2831C244.37 35.6041 245.024 36.6127 246.061 37.3087C247.098 37.9905 248.426 38.3314 250.045 38.3314C251.636 38.3314 252.914 38.026 253.88 37.4152C254.86 36.7902 255.358 35.9877 255.372 35.0075C255.358 34.1837 255.01 33.509 254.328 32.9834C253.646 32.4436 252.595 32.0317 251.174 31.7476L245.507 30.6183C242.311 29.9791 239.931 28.8712 238.369 27.2945C236.821 25.7178 236.046 23.7078 236.046 21.2646C236.046 19.1624 236.615 17.3513 237.751 15.8314C238.902 14.3115 240.514 13.1396 242.588 12.3158C244.676 11.4919 247.119 11.08 249.917 11.08C254.051 11.08 257.304 11.9536 259.676 13.7007C262.062 15.4479 263.454 17.8271 263.852 20.8385ZM286.521 11.5061V18.3243H266.812V11.5061H286.521ZM271.286 3.66522H280.363V34.1766C280.363 35.0146 280.491 35.6681 280.747 36.1368C281.002 36.5914 281.358 36.911 281.812 37.0956C282.281 37.2803 282.821 37.3726 283.431 37.3726C283.858 37.3726 284.284 37.3371 284.71 37.2661C285.136 37.1808 285.463 37.1169 285.69 37.0743L287.117 43.8286C286.663 43.9706 286.024 44.134 285.2 44.3186C284.376 44.5175 283.375 44.6382 282.196 44.6808C280.008 44.7661 278.09 44.4749 276.443 43.8073C274.809 43.1396 273.538 42.1027 272.629 40.6965C271.72 39.2902 271.272 37.5146 271.286 35.3698V3.66522ZM291.233 44.2334V11.5061H299.884V17.2803H300.268C300.949 15.3627 302.086 13.8499 303.677 12.7419C305.268 11.634 307.171 11.08 309.387 11.08C311.631 11.08 313.542 11.6411 315.118 12.7632C316.695 13.8712 317.746 15.3769 318.272 17.2803H318.613C319.28 15.4053 320.488 13.9067 322.235 12.7845C323.996 11.6482 326.077 11.08 328.478 11.08C331.532 11.08 334.01 12.053 335.914 13.999C337.832 15.9308 338.79 18.6723 338.79 22.2235V44.2334H329.735V24.0132C329.735 22.195 329.252 20.8314 328.286 19.9223C327.32 19.0132 326.113 18.5587 324.664 18.5587C323.016 18.5587 321.731 19.0843 320.807 20.1354C319.884 21.1723 319.422 22.5431 319.422 24.2476V44.2334H310.623V23.8215C310.623 22.2164 310.161 20.9379 309.238 19.9862C308.329 19.0345 307.128 18.5587 305.637 18.5587C304.628 18.5587 303.719 18.8144 302.91 19.3257C302.114 19.8229 301.482 20.526 301.013 21.4351C300.545 22.33 300.31 23.3811 300.31 24.5885V44.2334H291.233ZM359.675 44.8726C356.308 44.8726 353.411 44.1908 350.982 42.8271C348.567 41.4493 346.706 39.5033 345.399 36.9891C344.092 34.4607 343.439 31.4706 343.439 28.0189C343.439 24.6524 344.092 21.6979 345.399 19.1553C346.706 16.6127 348.546 14.6311 350.918 13.2107C353.304 11.7902 356.102 11.08 359.313 11.08C361.472 11.08 363.482 11.428 365.342 12.124C367.217 12.8058 368.851 13.8357 370.243 15.2135C371.649 16.5914 372.743 18.3243 373.524 20.4124C374.305 22.4862 374.696 24.9152 374.696 27.6993V30.1922H347.061V24.5672H366.152C366.152 23.2604 365.868 22.1027 365.3 21.0942C364.732 20.0857 363.943 19.2973 362.935 18.7291C361.94 18.1468 360.783 17.8556 359.462 17.8556C358.084 17.8556 356.862 18.1752 355.797 18.8144C354.746 19.4394 353.922 20.2845 353.325 21.3499C352.729 22.401 352.423 23.5729 352.409 24.8655V30.2135C352.409 31.8328 352.707 33.232 353.304 34.411C353.915 35.5899 354.774 36.499 355.882 37.1382C356.99 37.7774 358.304 38.097 359.824 38.097C360.832 38.097 361.756 37.955 362.594 37.6709C363.432 37.3868 364.149 36.9607 364.746 36.3925C365.342 35.8243 365.797 35.1283 366.109 34.3044L374.504 34.8584C374.078 36.8754 373.205 38.6368 371.884 40.1425C370.577 41.634 368.886 42.7987 366.813 43.6368C364.753 44.4607 362.374 44.8726 359.675 44.8726ZM388.496 25.3129V44.2334H379.419V11.5061H388.07V17.2803H388.454C389.178 15.3769 390.392 13.8712 392.097 12.7632C393.802 11.6411 395.868 11.08 398.297 11.08C400.57 11.08 402.552 11.5771 404.242 12.5715C405.932 13.5658 407.246 14.9862 408.184 16.8328C409.121 18.6652 409.59 20.8527 409.59 23.3953V44.2334H400.513V25.0146C400.527 23.0118 400.016 21.4493 398.979 20.3271C397.942 19.1908 396.515 18.6226 394.696 18.6226C393.475 18.6226 392.395 18.8854 391.458 19.411C390.534 19.9365 389.81 20.7036 389.284 21.7121C388.773 22.7064 388.51 23.9067 388.496 25.3129ZM432.951 11.5061V18.3243H413.243V11.5061H432.951ZM417.717 3.66522H426.794V34.1766C426.794 35.0146 426.921 35.6681 427.177 36.1368C427.433 36.5914 427.788 36.911 428.243 37.0956C428.711 37.2803 429.251 37.3726 429.862 37.3726C430.288 37.3726 430.714 37.3371 431.14 37.2661C431.566 37.1808 431.893 37.1169 432.12 37.0743L433.548 43.8286C433.093 43.9706 432.454 44.134 431.63 44.3186C430.806 44.5175 429.805 44.6382 428.626 44.6808C426.439 44.7661 424.521 44.4749 422.873 43.8073C421.24 43.1396 419.968 42.1027 419.059 40.6965C418.15 39.2902 417.703 37.5146 417.717 35.3698V3.66522Z" fill="white"/>
</svg>
