<svg width="18" height="67" viewBox="0 0 18 67" fill="none" xmlns="http://www.w3.org/2000/svg">
<path d="M17.4546 66.6475L4.37938e-05 66.6475L4.3305e-05 55.4657L2.65061 55.4657L2.65061 63.4856L7.38925 63.4856L7.38925 56.2328L10.0398 56.2328L10.0398 63.4856L17.4546 63.4856L17.4546 66.6475ZM17.7103 47.9721C17.7103 49.2505 17.429 50.3585 16.8665 51.296C16.304 52.2335 15.5171 52.9608 14.5057 53.4778C13.4944 53.9892 12.3125 54.2448 10.9603 54.2449C9.608 54.2449 8.42334 53.9892 7.40629 53.4778C6.38925 52.9608 5.59948 52.2335 5.03698 51.296C4.47448 50.3585 4.19323 49.2505 4.19323 47.9721C4.19323 46.6937 4.47448 45.5858 5.03698 44.6483C5.59947 43.7108 6.38925 42.9863 7.40629 42.475C8.42334 41.9579 9.608 41.6994 10.9603 41.6994C12.3125 41.6994 13.4944 41.9579 14.5057 42.475C15.5171 42.9863 16.304 43.7108 16.8665 44.6483C17.429 45.5858 17.7103 46.6937 17.7103 47.9721ZM15.2387 47.9551C15.2387 47.2619 15.0483 46.6823 14.6677 46.2164C14.2813 45.7505 13.7642 45.4039 13.1165 45.1767C12.4688 44.9437 11.7472 44.8272 10.9517 44.8272C10.1506 44.8272 9.42618 44.9437 8.77845 45.1767C8.12504 45.4039 7.60516 45.7505 7.21879 46.2164C6.83243 46.6824 6.63925 47.2619 6.63925 47.9551C6.63925 48.6653 6.83243 49.2562 7.21879 49.7278C7.60516 50.1937 8.12504 50.5431 8.77845 50.7761C9.42618 51.0034 10.1506 51.117 10.9517 51.117C11.7472 51.117 12.4688 51.0034 13.1165 50.7761C13.7642 50.5431 14.2813 50.1937 14.6677 49.7278C15.0483 49.2562 15.2387 48.6653 15.2387 47.9551ZM17.7103 33.3706C17.7103 34.6774 17.4233 35.7995 16.8495 36.737C16.2756 37.6689 15.483 38.3876 14.4716 38.8933C13.4546 39.3933 12.2841 39.6433 10.9603 39.6433C9.63072 39.6433 8.45743 39.3876 7.44038 38.8762C6.41766 38.3649 5.6222 37.6433 5.05402 36.7115C4.48016 35.774 4.19322 34.666 4.19322 33.3876C4.19322 32.3251 4.38925 31.3848 4.78129 30.5666C5.16766 29.7427 5.71595 29.0865 6.42618 28.5978C7.13072 28.1092 7.95459 27.8308 8.89777 27.7626L8.89777 30.7115C8.26709 30.8308 7.74152 31.1149 7.32107 31.5637C6.89493 32.0069 6.68186 32.6007 6.68186 33.345C6.68186 33.9757 6.85232 34.5297 7.19322 35.0069C7.52845 35.4842 8.01141 35.8564 8.64209 36.1234C9.27277 36.3848 10.0285 36.5154 10.9091 36.5154C11.8012 36.5154 12.5682 36.3848 13.2103 36.1234C13.8466 35.862 14.3381 35.4956 14.6847 35.024C15.0256 34.5467 15.1961 33.987 15.1961 33.345C15.1961 32.8904 15.1108 32.4842 14.9404 32.1262C14.7642 31.7626 14.5114 31.4586 14.1819 31.2143C13.8523 30.97 13.4517 30.8024 12.9802 30.7115L12.9802 27.7626C13.9063 27.8365 14.7273 28.1092 15.4432 28.5808C16.1535 29.0524 16.7103 29.6944 17.1137 30.5069C17.5114 31.3194 17.7103 32.274 17.7103 33.3706ZM11.9489 16.8855L4.36368 16.8855L4.36368 13.8002L17.4546 13.8002L17.4546 16.7917L15.1279 16.7917L15.1279 16.9281C15.8608 17.2235 16.4603 17.7093 16.9262 18.3855C17.3921 19.0559 17.625 19.8826 17.625 20.8656C17.625 21.7235 17.4347 22.4821 17.054 23.1412C16.6677 23.7946 16.108 24.3059 15.375 24.6752C14.6364 25.0446 13.7444 25.2292 12.6989 25.2292L4.36368 25.2292L4.36368 22.144L12.2216 22.144C13.0512 22.144 13.7103 21.9167 14.1989 21.4622C14.6875 21.0076 14.9319 20.411 14.9319 19.6724C14.9319 19.2179 14.8211 18.7775 14.5995 18.3514C14.3779 17.9252 14.0483 17.5758 13.6108 17.3031C13.1677 17.0247 12.6137 16.8855 11.9489 16.8855ZM7.82391 0.281072L8.13072 3.09357C7.84663 3.17312 7.57959 3.31232 7.32959 3.51119C7.07959 3.70437 6.87788 3.96573 6.72447 4.29528C6.57106 4.62482 6.49436 5.02823 6.49436 5.5055C6.49436 6.14755 6.63356 6.68732 6.91197 7.12482C7.19038 7.55664 7.55118 7.76971 7.99436 7.76403C8.37504 7.76971 8.6847 7.6305 8.92334 7.34641C9.16197 7.05664 9.358 6.57937 9.51141 5.91459L9.98868 3.68164C10.2557 2.443 10.679 1.52255 11.2586 0.920276C11.8381 0.312321 12.5966 0.00550277 13.5341 -0.000179259C14.358 0.0055027 15.0853 0.24698 15.716 0.724253C16.341 1.19584 16.8296 1.85209 17.1819 2.693C17.5341 3.53391 17.7103 4.49982 17.7103 5.59073C17.7103 7.193 17.375 8.48278 16.7046 9.46005C16.0285 10.4373 15.0881 11.0197 13.8836 11.2072L13.5938 8.19868C14.1847 8.06232 14.6307 7.77255 14.9319 7.32937C15.233 6.88618 15.3836 6.30948 15.3836 5.59925C15.3836 4.8663 15.233 4.27823 14.9319 3.83505C14.6307 3.38618 14.2586 3.16175 13.8154 3.16175C13.4404 3.16175 13.1307 3.30664 12.8864 3.59641C12.6421 3.8805 12.4546 4.32369 12.3239 4.92596L11.8552 7.15891C11.5938 8.41459 11.1535 9.34357 10.5341 9.94584C9.90913 10.5481 9.11936 10.8464 8.16481 10.8407C7.358 10.8464 6.65913 10.6277 6.06822 10.1845C5.47163 9.73562 5.01141 9.11346 4.68754 8.318C4.358 7.51687 4.19322 6.59357 4.19322 5.54812C4.19322 4.01403 4.51993 2.80664 5.17334 1.92596C5.82675 1.03959 6.71027 0.491299 7.82391 0.281072Z" fill="white"/>
</svg>
