<svg width="483" height="204" viewBox="0 0 483 204" fill="none" xmlns="http://www.w3.org/2000/svg">
<path d="M10.6108 2.49254V46.1289H1.3849V2.49254H10.6108ZM25.9076 27.2085V46.1289H16.8309V13.4016H25.4814V19.1758H25.8649C26.5894 17.2724 27.8039 15.7667 29.5084 14.6587C31.213 13.5366 33.2797 12.9755 35.7087 12.9755C37.9814 12.9755 39.963 13.4727 41.6533 14.467C43.3436 15.4613 44.6576 16.8817 45.5951 18.7283C46.5326 20.5607 47.0013 22.7482 47.0013 25.2908V46.1289H37.9246V26.9102C37.9388 24.9073 37.4274 23.3448 36.3905 22.2227C35.3536 21.0863 33.926 20.5181 32.1078 20.5181C30.8862 20.5181 29.8067 20.7809 28.8692 21.3065C27.9459 21.832 27.2215 22.5991 26.6959 23.6076C26.1845 24.6019 25.9218 25.8022 25.9076 27.2085ZM82.2946 13.4016L70.8528 46.1289H60.6255L49.1838 13.4016H58.7718L65.5687 36.8178H65.9096L72.6852 13.4016H82.2946ZM99.5995 46.7681C96.2331 46.7681 93.3353 46.0863 90.9063 44.7227C88.4916 43.3448 86.6308 41.3988 85.324 38.8846C84.0171 36.3562 83.3637 33.3661 83.3637 29.9144C83.3637 26.5479 84.0171 23.5934 85.324 21.0508C86.6308 18.5082 88.4703 16.5266 90.8424 15.1062C93.2288 13.6857 96.0271 12.9755 99.2373 12.9755C101.396 12.9755 103.406 13.3235 105.267 14.0195C107.142 14.7013 108.776 15.7312 110.168 17.109C111.574 18.4869 112.668 20.2198 113.449 22.3079C114.23 24.3817 114.621 26.8107 114.621 29.5948V32.0877H86.9859V26.4627H106.077C106.077 25.1559 105.793 23.9982 105.225 22.9897C104.656 21.9812 103.868 21.1928 102.859 20.6246C101.865 20.0423 100.707 19.7511 99.3865 19.7511C98.0086 19.7511 96.787 20.0707 95.7217 20.7099C94.6706 21.3349 93.8467 22.18 93.2501 23.2454C92.6535 24.2965 92.3481 25.4684 92.3339 26.761V32.109C92.3339 33.7283 92.6322 35.1275 93.2288 36.3065C93.8396 37.4854 94.699 38.3945 95.8069 39.0337C96.9149 39.6729 98.2288 39.9925 99.7487 39.9925C100.757 39.9925 101.68 39.8505 102.519 39.5664C103.357 39.2823 104.074 38.8562 104.671 38.288C105.267 37.7198 105.722 37.0238 106.034 36.1999L114.429 36.7539C114.003 38.771 113.129 40.5323 111.808 42.038C110.502 43.5295 108.811 44.6942 106.737 45.5323C104.678 46.3562 102.298 46.7681 99.5995 46.7681ZM146.574 22.734L138.265 23.2454C138.123 22.5352 137.817 21.896 137.348 21.3278C136.88 20.7454 136.262 20.2837 135.495 19.9428C134.742 19.5877 133.84 19.4102 132.789 19.4102C131.382 19.4102 130.196 19.7085 129.23 20.305C128.265 20.8874 127.782 21.6687 127.782 22.6488C127.782 23.43 128.094 24.0906 128.719 24.6303C129.344 25.1701 130.417 25.6033 131.936 25.93L137.86 27.1232C141.042 27.7766 143.414 28.8278 144.976 30.2766C146.539 31.7255 147.32 33.6289 147.32 35.9869C147.32 38.1317 146.688 40.0138 145.424 41.6332C144.174 43.2525 142.455 44.5167 140.267 45.4258C138.094 46.3207 135.587 46.7681 132.746 46.7681C128.414 46.7681 124.962 45.8661 122.391 44.0621C119.834 42.244 118.336 39.7724 117.895 36.6474L126.823 36.1786C127.093 37.4996 127.746 38.5082 128.783 39.2042C129.82 39.886 131.148 40.2269 132.767 40.2269C134.358 40.2269 135.637 39.9215 136.603 39.3107C137.583 38.6857 138.08 37.8832 138.094 36.9031C138.08 36.0792 137.732 35.4045 137.05 34.8789C136.368 34.3391 135.317 33.9272 133.897 33.6431L128.229 32.5138C125.033 31.8746 122.654 30.7667 121.091 29.19C119.543 27.6133 118.769 25.6033 118.769 23.1602C118.769 21.0579 119.337 19.2468 120.473 17.7269C121.624 16.207 123.236 15.0352 125.31 14.2113C127.398 13.3874 129.841 12.9755 132.64 12.9755C136.773 12.9755 140.026 13.8491 142.398 15.5962C144.784 17.3434 146.177 19.7227 146.574 22.734ZM169.243 13.4016V20.2198H149.534V13.4016H169.243ZM154.009 5.56072H163.086V36.0721C163.086 36.9102 163.213 37.5636 163.469 38.0323C163.725 38.4869 164.08 38.8065 164.534 38.9911C165.003 39.1758 165.543 39.2681 166.154 39.2681C166.58 39.2681 167.006 39.2326 167.432 39.1616C167.858 39.0763 168.185 39.0124 168.412 38.9698L169.84 45.7241C169.385 45.8661 168.746 46.0295 167.922 46.2141C167.098 46.413 166.097 46.5337 164.918 46.5763C162.73 46.6616 160.813 46.3704 159.165 45.7028C157.532 45.0352 156.26 43.9982 155.351 42.592C154.442 41.1857 153.995 39.4102 154.009 37.2653V5.56072ZM173.956 46.1289V13.4016H183.033V46.1289H173.956ZM178.516 9.18288C177.166 9.18288 176.008 8.73544 175.043 7.84055C174.091 6.93146 173.615 5.84481 173.615 4.58061C173.615 3.33061 174.091 2.25817 175.043 1.36328C176.008 0.454189 177.166 -0.000357389 178.516 -0.000357389C179.865 -0.000357389 181.016 0.454189 181.967 1.36328C182.933 2.25817 183.416 3.33061 183.416 4.58061C183.416 5.84481 182.933 6.93146 181.967 7.84055C181.016 8.73544 179.865 9.18288 178.516 9.18288ZM198.18 27.2085V46.1289H189.104V13.4016H197.754V19.1758H198.138C198.862 17.2724 200.077 15.7667 201.781 14.6587C203.486 13.5366 205.552 12.9755 207.981 12.9755C210.254 12.9755 212.236 13.4727 213.926 14.467C215.616 15.4613 216.93 16.8817 217.868 18.7283C218.805 20.5607 219.274 22.7482 219.274 25.2908V46.1289H210.197V26.9102C210.211 24.9073 209.7 23.3448 208.663 22.2227C207.626 21.0863 206.199 20.5181 204.381 20.5181C203.159 20.5181 202.079 20.7809 201.142 21.3065C200.219 21.832 199.494 22.5991 198.969 23.6076C198.457 24.6019 198.194 25.8022 198.18 27.2085ZM239.972 59.0835C237.032 59.0835 234.51 58.6786 232.408 57.869C230.32 57.0735 228.658 55.9869 227.422 54.609C226.187 53.2312 225.384 51.6829 225.015 49.9641L233.41 48.8349C233.665 49.4883 234.07 50.0991 234.624 50.6673C235.178 51.2354 235.91 51.69 236.819 52.0309C237.742 52.386 238.864 52.5636 240.185 52.5636C242.16 52.5636 243.786 52.0806 245.064 51.1147C246.357 50.163 247.003 48.565 247.003 46.3207V40.3335H246.62C246.222 41.2425 245.625 42.1019 244.83 42.9116C244.035 43.7212 243.012 44.3817 241.762 44.8931C240.512 45.4045 239.02 45.6602 237.287 45.6602C234.83 45.6602 232.593 45.092 230.576 43.9556C228.573 42.805 226.975 41.0508 225.782 38.6928C224.603 36.3207 224.013 33.3235 224.013 29.7013C224.013 25.994 224.617 22.8974 225.824 20.4116C227.032 17.9258 228.637 16.065 230.64 14.8292C232.657 13.5934 234.866 12.9755 237.266 12.9755C239.098 12.9755 240.633 13.288 241.868 13.913C243.104 14.5238 244.098 15.2908 244.851 16.2141C245.618 17.1232 246.208 18.0181 246.62 18.8988H246.961V13.4016H255.973V46.4485C255.973 49.2326 255.292 51.5621 253.928 53.4371C252.564 55.3121 250.675 56.7184 248.26 57.6559C245.86 58.6076 243.097 59.0835 239.972 59.0835ZM240.164 38.842C241.627 38.842 242.863 38.4798 243.871 37.7553C244.894 37.0167 245.675 35.9656 246.215 34.6019C246.769 33.2241 247.046 31.5763 247.046 29.6587C247.046 27.7411 246.776 26.0792 246.236 24.6729C245.696 23.2525 244.915 22.1516 243.892 21.3704C242.87 20.5891 241.627 20.1985 240.164 20.1985C238.672 20.1985 237.415 20.6033 236.392 21.413C235.37 22.2085 234.596 23.3164 234.07 24.7369C233.544 26.1573 233.282 27.7979 233.282 29.6587C233.282 31.5479 233.544 33.1815 234.07 34.5593C234.61 35.9229 235.384 36.9812 236.392 37.734C237.415 38.4727 238.672 38.842 240.164 38.842ZM1.3849 118.129V74.4925H30.2769V82.0991H10.6108V92.4968H28.3593V100.103H10.6108V118.129H1.3849ZM54.0485 104.194V85.4016H63.1252V118.129H54.4108V112.184H54.0698C53.3312 114.102 52.1025 115.643 50.3838 116.808C48.6792 117.973 46.5983 118.555 44.1409 118.555C41.9534 118.555 40.0286 118.058 38.3667 117.064C36.7048 116.069 35.4051 114.656 34.4676 112.824C33.5443 110.991 33.0755 108.797 33.0613 106.24V85.4016H42.138V104.62C42.1522 106.552 42.6707 108.079 43.6934 109.201C44.7161 110.324 46.0869 110.885 47.8056 110.885C48.8994 110.885 49.9221 110.636 50.8738 110.139C51.8255 109.627 52.5926 108.875 53.175 107.88C53.7715 106.886 54.0627 105.657 54.0485 104.194ZM86.5932 85.4016V92.2198H66.8844V85.4016H86.5932ZM71.3588 77.5607H80.4355V108.072C80.4355 108.91 80.5634 109.564 80.8191 110.032C81.0747 110.487 81.4299 110.806 81.8844 110.991C82.3532 111.176 82.8929 111.268 83.5037 111.268C83.9299 111.268 84.356 111.233 84.7821 111.162C85.2083 111.076 85.535 111.012 85.7622 110.97L87.1898 117.724C86.7353 117.866 86.096 118.029 85.2722 118.214C84.4483 118.413 83.4469 118.534 82.2679 118.576C80.0804 118.662 78.1628 118.37 76.5151 117.703C74.8816 117.035 73.6103 115.998 72.7012 114.592C71.7921 113.186 71.3446 111.41 71.3588 109.265V77.5607ZM112.293 104.194V85.4016H121.37V118.129H112.655V112.184H112.314C111.576 114.102 110.347 115.643 108.628 116.808C106.924 117.973 104.843 118.555 102.385 118.555C100.198 118.555 98.2732 118.058 96.6113 117.064C94.9493 116.069 93.6496 114.656 92.7121 112.824C91.7888 110.991 91.3201 108.797 91.3059 106.24V85.4016H100.383V104.62C100.397 106.552 100.915 108.079 101.938 109.201C102.961 110.324 104.331 110.885 106.05 110.885C107.144 110.885 108.167 110.636 109.118 110.139C110.07 109.627 110.837 108.875 111.419 107.88C112.016 106.886 112.307 105.657 112.293 104.194ZM127.43 118.129V85.4016H136.23V91.1119H136.571C137.167 89.0806 138.169 87.5465 139.575 86.5096C140.981 85.4585 142.601 84.9329 144.433 84.9329C144.887 84.9329 145.378 84.9613 145.903 85.0181C146.429 85.0749 146.89 85.1531 147.288 85.2525V93.3065C146.862 93.1786 146.272 93.065 145.52 92.9656C144.767 92.8661 144.078 92.8164 143.453 92.8164C142.118 92.8164 140.924 93.1076 139.873 93.69C138.836 94.2582 138.012 95.0536 137.402 96.0763C136.805 97.0991 136.507 98.2781 136.507 99.6133V118.129H127.43ZM164.172 118.768C160.806 118.768 157.908 118.086 155.479 116.723C153.064 115.345 151.203 113.399 149.897 110.885C148.59 108.356 147.936 105.366 147.936 101.914C147.936 98.5479 148.59 95.5934 149.897 93.0508C151.203 90.5082 153.043 88.5266 155.415 87.1062C157.801 85.6857 160.6 84.9755 163.81 84.9755C165.969 84.9755 167.979 85.3235 169.84 86.0195C171.715 86.7013 173.348 87.7312 174.74 89.109C176.147 90.4869 177.24 92.2198 178.022 94.3079C178.803 96.3817 179.193 98.8107 179.193 101.595V104.088H151.559V98.4627H170.649C170.649 97.1559 170.365 95.9982 169.797 94.9897C169.229 93.9812 168.441 93.1928 167.432 92.6246C166.438 92.0423 165.28 91.7511 163.959 91.7511C162.581 91.7511 161.36 92.0707 160.294 92.7099C159.243 93.3349 158.419 94.18 157.823 95.2454C157.226 96.2965 156.921 97.4684 156.907 98.761V104.109C156.907 105.728 157.205 107.127 157.801 108.306C158.412 109.485 159.272 110.395 160.38 111.034C161.488 111.673 162.801 111.993 164.321 111.993C165.33 111.993 166.253 111.85 167.091 111.566C167.929 111.282 168.647 110.856 169.243 110.288C169.84 109.72 170.294 109.024 170.607 108.2L179.002 108.754C178.576 110.771 177.702 112.532 176.381 114.038C175.074 115.529 173.384 116.694 171.31 117.532C169.25 118.356 166.871 118.768 164.172 118.768Z" fill="white"/>
<path d="M274.683 46.1289V13.4016H283.76V46.1289H274.683ZM279.243 9.18288C277.893 9.18288 276.736 8.73544 275.77 7.84055C274.818 6.93146 274.342 5.84481 274.342 4.58061C274.342 3.33061 274.818 2.25817 275.77 1.36328C276.736 0.454189 277.893 -0.000357389 279.243 -0.000357389C280.592 -0.000357389 281.743 0.454189 282.695 1.36328C283.66 2.25817 284.143 3.33061 284.143 4.58061C284.143 5.84481 283.66 6.93146 282.695 7.84055C281.743 8.73544 280.592 9.18288 279.243 9.18288ZM298.908 27.2085V46.1289H289.831V13.4016H298.481V19.1758H298.865C299.589 17.2724 300.804 15.7667 302.508 14.6587C304.213 13.5366 306.28 12.9755 308.709 12.9755C310.981 12.9755 312.963 13.4727 314.653 14.467C316.344 15.4613 317.658 16.8817 318.595 18.7283C319.533 20.5607 320.001 22.7482 320.001 25.2908V46.1289H310.925V26.9102C310.939 24.9073 310.427 23.3448 309.39 22.2227C308.354 21.0863 306.926 20.5181 305.108 20.5181C303.886 20.5181 302.807 20.7809 301.869 21.3065C300.946 21.832 300.221 22.5991 299.696 23.6076C299.185 24.6019 298.922 25.8022 298.908 27.2085ZM356.049 13.4016V20.2198H336.341V13.4016H356.049ZM340.815 5.56072H349.892V36.0721C349.892 36.9102 350.02 37.5636 350.275 38.0323C350.531 38.4869 350.886 38.8065 351.341 38.9911C351.809 39.1758 352.349 39.2681 352.96 39.2681C353.386 39.2681 353.812 39.2326 354.238 39.1616C354.665 39.0763 354.991 39.0124 355.218 38.9698L356.646 45.7241C356.191 45.8661 355.552 46.0295 354.728 46.2141C353.905 46.413 352.903 46.5337 351.724 46.5763C349.537 46.6616 347.619 46.3704 345.971 45.7028C344.338 45.0352 343.066 43.9982 342.157 42.592C341.248 41.1857 340.801 39.4102 340.815 37.2653V5.56072ZM370.542 27.2085V46.1289H361.465V2.49254H370.286V19.1758H370.67C371.408 17.244 372.602 15.7312 374.249 14.6374C375.897 13.5295 377.964 12.9755 380.45 12.9755C382.722 12.9755 384.704 13.4727 386.394 14.467C388.099 15.4471 389.42 16.8604 390.357 18.707C391.309 20.5394 391.778 22.734 391.764 25.2908V46.1289H382.687V26.9102C382.701 24.8931 382.19 23.3235 381.153 22.2013C380.13 21.0792 378.695 20.5181 376.849 20.5181C375.613 20.5181 374.519 20.7809 373.568 21.3065C372.63 21.832 371.891 22.5991 371.352 23.6076C370.826 24.6019 370.556 25.8022 370.542 27.2085ZM412.621 46.7681C409.255 46.7681 406.357 46.0863 403.928 44.7227C401.513 43.3448 399.653 41.3988 398.346 38.8846C397.039 36.3562 396.386 33.3661 396.386 29.9144C396.386 26.5479 397.039 23.5934 398.346 21.0508C399.653 18.5082 401.492 16.5266 403.864 15.1062C406.251 13.6857 409.049 12.9755 412.259 12.9755C414.418 12.9755 416.428 13.3235 418.289 14.0195C420.164 14.7013 421.798 15.7312 423.19 17.109C424.596 18.4869 425.69 20.2198 426.471 22.3079C427.252 24.3817 427.643 26.8107 427.643 29.5948V32.0877H400.008V26.4627H419.099C419.099 25.1559 418.815 23.9982 418.246 22.9897C417.678 21.9812 416.89 21.1928 415.881 20.6246C414.887 20.0423 413.729 19.7511 412.408 19.7511C411.03 19.7511 409.809 20.0707 408.744 20.7099C407.692 21.3349 406.869 22.18 406.272 23.2454C405.675 24.2965 405.37 25.4684 405.356 26.761V32.109C405.356 33.7283 405.654 35.1275 406.251 36.3065C406.861 37.4854 407.721 38.3945 408.829 39.0337C409.937 39.6729 411.251 39.9925 412.771 39.9925C413.779 39.9925 414.702 39.8505 415.54 39.5664C416.379 39.2823 417.096 38.8562 417.692 38.288C418.289 37.7198 418.744 37.0238 419.056 36.1999L427.451 36.7539C427.025 38.771 426.151 40.5323 424.83 42.038C423.523 43.5295 421.833 44.6942 419.759 45.5323C417.7 46.3562 415.32 46.7681 412.621 46.7681ZM211.39 118.768C208.081 118.768 205.219 118.065 202.804 116.659C200.403 115.238 198.55 113.264 197.243 110.735C195.936 108.193 195.282 105.245 195.282 101.893C195.282 98.5124 195.936 95.5579 197.243 93.0295C198.55 90.4869 200.403 88.5124 202.804 87.1062C205.219 85.6857 208.081 84.9755 211.39 84.9755C214.7 84.9755 217.555 85.6857 219.956 87.1062C222.371 88.5124 224.231 90.4869 225.538 93.0295C226.845 95.5579 227.498 98.5124 227.498 101.893C227.498 105.245 226.845 108.193 225.538 110.735C224.231 113.264 222.371 115.238 219.956 116.659C217.555 118.065 214.7 118.768 211.39 118.768ZM211.433 111.737C212.939 111.737 214.196 111.311 215.204 110.458C216.213 109.592 216.973 108.413 217.484 106.922C218.01 105.43 218.273 103.733 218.273 101.829C218.273 99.9258 218.01 98.2283 217.484 96.7369C216.973 95.2454 216.213 94.0664 215.204 93.1999C214.196 92.3335 212.939 91.9002 211.433 91.9002C209.913 91.9002 208.635 92.3335 207.598 93.1999C206.575 94.0664 205.801 95.2454 205.275 96.7369C204.764 98.2283 204.508 99.9258 204.508 101.829C204.508 103.733 204.764 105.43 205.275 106.922C205.801 108.413 206.575 109.592 207.598 110.458C208.635 111.311 209.913 111.737 211.433 111.737ZM249.8 85.4016V92.2198H229.601V85.4016H249.8ZM234.225 118.129V83.0366C234.225 80.6644 234.686 78.6971 235.609 77.1346C236.547 75.5721 237.825 74.4002 239.445 73.619C241.064 72.8377 242.904 72.4471 244.963 72.4471C246.355 72.4471 247.627 72.5536 248.777 72.7667C249.942 72.9798 250.808 73.1715 251.377 73.342L249.757 80.1602C249.402 80.0465 248.962 79.94 248.436 79.8406C247.925 79.7411 247.399 79.6914 246.859 79.6914C245.524 79.6914 244.594 80.0039 244.068 80.6289C243.543 81.2397 243.28 82.0991 243.28 83.207V118.129H234.225ZM267.002 118.129V74.4925H295.894V82.0991H276.228V92.4968H293.977V100.103H276.228V118.129H267.002ZM300.729 118.129V85.4016H309.806V118.129H300.729ZM305.289 81.1829C303.94 81.1829 302.782 80.7354 301.816 79.8406C300.864 78.9315 300.388 77.8448 300.388 76.5806C300.388 75.3306 300.864 74.2582 301.816 73.3633C302.782 72.4542 303.94 71.9996 305.289 71.9996C306.638 71.9996 307.789 72.4542 308.741 73.3633C309.707 74.2582 310.19 75.3306 310.19 76.5806C310.19 77.8448 309.707 78.9315 308.741 79.8406C307.789 80.7354 306.638 81.1829 305.289 81.1829ZM324.954 99.2085V118.129H315.877V85.4016H324.528V91.1758H324.911C325.635 89.2724 326.85 87.7667 328.555 86.6587C330.259 85.5366 332.326 84.9755 334.755 84.9755C337.028 84.9755 339.009 85.4727 340.699 86.467C342.39 87.4613 343.704 88.8817 344.641 90.7283C345.579 92.5607 346.047 94.7482 346.047 97.2908V118.129H336.971V98.9102C336.985 96.9073 336.474 95.3448 335.437 94.2227C334.4 93.0863 332.972 92.5181 331.154 92.5181C329.932 92.5181 328.853 92.7809 327.915 93.3065C326.992 93.832 326.268 94.5991 325.742 95.6076C325.231 96.6019 324.968 97.8022 324.954 99.2085ZM347.756 82.0991V74.4925H383.594V82.0991H370.234V118.129H361.115V82.0991H347.756ZM398.294 118.768C394.928 118.768 392.03 118.086 389.601 116.723C387.186 115.345 385.325 113.399 384.019 110.885C382.712 108.356 382.058 105.366 382.058 101.914C382.058 98.5479 382.712 95.5934 384.019 93.0508C385.325 90.5082 387.165 88.5266 389.537 87.1062C391.923 85.6857 394.722 84.9755 397.932 84.9755C400.091 84.9755 402.101 85.3235 403.962 86.0195C405.837 86.7013 407.47 87.7312 408.862 89.109C410.269 90.4869 411.362 92.2198 412.144 94.3079C412.925 96.3817 413.315 98.8107 413.315 101.595V104.088H385.68V98.4627H404.771C404.771 97.1559 404.487 95.9982 403.919 94.9897C403.351 93.9812 402.563 93.1928 401.554 92.6246C400.56 92.0423 399.402 91.7511 398.081 91.7511C396.703 91.7511 395.482 92.0707 394.416 92.7099C393.365 93.3349 392.541 94.18 391.945 95.2454C391.348 96.2965 391.043 97.4684 391.028 98.761V104.109C391.028 105.728 391.327 107.127 391.923 108.306C392.534 109.485 393.394 110.395 394.501 111.034C395.609 111.673 396.923 111.993 398.443 111.993C399.452 111.993 400.375 111.85 401.213 111.566C402.051 111.282 402.769 110.856 403.365 110.288C403.962 109.72 404.416 109.024 404.729 108.2L413.124 108.754C412.697 110.771 411.824 112.532 410.503 114.038C409.196 115.529 407.506 116.694 405.432 117.532C403.372 118.356 400.993 118.768 398.294 118.768ZM432.826 118.768C429.473 118.768 426.59 118.058 424.175 116.637C421.774 115.203 419.928 113.214 418.635 110.672C417.357 108.129 416.718 105.203 416.718 101.893C416.718 98.5408 417.364 95.6005 418.657 93.0721C419.963 90.5295 421.817 88.5479 424.218 87.1275C426.618 85.6928 429.473 84.9755 432.783 84.9755C435.638 84.9755 438.138 85.494 440.283 86.5309C442.428 87.5678 444.125 89.0238 445.375 90.8988C446.625 92.7738 447.314 94.9755 447.442 97.5039H438.877C438.635 95.8704 437.996 94.5565 436.959 93.5621C435.936 92.5536 434.594 92.0494 432.932 92.0494C431.526 92.0494 430.297 92.4329 429.246 93.1999C428.209 93.9528 427.399 95.0536 426.817 96.5025C426.235 97.9513 425.943 99.7056 425.943 101.765C425.943 103.853 426.228 105.629 426.796 107.092C427.378 108.555 428.195 109.67 429.246 110.437C430.297 111.204 431.526 111.588 432.932 111.588C433.969 111.588 434.899 111.375 435.723 110.949C436.561 110.522 437.25 109.904 437.79 109.095C438.344 108.271 438.706 107.284 438.877 106.133H447.442C447.3 108.633 446.618 110.835 445.397 112.738C444.189 114.627 442.52 116.105 440.39 117.17C438.259 118.235 435.738 118.768 432.826 118.768ZM461.13 99.2085V118.129H452.053V74.4925H460.875V91.1758H461.258C461.997 89.244 463.19 87.7312 464.838 86.6374C466.485 85.5295 468.552 84.9755 471.038 84.9755C473.311 84.9755 475.292 85.4727 476.982 86.467C478.687 87.4471 480.008 88.8604 480.946 90.707C481.897 92.5394 482.366 94.734 482.352 97.2908V118.129H473.275V98.9102C473.289 96.8931 472.778 95.3235 471.741 94.2013C470.718 93.0792 469.284 92.5181 467.437 92.5181C466.201 92.5181 465.107 92.7809 464.156 93.3065C463.218 93.832 462.48 94.5991 461.94 95.6076C461.414 96.6019 461.144 97.8022 461.13 99.2085ZM14.5951 190.768C11.5838 190.768 8.98433 190.228 6.79683 189.149C4.60933 188.069 2.92609 186.606 1.74711 184.76C0.582342 182.899 -4.42266e-05 180.825 -4.42266e-05 178.538C-4.42266e-05 176.833 0.340865 175.321 1.02268 174C1.7045 172.679 2.65621 171.464 3.8778 170.356C5.09939 169.234 6.51984 168.119 8.13916 167.011L16.598 161.45C17.6917 160.754 18.4943 160.022 19.0056 159.255C19.517 158.474 19.7727 157.629 19.7727 156.72C19.7727 155.853 19.4247 155.051 18.7287 154.312C18.0326 153.574 17.0454 153.211 15.767 153.225C14.9147 153.225 14.1761 153.417 13.5511 153.801C12.9261 154.17 12.436 154.66 12.0809 155.271C11.74 155.868 11.5696 156.535 11.5696 157.274C11.5696 158.183 11.8252 159.106 12.3366 160.044C12.848 160.981 13.5298 161.975 14.3821 163.027C15.2343 164.064 16.1647 165.186 17.1733 166.393L37.8622 190.129H28.4019L11.1434 170.91C10.0071 169.618 8.87069 168.268 7.73433 166.862C6.61217 165.441 5.67467 163.936 4.92183 162.345C4.16899 160.74 3.79257 159 3.79257 157.125C3.79257 155.008 4.28263 153.105 5.26274 151.414C6.25706 149.724 7.6491 148.389 9.43888 147.409C11.2286 146.414 13.3167 145.917 15.7031 145.917C18.0326 145.917 20.0426 146.393 21.7329 147.345C23.4375 148.282 24.7443 149.532 25.6534 151.095C26.5767 152.643 27.0383 154.348 27.0383 156.208C27.0383 158.268 26.5269 160.136 25.5042 161.812C24.4957 163.474 23.0752 164.966 21.2429 166.287L12.3366 172.7C11.1292 173.581 10.2343 174.483 9.65194 175.406C9.08376 176.315 8.79967 177.189 8.79967 178.027C8.79967 179.064 9.05535 179.994 9.56672 180.818C10.0781 181.642 10.8025 182.295 11.74 182.778C12.6775 183.247 13.7784 183.481 15.0426 183.481C16.5767 183.481 18.0894 183.133 19.5809 182.437C21.0866 181.727 22.4502 180.725 23.6718 179.433C24.9076 178.126 25.8948 176.578 26.6335 174.788C27.3721 172.998 27.7414 171.017 27.7414 168.843H35.2627C35.2627 171.514 34.9715 173.922 34.3892 176.066C33.8068 178.197 32.9971 180.058 31.9602 181.649C30.9233 183.225 29.7372 184.518 28.4019 185.527C27.9758 185.797 27.5639 186.052 27.1662 186.294C26.7684 186.535 26.3565 186.791 25.9304 187.061C24.311 188.368 22.5 189.312 20.4971 189.895C18.5085 190.477 16.5411 190.768 14.5951 190.768ZM53.3013 190.129V146.493H70.5172C73.8269 146.493 76.6465 147.125 78.976 148.389C81.3056 149.639 83.0811 151.379 84.3027 153.609C85.5385 155.825 86.1564 158.382 86.1564 161.279C86.1564 164.177 85.5314 166.734 84.2814 168.95C83.0314 171.166 81.2203 172.892 78.8482 174.127C76.4902 175.363 73.6351 175.981 70.2828 175.981H59.3098V168.588H68.7914C70.5669 168.588 72.03 168.282 73.1806 167.672C74.3453 167.047 75.2118 166.187 75.78 165.093C76.3624 163.985 76.6536 162.714 76.6536 161.279C76.6536 159.831 76.3624 158.566 75.78 157.487C75.2118 156.393 74.3453 155.548 73.1806 154.951C72.0158 154.341 70.5385 154.035 68.7487 154.035H62.5272V190.129H53.3013ZM90.7785 190.129V157.402H99.5782V163.112H99.9191C100.516 161.081 101.517 159.547 102.923 158.51C104.33 157.458 105.949 156.933 107.781 156.933C108.236 156.933 108.726 156.961 109.252 157.018C109.777 157.075 110.239 157.153 110.636 157.252V165.306C110.21 165.179 109.621 165.065 108.868 164.966C108.115 164.866 107.426 164.816 106.801 164.816C105.466 164.816 104.273 165.108 103.222 165.69C102.185 166.258 101.361 167.054 100.75 168.076C100.154 169.099 99.8552 170.278 99.8552 171.613V190.129H90.7785ZM127.393 190.768C124.083 190.768 121.221 190.065 118.806 188.659C116.406 187.238 114.552 185.264 113.245 182.735C111.938 180.193 111.285 177.245 111.285 173.893C111.285 170.512 111.938 167.558 113.245 165.029C114.552 162.487 116.406 160.512 118.806 159.106C121.221 157.686 124.083 156.975 127.393 156.975C130.702 156.975 133.558 157.686 135.958 159.106C138.373 160.512 140.234 162.487 141.541 165.029C142.847 167.558 143.501 170.512 143.501 173.893C143.501 177.245 142.847 180.193 141.541 182.735C140.234 185.264 138.373 187.238 135.958 188.659C133.558 190.065 130.702 190.768 127.393 190.768ZM127.435 183.737C128.941 183.737 130.198 183.311 131.207 182.458C132.215 181.592 132.975 180.413 133.487 178.922C134.012 177.43 134.275 175.733 134.275 173.829C134.275 171.926 134.012 170.228 133.487 168.737C132.975 167.245 132.215 166.066 131.207 165.2C130.198 164.333 128.941 163.9 127.435 163.9C125.916 163.9 124.637 164.333 123.6 165.2C122.577 166.066 121.803 167.245 121.278 168.737C120.766 170.228 120.511 171.926 120.511 173.829C120.511 175.733 120.766 177.43 121.278 178.922C121.803 180.413 122.577 181.592 123.6 182.458C124.637 183.311 125.916 183.737 127.435 183.737ZM148.203 202.402V157.402H157.152V162.899H157.556C157.954 162.018 158.529 161.123 159.282 160.214C160.049 159.291 161.044 158.524 162.265 157.913C163.501 157.288 165.035 156.975 166.867 156.975C169.254 156.975 171.456 157.6 173.473 158.85C175.49 160.086 177.102 161.954 178.309 164.454C179.517 166.94 180.12 170.058 180.12 173.808C180.12 177.458 179.531 180.541 178.352 183.055C177.187 185.555 175.596 187.451 173.579 188.744C171.576 190.022 169.332 190.662 166.846 190.662C165.085 190.662 163.586 190.37 162.35 189.788C161.129 189.206 160.127 188.474 159.346 187.593C158.565 186.699 157.968 185.797 157.556 184.887H157.279V202.402H148.203ZM157.088 173.765C157.088 175.711 157.358 177.409 157.897 178.858C158.437 180.306 159.218 181.436 160.241 182.245C161.264 183.041 162.507 183.439 163.97 183.439C165.447 183.439 166.697 183.034 167.72 182.224C168.742 181.4 169.517 180.264 170.042 178.815C170.582 177.352 170.852 175.669 170.852 173.765C170.852 171.876 170.589 170.214 170.064 168.779C169.538 167.345 168.764 166.223 167.741 165.413C166.718 164.603 165.461 164.199 163.97 164.199C162.492 164.199 161.242 164.589 160.22 165.37C159.211 166.152 158.437 167.26 157.897 168.694C157.358 170.129 157.088 171.819 157.088 173.765ZM196.167 154.099V146.493H232.005V154.099H218.645V190.129H209.526V154.099H196.167ZM233.138 190.129V157.402H241.938V163.112H242.279C242.875 161.081 243.877 159.547 245.283 158.51C246.689 157.458 248.308 156.933 250.141 156.933C250.595 156.933 251.085 156.961 251.611 157.018C252.136 157.075 252.598 157.153 252.996 157.252V165.306C252.57 165.179 251.98 165.065 251.227 164.966C250.475 164.866 249.786 164.816 249.161 164.816C247.825 164.816 246.632 165.108 245.581 165.69C244.544 166.258 243.72 167.054 243.109 168.076C242.513 169.099 242.215 170.278 242.215 171.613V190.129H233.138ZM264.884 190.747C262.795 190.747 260.935 190.385 259.301 189.66C257.668 188.922 256.375 187.835 255.423 186.4C254.486 184.951 254.017 183.147 254.017 180.988C254.017 179.17 254.351 177.643 255.018 176.407C255.686 175.172 256.595 174.177 257.746 173.424C258.896 172.672 260.203 172.103 261.666 171.72C263.143 171.336 264.692 171.066 266.311 170.91C268.215 170.711 269.749 170.527 270.913 170.356C272.078 170.172 272.923 169.902 273.449 169.547C273.974 169.191 274.237 168.666 274.237 167.97V167.842C274.237 166.493 273.811 165.449 272.959 164.71C272.121 163.971 270.928 163.602 269.379 163.602C267.746 163.602 266.446 163.964 265.48 164.689C264.514 165.399 263.875 166.294 263.563 167.373L255.168 166.691C255.594 164.703 256.432 162.984 257.682 161.535C258.932 160.072 260.544 158.95 262.518 158.169C264.507 157.373 266.808 156.975 269.422 156.975C271.24 156.975 272.98 157.189 274.642 157.615C276.318 158.041 277.803 158.701 279.095 159.596C280.402 160.491 281.432 161.642 282.185 163.048C282.938 164.44 283.314 166.109 283.314 168.055V190.129H274.706V185.591H274.45C273.925 186.613 273.222 187.515 272.341 188.297C271.46 189.064 270.402 189.667 269.166 190.108C267.93 190.534 266.503 190.747 264.884 190.747ZM267.483 184.483C268.818 184.483 269.997 184.22 271.02 183.694C272.043 183.154 272.845 182.43 273.428 181.521C274.01 180.612 274.301 179.582 274.301 178.431V174.958C274.017 175.143 273.626 175.314 273.129 175.47C272.646 175.612 272.099 175.747 271.489 175.875C270.878 175.988 270.267 176.095 269.656 176.194C269.045 176.279 268.492 176.358 267.994 176.429C266.929 176.585 265.999 176.833 265.203 177.174C264.408 177.515 263.79 177.977 263.349 178.559C262.909 179.127 262.689 179.838 262.689 180.69C262.689 181.926 263.136 182.87 264.031 183.524C264.94 184.163 266.091 184.483 267.483 184.483ZM301.216 190.662C298.73 190.662 296.478 190.022 294.461 188.744C292.458 187.451 290.867 185.555 289.689 183.055C288.524 180.541 287.941 177.458 287.941 173.808C287.941 170.058 288.545 166.94 289.752 164.454C290.96 161.954 292.565 160.086 294.568 158.85C296.585 157.6 298.794 156.975 301.194 156.975C303.027 156.975 304.554 157.288 305.775 157.913C307.011 158.524 308.005 159.291 308.758 160.214C309.525 161.123 310.108 162.018 310.505 162.899H310.782V146.493H319.838V190.129H310.889V184.887H310.505C310.079 185.797 309.475 186.699 308.694 187.593C307.927 188.474 306.926 189.206 305.69 189.788C304.468 190.37 302.977 190.662 301.216 190.662ZM304.092 183.439C305.555 183.439 306.791 183.041 307.799 182.245C308.822 181.436 309.603 180.306 310.143 178.858C310.697 177.409 310.974 175.711 310.974 173.765C310.974 171.819 310.704 170.129 310.164 168.694C309.625 167.26 308.843 166.152 307.821 165.37C306.798 164.589 305.555 164.199 304.092 164.199C302.6 164.199 301.343 164.603 300.321 165.413C299.298 166.223 298.524 167.345 297.998 168.779C297.473 170.214 297.21 171.876 297.21 173.765C297.21 175.669 297.473 177.352 297.998 178.815C298.538 180.264 299.312 181.4 300.321 182.224C301.343 183.034 302.6 183.439 304.092 183.439ZM326.1 190.129V157.402H335.177V190.129H326.1ZM330.66 153.183C329.311 153.183 328.153 152.735 327.187 151.841C326.235 150.931 325.759 149.845 325.759 148.581C325.759 147.331 326.235 146.258 327.187 145.363C328.153 144.454 329.311 144 330.66 144C332.009 144 333.16 144.454 334.112 145.363C335.078 146.258 335.561 147.331 335.561 148.581C335.561 149.845 335.078 150.931 334.112 151.841C333.16 152.735 332.009 153.183 330.66 153.183ZM350.325 171.208V190.129H341.248V157.402H349.899V163.176H350.282C351.007 161.272 352.221 159.767 353.926 158.659C355.63 157.537 357.697 156.975 360.126 156.975C362.399 156.975 364.38 157.473 366.07 158.467C367.761 159.461 369.075 160.882 370.012 162.728C370.95 164.561 371.418 166.748 371.418 169.291V190.129H362.342V170.91C362.356 168.907 361.845 167.345 360.808 166.223C359.771 165.086 358.343 164.518 356.525 164.518C355.303 164.518 354.224 164.781 353.286 165.306C352.363 165.832 351.639 166.599 351.113 167.608C350.602 168.602 350.339 169.802 350.325 171.208ZM392.117 203.083C389.176 203.083 386.655 202.679 384.553 201.869C382.465 201.074 380.803 199.987 379.567 198.609C378.331 197.231 377.529 195.683 377.159 193.964L385.554 192.835C385.81 193.488 386.215 194.099 386.769 194.667C387.323 195.235 388.054 195.69 388.963 196.031C389.886 196.386 391.009 196.564 392.33 196.564C394.304 196.564 395.93 196.081 397.209 195.115C398.502 194.163 399.148 192.565 399.148 190.321V184.333H398.764C398.367 185.243 397.77 186.102 396.975 186.912C396.179 187.721 395.156 188.382 393.906 188.893C392.656 189.404 391.165 189.66 389.432 189.66C386.975 189.66 384.737 189.092 382.72 187.956C380.717 186.805 379.119 185.051 377.926 182.693C376.747 180.321 376.158 177.324 376.158 173.701C376.158 169.994 376.761 166.897 377.969 164.412C379.176 161.926 380.781 160.065 382.784 158.829C384.801 157.593 387.01 156.975 389.411 156.975C391.243 156.975 392.777 157.288 394.013 157.913C395.249 158.524 396.243 159.291 396.996 160.214C397.763 161.123 398.352 162.018 398.764 162.899H399.105V157.402H408.118V190.449C408.118 193.233 407.436 195.562 406.073 197.437C404.709 199.312 402.82 200.718 400.405 201.656C398.004 202.608 395.242 203.083 392.117 203.083ZM392.308 182.842C393.771 182.842 395.007 182.48 396.016 181.755C397.038 181.017 397.82 179.966 398.359 178.602C398.913 177.224 399.19 175.576 399.19 173.659C399.19 171.741 398.921 170.079 398.381 168.673C397.841 167.252 397.06 166.152 396.037 165.37C395.014 164.589 393.771 164.199 392.308 164.199C390.817 164.199 389.56 164.603 388.537 165.413C387.514 166.208 386.74 167.316 386.215 168.737C385.689 170.157 385.426 171.798 385.426 173.659C385.426 175.548 385.689 177.181 386.215 178.559C386.754 179.923 387.529 180.981 388.537 181.734C389.56 182.473 390.817 182.842 392.308 182.842Z" fill="white" fill-opacity="0.6"/>
</svg>
