<svg width="322" height="124" viewBox="0 0 322 124" fill="none" xmlns="http://www.w3.org/2000/svg">
<path d="M5.53551 1.49592V27.6777H-5.57303e-06V1.49592H5.53551ZM14.7136 16.3255V27.6777H9.26757V8.04137H14.4579V11.5059H14.688C15.1227 10.3638 15.8514 9.4604 16.8741 8.79563C17.8968 8.12234 19.1369 7.78569 20.5943 7.78569C21.9579 7.78569 23.1468 8.08398 24.161 8.68057C25.1752 9.27717 25.9636 10.1294 26.5261 11.2374C27.0886 12.3368 27.3698 13.6493 27.3698 15.1749V27.6777H21.9238V16.1465C21.9323 14.9448 21.6255 14.0073 21.0034 13.334C20.3812 12.6522 19.5247 12.3113 18.4338 12.3113C17.7008 12.3113 17.0531 12.4689 16.4906 12.7843C15.9366 13.0996 15.5019 13.5598 15.1866 14.1649C14.8798 14.7615 14.7221 15.4817 14.7136 16.3255ZM48.5458 8.04137L41.6807 27.6777H35.5444L28.6793 8.04137H34.4322L38.5103 22.0911H38.7148L42.7802 8.04137H48.5458ZM58.9288 28.0613C56.9089 28.0613 55.1703 27.6522 53.7129 26.834C52.264 26.0073 51.1475 24.8397 50.3634 23.3311C49.5793 21.8141 49.1873 20.0201 49.1873 17.949C49.1873 15.9292 49.5793 14.1564 50.3634 12.6309C51.1475 11.1053 52.2512 9.91637 53.6745 9.0641C55.1063 8.21182 56.7853 7.78569 58.7114 7.78569C60.0069 7.78569 61.2129 7.9945 62.3293 8.41211C63.4543 8.8212 64.4345 9.4391 65.2697 10.2658C66.1134 11.0925 66.7697 12.1323 67.2384 13.3851C67.7072 14.6294 67.9416 16.0868 67.9416 17.7573V19.253H51.3606V15.878H62.8151C62.8151 15.0939 62.6447 14.3993 62.3038 13.7942C61.9629 13.1891 61.4899 12.7161 60.8847 12.3752C60.2881 12.0257 59.5935 11.851 58.8009 11.851C57.9742 11.851 57.2413 12.0428 56.6021 12.4263C55.9714 12.8013 55.4771 13.3084 55.1191 13.9476C54.7612 14.5783 54.5779 15.2814 54.5694 16.057V19.2658C54.5694 20.2374 54.7484 21.0769 55.1063 21.7843C55.4728 22.4917 55.9884 23.0371 56.6532 23.4206C57.318 23.8042 58.1063 23.9959 59.0183 23.9959C59.6234 23.9959 60.1774 23.9107 60.6802 23.7402C61.183 23.5698 61.6134 23.3141 61.9714 22.9732C62.3293 22.6323 62.6021 22.2147 62.7896 21.7203L67.8265 22.0527C67.5708 23.263 67.0467 24.3198 66.2541 25.2232C65.47 26.1181 64.4558 26.8169 63.2114 27.3198C61.9756 27.8141 60.5481 28.0613 58.9288 28.0613ZM87.1136 13.6408L82.1278 13.9476C82.0426 13.5215 81.8593 13.138 81.5781 12.7971C81.2968 12.4476 80.9261 12.1706 80.4659 11.9661C80.0142 11.753 79.473 11.6465 78.8423 11.6465C77.9985 11.6465 77.2869 11.8255 76.7074 12.1834C76.1278 12.5328 75.838 13.0016 75.838 13.5897C75.838 14.0584 76.0255 14.4547 76.4005 14.7786C76.7755 15.1025 77.419 15.3624 78.3309 15.5584L81.8849 16.2743C83.794 16.6664 85.2173 17.2971 86.1548 18.1664C87.0923 19.0357 87.561 20.1777 87.561 21.5925C87.561 22.8794 87.1818 24.0087 86.4233 24.9803C85.6733 25.9519 84.642 26.7104 83.3295 27.2559C82.0255 27.7928 80.5213 28.0613 78.8167 28.0613C76.2173 28.0613 74.1463 27.5201 72.6037 26.4377C71.0696 25.3468 70.1704 23.8638 69.9062 21.9888L75.2628 21.7076C75.4247 22.5002 75.8167 23.1053 76.4389 23.5229C77.061 23.932 77.8579 24.1365 78.8295 24.1365C79.7841 24.1365 80.5511 23.9533 81.1307 23.5868C81.7187 23.2118 82.017 22.7303 82.0255 22.1422C82.017 21.6479 81.8082 21.2431 81.3991 20.9277C80.99 20.6039 80.3593 20.3567 79.5071 20.1863L76.1065 19.5087C74.1889 19.1252 72.7613 18.4604 71.8238 17.5144C70.8949 16.5684 70.4304 15.3624 70.4304 13.8965C70.4304 12.6351 70.7713 11.5485 71.4531 10.6365C72.1434 9.72461 73.1108 9.02148 74.3551 8.52717C75.6079 8.03285 77.0738 7.78569 78.7528 7.78569C81.2329 7.78569 83.1846 8.30984 84.6079 9.35813C86.0397 10.4064 86.875 11.834 87.1136 13.6408ZM100.715 8.04137V12.1323H88.8897V8.04137H100.715ZM91.5744 3.33682H97.0204V21.6436C97.0204 22.1465 97.0971 22.5385 97.2505 22.8198C97.4039 23.0925 97.617 23.2843 97.8897 23.3951C98.1709 23.5059 98.4948 23.5613 98.8613 23.5613C99.117 23.5613 99.3727 23.54 99.6283 23.4973C99.884 23.4462 100.08 23.4078 100.216 23.3823L101.073 27.4348C100.8 27.5201 100.417 27.6181 99.9224 27.7289C99.4281 27.8482 98.8272 27.9206 98.1198 27.9462C96.8073 27.9973 95.6567 27.8226 94.6681 27.4221C93.688 27.0215 92.9252 26.3993 92.3798 25.5556C91.8343 24.7118 91.5658 23.6465 91.5744 22.3596V3.33682ZM103.543 27.6777V8.04137H108.989V27.6777H103.543ZM106.278 5.51012C105.469 5.51012 104.774 5.24165 104.195 4.70472C103.624 4.15927 103.338 3.50728 103.338 2.74876C103.338 1.99876 103.624 1.35529 104.195 0.818359C104.774 0.272904 105.469 0.000176191 106.278 0.000176191C107.088 0.000176191 107.778 0.272904 108.349 0.818359C108.929 1.35529 109.219 1.99876 109.219 2.74876C109.219 3.50728 108.929 4.15927 108.349 4.70472C107.778 5.24165 107.088 5.51012 106.278 5.51012ZM118.077 16.3255V27.6777H112.631V8.04137H117.821V11.5059H118.052C118.486 10.3638 119.215 9.4604 120.238 8.79563C121.26 8.12234 122.5 7.78569 123.958 7.78569C125.321 7.78569 126.51 8.08398 127.525 8.68057C128.539 9.27717 129.327 10.1294 129.89 11.2374C130.452 12.3368 130.733 13.6493 130.733 15.1749V27.6777H125.287V16.1465C125.296 14.9448 124.989 14.0073 124.367 13.334C123.745 12.6522 122.888 12.3113 121.797 12.3113C121.064 12.3113 120.417 12.4689 119.854 12.7843C119.3 13.0996 118.866 13.5598 118.55 14.1649C118.243 14.7615 118.086 15.4817 118.077 16.3255ZM143.152 35.4505C141.388 35.4505 139.875 35.2076 138.614 34.7218C137.361 34.2445 136.364 33.5925 135.622 32.7658C134.881 31.9391 134.399 31.0101 134.178 29.9789L139.215 29.3013C139.368 29.6934 139.611 30.0598 139.943 30.4007C140.276 30.7417 140.715 31.0144 141.26 31.2189C141.814 31.432 142.488 31.5385 143.28 31.5385C144.465 31.5385 145.441 31.2488 146.208 30.6692C146.983 30.0982 147.371 29.1394 147.371 27.7928V24.2005H147.141C146.902 24.7459 146.544 25.2615 146.067 25.7473C145.59 26.2331 144.976 26.6294 144.226 26.9363C143.476 27.2431 142.581 27.3965 141.541 27.3965C140.067 27.3965 138.725 27.0556 137.515 26.3738C136.313 25.6834 135.354 24.6309 134.638 23.2161C133.931 21.7928 133.577 19.9945 133.577 17.8212C133.577 15.5968 133.939 13.7388 134.664 12.2473C135.388 10.7559 136.351 9.63938 137.553 8.8979C138.763 8.15643 140.088 7.78569 141.529 7.78569C142.628 7.78569 143.549 7.97319 144.29 8.34819C145.032 8.71467 145.628 9.17489 146.08 9.72887C146.54 10.2743 146.894 10.8113 147.141 11.3397H147.345V8.04137H152.753V27.8695C152.753 29.54 152.344 30.9377 151.526 32.0627C150.708 33.1877 149.574 34.0314 148.125 34.5939C146.685 35.165 145.027 35.4505 143.152 35.4505ZM143.267 23.3056C144.145 23.3056 144.887 23.0882 145.492 22.6536C146.105 22.2104 146.574 21.5797 146.898 20.7615C147.23 19.9348 147.397 18.9462 147.397 17.7956C147.397 16.6451 147.235 15.6479 146.911 14.8042C146.587 13.9519 146.118 13.2914 145.505 12.8226C144.891 12.3539 144.145 12.1195 143.267 12.1195C142.372 12.1195 141.618 12.3624 141.005 12.8482C140.391 13.3255 139.926 13.9902 139.611 14.8425C139.296 15.6948 139.138 16.6792 139.138 17.7956C139.138 18.9292 139.296 19.9093 139.611 20.736C139.935 21.5542 140.399 22.1891 141.005 22.6408C141.618 23.084 142.372 23.3056 143.267 23.3056ZM-5.57303e-06 71.6777V45.4959H17.3352V50.0598H5.53551V56.2985H16.1847V60.8624H5.53551V71.6777H-5.57303e-06ZM31.5982 63.3169V52.0414H37.0442V71.6777H31.8155V68.111H31.611C31.1678 69.2615 30.4306 70.1863 29.3993 70.8851C28.3766 71.584 27.128 71.9334 25.6536 71.9334C24.3411 71.9334 23.1862 71.6351 22.1891 71.0385C21.1919 70.4419 20.4121 69.5939 19.8496 68.4945C19.2956 67.3951 19.0144 66.0783 19.0058 64.5442V52.0414H24.4519V63.5726C24.4604 64.7317 24.7715 65.6479 25.3851 66.3212C25.9987 66.9945 26.8212 67.3311 27.8524 67.3311C28.5087 67.3311 29.1223 67.182 29.6933 66.8837C30.2644 66.5769 30.7246 66.1252 31.074 65.5286C31.432 64.932 31.6067 64.1948 31.5982 63.3169ZM51.125 52.0414V56.1323H39.2997V52.0414H51.125ZM41.9844 47.3368H47.4304V65.6436C47.4304 66.1465 47.5071 66.5385 47.6605 66.8198C47.8139 67.0925 48.027 67.2843 48.2997 67.3951C48.5809 67.5059 48.9048 67.5613 49.2713 67.5613C49.527 67.5613 49.7827 67.54 50.0383 67.4973C50.294 67.4462 50.49 67.4078 50.6264 67.3823L51.4829 71.4348C51.2102 71.5201 50.8267 71.6181 50.3324 71.7289C49.8381 71.8482 49.2372 71.9206 48.5298 71.9462C47.2173 71.9973 46.0667 71.8226 45.0781 71.4221C44.098 71.0215 43.3352 70.3993 42.7898 69.5556C42.2443 68.7118 41.9758 67.6465 41.9844 66.3596V47.3368ZM66.5449 63.3169V52.0414H71.9909V71.6777H66.7622V68.111H66.5577C66.1145 69.2615 65.3773 70.1863 64.346 70.8851C63.3233 71.584 62.0747 71.9334 60.6003 71.9334C59.2878 71.9334 58.133 71.6351 57.1358 71.0385C56.1386 70.4419 55.3588 69.5939 54.7963 68.4945C54.2423 67.3951 53.9611 66.0783 53.9526 64.5442V52.0414H59.3986V63.5726C59.4071 64.7317 59.7182 65.6479 60.3318 66.3212C60.9455 66.9945 61.7679 67.3311 62.7992 67.3311C63.4554 67.3311 64.069 67.182 64.6401 66.8837C65.2111 66.5769 65.6713 66.1252 66.0207 65.5286C66.3787 64.932 66.5534 64.1948 66.5449 63.3169ZM75.6271 71.6777V52.0414H80.9069V55.4675H81.1115C81.4694 54.2488 82.0703 53.3283 82.914 52.7061C83.7578 52.0755 84.7294 51.7601 85.8288 51.7601C86.1015 51.7601 86.3956 51.7772 86.7109 51.8113C87.0262 51.8453 87.3032 51.8922 87.5419 51.9519V56.7843C87.2862 56.7076 86.9325 56.6394 86.4808 56.5797C86.0291 56.5201 85.6157 56.4902 85.2407 56.4902C84.4396 56.4902 83.7237 56.665 83.093 57.0144C82.4708 57.3553 81.9765 57.8326 81.6101 58.4462C81.2521 59.0598 81.0731 59.7672 81.0731 60.5684V71.6777H75.6271ZM97.6724 72.0613C95.6525 72.0613 93.9138 71.6522 92.4565 70.834C91.0076 70.0073 89.8911 68.8397 89.107 67.3311C88.3229 65.8141 87.9309 64.0201 87.9309 61.949C87.9309 59.9292 88.3229 58.1564 89.107 56.6309C89.8911 55.1053 90.9948 53.9164 92.4181 53.0641C93.8499 52.2118 95.5289 51.7857 97.455 51.7857C98.7505 51.7857 99.9565 51.9945 101.073 52.4121C102.198 52.8212 103.178 53.4391 104.013 54.2658C104.857 55.0925 105.513 56.1323 105.982 57.3851C106.451 58.6294 106.685 60.0868 106.685 61.7573V63.253H90.1042V59.878H101.559C101.559 59.0939 101.388 58.3993 101.047 57.7942C100.706 57.1891 100.233 56.7161 99.6283 56.3752C99.0317 56.0257 98.3371 55.851 97.5445 55.851C96.7178 55.851 95.9849 56.0428 95.3457 56.4263C94.715 56.8013 94.2207 57.3084 93.8627 57.9476C93.5048 58.5783 93.3215 59.2814 93.313 60.057V63.2658C93.313 64.2374 93.492 65.0769 93.8499 65.7843C94.2164 66.4917 94.732 67.0371 95.3968 67.4206C96.0616 67.8042 96.8499 67.9959 97.7619 67.9959C98.367 67.9959 98.9209 67.9107 99.4238 67.7402C99.9266 67.5698 100.357 67.3141 100.715 66.9732C101.073 66.6323 101.346 66.2147 101.533 65.7203L106.57 66.0527C106.314 67.263 105.79 68.3198 104.998 69.2232C104.214 70.1181 103.199 70.8169 101.955 71.3198C100.719 71.8141 99.2917 72.0613 97.6724 72.0613Z" fill="white"/>
<path d="M163.979 27.6777V8.04137H169.425V27.6777H163.979ZM166.715 5.51012C165.905 5.51012 165.211 5.24165 164.631 4.70472C164.06 4.15927 163.774 3.50728 163.774 2.74876C163.774 1.99876 164.06 1.35529 164.631 0.818359C165.211 0.272904 165.905 0.000176191 166.715 0.000176191C167.524 0.000176191 168.215 0.272904 168.786 0.818359C169.365 1.35529 169.655 1.99876 169.655 2.74876C169.655 3.50728 169.365 4.15927 168.786 4.70472C168.215 5.24165 167.524 5.51012 166.715 5.51012ZM178.514 16.3255V27.6777H173.068V8.04137H178.258V11.5059H178.488C178.923 10.3638 179.651 9.4604 180.674 8.79563C181.697 8.12234 182.937 7.78569 184.394 7.78569C185.758 7.78569 186.947 8.08398 187.961 8.68057C188.975 9.27717 189.764 10.1294 190.326 11.2374C190.889 12.3368 191.17 13.6493 191.17 15.1749V27.6777H185.724V16.1465C185.732 14.9448 185.426 14.0073 184.803 13.334C184.181 12.6522 183.325 12.3113 182.234 12.3113C181.501 12.3113 180.853 12.4689 180.291 12.7843C179.737 13.0996 179.302 13.5598 178.987 14.1649C178.68 14.7615 178.522 15.4817 178.514 16.3255ZM212.799 8.04137V12.1323H200.973V8.04137H212.799ZM203.658 3.33682H209.104V21.6436C209.104 22.1465 209.181 22.5385 209.334 22.8198C209.488 23.0925 209.701 23.2843 209.973 23.3951C210.255 23.5059 210.579 23.5613 210.945 23.5613C211.201 23.5613 211.456 23.54 211.712 23.4973C211.968 23.4462 212.164 23.4078 212.3 23.3823L213.157 27.4348C212.884 27.5201 212.5 27.6181 212.006 27.7289C211.512 27.8482 210.911 27.9206 210.204 27.9462C208.891 27.9973 207.74 27.8226 206.752 27.4221C205.772 27.0215 205.009 26.3993 204.464 25.5556C203.918 24.7118 203.65 23.6465 203.658 22.3596V3.33682ZM221.494 16.3255V27.6777H216.048V1.49592H221.341V11.5059H221.571C222.014 10.3468 222.73 9.4391 223.719 8.78285C224.707 8.11807 225.947 7.78569 227.439 7.78569C228.802 7.78569 229.991 8.08398 231.006 8.68057C232.028 9.26864 232.821 10.1167 233.383 11.2246C233.954 12.324 234.236 13.6408 234.227 15.1749V27.6777H228.781V16.1465C228.79 14.9363 228.483 13.9945 227.861 13.3212C227.247 12.6479 226.386 12.3113 225.278 12.3113C224.537 12.3113 223.881 12.4689 223.31 12.7843C222.747 13.0996 222.304 13.5598 221.98 14.1649C221.665 14.7615 221.503 15.4817 221.494 16.3255ZM246.742 28.0613C244.722 28.0613 242.983 27.6522 241.526 26.834C240.077 26.0073 238.961 24.8397 238.177 23.3311C237.392 21.8141 237 20.0201 237 17.949C237 15.9292 237.392 14.1564 238.177 12.6309C238.961 11.1053 240.064 9.91637 241.488 9.0641C242.919 8.21182 244.598 7.78569 246.525 7.78569C247.82 7.78569 249.026 7.9945 250.142 8.41211C251.267 8.8212 252.248 9.4391 253.083 10.2658C253.927 11.0925 254.583 12.1323 255.052 13.3851C255.52 14.6294 255.755 16.0868 255.755 17.7573V19.253H239.174V15.878H250.628C250.628 15.0939 250.458 14.3993 250.117 13.7942C249.776 13.1891 249.303 12.7161 248.698 12.3752C248.101 12.0257 247.407 11.851 246.614 11.851C245.787 11.851 245.054 12.0428 244.415 12.4263C243.785 12.8013 243.29 13.3084 242.932 13.9476C242.574 14.5783 242.391 15.2814 242.383 16.057V19.2658C242.383 20.2374 242.561 21.0769 242.919 21.7843C243.286 22.4917 243.802 23.0371 244.466 23.4206C245.131 23.8042 245.919 23.9959 246.831 23.9959C247.436 23.9959 247.99 23.9107 248.493 23.7402C248.996 23.5698 249.427 23.3141 249.785 22.9732C250.142 22.6323 250.415 22.2147 250.603 21.7203L255.64 22.0527C255.384 23.263 254.86 24.3198 254.067 25.2232C253.283 26.1181 252.269 26.8169 251.025 27.3198C249.789 27.8141 248.361 28.0613 246.742 28.0613ZM126.003 72.0613C124.018 72.0613 122.3 71.6394 120.851 70.7956C119.411 69.9434 118.299 68.7587 117.515 67.2417C116.731 65.7161 116.339 63.9476 116.339 61.9363C116.339 59.9078 116.731 58.1351 117.515 56.6181C118.299 55.0925 119.411 53.9078 120.851 53.0641C122.3 52.2118 124.018 51.7857 126.003 51.7857C127.989 51.7857 129.702 52.2118 131.143 53.0641C132.591 53.9078 133.708 55.0925 134.492 56.6181C135.276 58.1351 135.668 59.9078 135.668 61.9363C135.668 63.9476 135.276 65.7161 134.492 67.2417C133.708 68.7587 132.591 69.9434 131.143 70.7956C129.702 71.6394 127.989 72.0613 126.003 72.0613ZM126.029 67.8425C126.932 67.8425 127.687 67.5868 128.292 67.0755C128.897 66.5556 129.353 65.8482 129.66 64.9533C129.975 64.0584 130.133 63.0399 130.133 61.8979C130.133 60.7559 129.975 59.7374 129.66 58.8425C129.353 57.9476 128.897 57.2402 128.292 56.7203C127.687 56.2005 126.932 55.9405 126.029 55.9405C125.117 55.9405 124.35 56.2005 123.728 56.7203C123.114 57.2402 122.65 57.9476 122.334 58.8425C122.027 59.7374 121.874 60.7559 121.874 61.8979C121.874 63.0399 122.027 64.0584 122.334 64.9533C122.65 65.8482 123.114 66.5556 123.728 67.0755C124.35 67.5868 125.117 67.8425 126.029 67.8425ZM149.049 52.0414V56.1323H136.93V52.0414H149.049ZM139.704 71.6777V50.6223C139.704 49.199 139.981 48.0186 140.535 47.0811C141.097 46.1436 141.864 45.4405 142.836 44.9718C143.807 44.503 144.911 44.2686 146.147 44.2686C146.982 44.2686 147.745 44.3326 148.435 44.4604C149.134 44.5882 149.654 44.7033 149.995 44.8056L149.023 48.8965C148.81 48.8283 148.546 48.7644 148.231 48.7047C147.924 48.6451 147.609 48.6152 147.285 48.6152C146.484 48.6152 145.925 48.8027 145.61 49.1777C145.295 49.5442 145.137 50.0598 145.137 50.7246V71.6777H139.704ZM159.37 71.6777V45.4959H176.706V50.0598H164.906V56.2985H175.555V60.8624H164.906V71.6777H159.37ZM179.607 71.6777V52.0414H185.053V71.6777H179.607ZM182.342 49.5101C181.533 49.5101 180.838 49.2417 180.259 48.7047C179.688 48.1593 179.402 47.5073 179.402 46.7488C179.402 45.9988 179.688 45.3553 180.259 44.8184C180.838 44.2729 181.533 44.0002 182.342 44.0002C183.152 44.0002 183.842 44.2729 184.413 44.8184C184.993 45.3553 185.283 45.9988 185.283 46.7488C185.283 47.5073 184.993 48.1593 184.413 48.7047C183.842 49.2417 183.152 49.5101 182.342 49.5101ZM194.141 60.3255V71.6777H188.695V52.0414H193.886V55.5059H194.116C194.55 54.3638 195.279 53.4604 196.302 52.7956C197.324 52.1223 198.565 51.7857 200.022 51.7857C201.386 51.7857 202.574 52.084 203.589 52.6806C204.603 53.2772 205.391 54.1294 205.954 55.2374C206.516 56.3368 206.797 57.6493 206.797 59.1749V71.6777H201.351V60.1465C201.36 58.9448 201.053 58.0073 200.431 57.334C199.809 56.6522 198.952 56.3113 197.861 56.3113C197.128 56.3113 196.481 56.4689 195.918 56.7843C195.364 57.0996 194.93 57.5598 194.614 58.1649C194.307 58.7615 194.15 59.4817 194.141 60.3255ZM207.823 50.0598V45.4959H229.325V50.0598H221.31V71.6777H215.838V50.0598H207.823ZM238.145 72.0613C236.126 72.0613 234.387 71.6522 232.93 70.834C231.481 70.0073 230.364 68.8397 229.58 67.3311C228.796 65.8141 228.404 64.0201 228.404 61.949C228.404 59.9292 228.796 58.1564 229.58 56.6309C230.364 55.1053 231.468 53.9164 232.891 53.0641C234.323 52.2118 236.002 51.7857 237.928 51.7857C239.224 51.7857 240.43 51.9945 241.546 52.4121C242.671 52.8212 243.651 53.4391 244.486 54.2658C245.33 55.0925 245.986 56.1323 246.455 57.3851C246.924 58.6294 247.158 60.0868 247.158 61.7573V63.253H230.577V59.878H242.032C242.032 59.0939 241.861 58.3993 241.52 57.7942C241.18 57.1891 240.707 56.7161 240.101 56.3752C239.505 56.0257 238.81 55.851 238.018 55.851C237.191 55.851 236.458 56.0428 235.819 56.4263C235.188 56.8013 234.694 57.3084 234.336 57.9476C233.978 58.5783 233.795 59.2814 233.786 60.057V63.2658C233.786 64.2374 233.965 65.0769 234.323 65.7843C234.69 66.4917 235.205 67.0371 235.87 67.4206C236.535 67.8042 237.323 67.9959 238.235 67.9959C238.84 67.9959 239.394 67.9107 239.897 67.7402C240.4 67.5698 240.83 67.3141 241.188 66.9732C241.546 66.6323 241.819 66.2147 242.006 65.7203L247.043 66.0527C246.788 67.263 246.263 68.3198 245.471 69.2232C244.687 70.1181 243.672 70.8169 242.428 71.3198C241.192 71.8141 239.765 72.0613 238.145 72.0613ZM258.864 72.0613C256.853 72.0613 255.123 71.6351 253.674 70.7828C252.234 69.9221 251.126 68.7289 250.35 67.2033C249.583 65.6777 249.2 63.9221 249.2 61.9363C249.2 59.9249 249.587 58.1607 250.363 56.6436C251.147 55.1181 252.259 53.9292 253.7 53.0769C255.14 52.2161 256.853 51.7857 258.839 51.7857C260.552 51.7857 262.052 52.0968 263.339 52.7189C264.626 53.3411 265.644 54.2147 266.394 55.3397C267.144 56.4647 267.558 57.7857 267.634 59.3027H262.495C262.35 58.3226 261.967 57.5343 261.345 56.9377C260.731 56.3326 259.925 56.03 258.928 56.03C258.085 56.03 257.347 56.2601 256.717 56.7203C256.095 57.1721 255.609 57.8326 255.259 58.7019C254.91 59.5712 254.735 60.6238 254.735 61.8596C254.735 63.1124 254.906 64.1777 255.247 65.0556C255.596 65.9334 256.086 66.6025 256.717 67.0627C257.347 67.5229 258.085 67.753 258.928 67.753C259.55 67.753 260.109 67.6252 260.603 67.3695C261.106 67.1138 261.519 66.7431 261.843 66.2573C262.175 65.763 262.393 65.1706 262.495 64.4803H267.634C267.549 65.9803 267.14 67.3013 266.407 68.4434C265.683 69.5769 264.681 70.4632 263.403 71.1025C262.124 71.7417 260.612 72.0613 258.864 72.0613ZM275.847 60.3255V71.6777H270.401V45.4959H275.694V55.5059H275.924C276.367 54.3468 277.083 53.4391 278.072 52.7828C279.06 52.1181 280.3 51.7857 281.792 51.7857C283.155 51.7857 284.344 52.084 285.359 52.6806C286.381 53.2686 287.174 54.1167 287.736 55.2246C288.307 56.324 288.589 57.6408 288.58 59.1749V71.6777H283.134V60.1465C283.143 58.9363 282.836 57.9945 282.214 57.3212C281.6 56.6479 280.739 56.3113 279.631 56.3113C278.89 56.3113 278.234 56.4689 277.663 56.7843C277.1 57.0996 276.657 57.5598 276.333 58.1649C276.018 58.7615 275.856 59.4817 275.847 60.3255ZM307.786 72.0613C305.98 72.0613 304.42 71.7374 303.107 71.0897C301.795 70.4419 300.785 69.5641 300.078 68.4561C299.379 67.3397 299.029 66.0953 299.029 64.7232C299.029 63.7005 299.234 62.7928 299.643 62.0002C300.052 61.2076 300.623 60.4789 301.356 59.8141C302.089 59.1408 302.941 58.4718 303.913 57.807L308.988 54.4703C309.644 54.0527 310.126 53.6138 310.433 53.1536C310.74 52.6848 310.893 52.1777 310.893 51.6323C310.893 51.1124 310.684 50.6309 310.267 50.1877C309.849 49.7445 309.257 49.5272 308.49 49.5357C307.978 49.5357 307.535 49.6507 307.16 49.8809C306.785 50.1024 306.491 50.3965 306.278 50.763C306.073 51.1209 305.971 51.5215 305.971 51.9647C305.971 52.5101 306.125 53.0641 306.431 53.6266C306.738 54.1891 307.147 54.7857 307.659 55.4164C308.17 56.0385 308.728 56.7118 309.333 57.4363L321.747 71.6777H316.071L305.715 60.1465C305.034 59.3709 304.352 58.5613 303.67 57.7175C302.997 56.8652 302.434 55.9618 301.982 55.0073C301.531 54.0442 301.305 53.0002 301.305 51.8752C301.305 50.6053 301.599 49.4632 302.187 48.449C302.784 47.4348 303.619 46.6337 304.693 46.0456C305.767 45.449 307.019 45.1507 308.451 45.1507C309.849 45.1507 311.055 45.4363 312.069 46.0073C313.092 46.5698 313.876 47.3198 314.421 48.2573C314.975 49.1863 315.252 50.209 315.252 51.3255C315.252 52.5613 314.946 53.682 314.332 54.6877C313.727 55.6848 312.875 56.5797 311.775 57.3723L306.431 61.2203C305.707 61.7488 305.17 62.29 304.821 62.8439C304.48 63.3894 304.309 63.9135 304.309 64.4164C304.309 65.0385 304.463 65.5968 304.769 66.0911C305.076 66.5854 305.511 66.9774 306.073 67.2672C306.636 67.5485 307.296 67.6891 308.055 67.6891C308.975 67.6891 309.883 67.4803 310.778 67.0627C311.681 66.6365 312.5 66.0357 313.232 65.2601C313.974 64.476 314.566 63.5471 315.009 62.4732C315.453 61.3993 315.674 60.2104 315.674 58.9064H320.187C320.187 60.5087 320.012 61.9533 319.663 63.2402C319.313 64.5186 318.828 65.6351 318.205 66.5897C317.583 67.5357 316.872 68.3113 316.071 68.9164C315.815 69.0783 315.568 69.2317 315.329 69.3766C315.09 69.5215 314.843 69.6749 314.588 69.8368C313.616 70.6209 312.529 71.1877 311.328 71.5371C310.134 71.8865 308.954 72.0613 307.786 72.0613ZM-5.57303e-06 115.678V89.4959H10.3295C12.3153 89.4959 14.0071 89.8752 15.4048 90.6337C16.8026 91.3837 17.8679 92.4277 18.6008 93.7658C19.3423 95.0953 19.7131 96.6294 19.7131 98.3681C19.7131 100.107 19.3381 101.641 18.5881 102.97C17.8381 104.3 16.7514 105.335 15.3281 106.077C13.9133 106.818 12.2003 107.189 10.1889 107.189H3.60511V102.753H9.29403C10.3594 102.753 11.2372 102.57 11.9276 102.203C12.6264 101.828 13.1463 101.313 13.4872 100.656C13.8366 99.9917 14.0114 99.2289 14.0114 98.3681C14.0114 97.4988 13.8366 96.7402 13.4872 96.0925C13.1463 95.4363 12.6264 94.9292 11.9276 94.5712C11.2287 94.2047 10.3423 94.0215 9.26846 94.0215H5.53551V115.678H-5.57303e-06ZM22.4863 115.678V96.0414H27.7661V99.4675H27.9707C28.3286 98.2488 28.9295 97.3283 29.7732 96.7061C30.617 96.0755 31.5886 95.7601 32.688 95.7601C32.9607 95.7601 33.2548 95.7772 33.5701 95.8113C33.8855 95.8453 34.1625 95.8922 34.4011 95.9519V100.784C34.1454 100.708 33.7917 100.639 33.34 100.58C32.8883 100.52 32.475 100.49 32.1 100.49C31.2988 100.49 30.5829 100.665 29.9522 101.014C29.3301 101.355 28.8357 101.833 28.4693 102.446C28.1113 103.06 27.9323 103.767 27.9323 104.568V115.678H22.4863ZM44.4549 116.061C42.4691 116.061 40.7518 115.639 39.3029 114.796C37.8626 113.943 36.7503 112.759 35.9662 111.242C35.1822 109.716 34.7901 107.948 34.7901 105.936C34.7901 103.908 35.1822 102.135 35.9662 100.618C36.7503 99.0925 37.8626 97.9078 39.3029 97.0641C40.7518 96.2118 42.4691 95.7857 44.4549 95.7857C46.4407 95.7857 48.1537 96.2118 49.5941 97.0641C51.043 97.9078 52.1594 99.0925 52.9435 100.618C53.7276 102.135 54.1197 103.908 54.1197 105.936C54.1197 107.948 53.7276 109.716 52.9435 111.242C52.1594 112.759 51.043 113.943 49.5941 114.796C48.1537 115.639 46.4407 116.061 44.4549 116.061ZM44.4805 111.843C45.3839 111.843 46.1381 111.587 46.7432 111.075C47.3483 110.556 47.8043 109.848 48.1111 108.953C48.4265 108.058 48.5841 107.04 48.5841 105.898C48.5841 104.756 48.4265 103.737 48.1111 102.843C47.8043 101.948 47.3483 101.24 46.7432 100.72C46.1381 100.2 45.3839 99.9405 44.4805 99.9405C43.5685 99.9405 42.8015 100.2 42.1793 100.72C41.5657 101.24 41.1012 101.948 40.7858 102.843C40.479 103.737 40.3256 104.756 40.3256 105.898C40.3256 107.04 40.479 108.058 40.7858 108.953C41.1012 109.848 41.5657 110.556 42.1793 111.075C42.8015 111.587 43.5685 111.843 44.4805 111.843ZM56.9408 123.041V96.0414H62.3102V99.3397H62.5531C62.7917 98.8113 63.1369 98.2743 63.5886 97.7289C64.0488 97.1749 64.6454 96.7147 65.3783 96.3482C66.1198 95.9732 67.0403 95.7857 68.1397 95.7857C69.5715 95.7857 70.8926 96.1607 72.1028 96.9107C73.313 97.6522 74.2803 98.7729 75.0048 100.273C75.7292 101.764 76.0914 103.635 76.0914 105.885C76.0914 108.075 75.7377 109.925 75.0303 111.433C74.3315 112.933 73.3769 114.071 72.1667 114.847C70.965 115.614 69.6184 115.997 68.1269 115.997C67.0701 115.997 66.171 115.823 65.4295 115.473C64.6965 115.124 64.0957 114.685 63.6269 114.156C63.1582 113.619 62.8002 113.078 62.5531 112.533H62.3869V123.041H56.9408ZM62.2718 105.86C62.2718 107.027 62.4337 108.046 62.7576 108.915C63.0815 109.784 63.5502 110.462 64.1639 110.948C64.7775 111.425 65.5232 111.664 66.4011 111.664C67.2874 111.664 68.0374 111.421 68.6511 110.935C69.2647 110.441 69.7292 109.759 70.0445 108.889C70.3684 108.012 70.5303 107.002 70.5303 105.86C70.5303 104.726 70.3727 103.729 70.0573 102.868C69.742 102.007 69.2775 101.334 68.6639 100.848C68.0502 100.362 67.296 100.119 66.4011 100.119C65.5147 100.119 64.7647 100.354 64.1511 100.823C63.546 101.291 63.0815 101.956 62.7576 102.817C62.4337 103.678 62.2718 104.692 62.2718 105.86ZM85.7192 94.0598V89.4959H107.222V94.0598H99.2065V115.678H93.7349V94.0598H85.7192ZM107.902 115.678V96.0414H113.182V99.4675H113.386C113.744 98.2488 114.345 97.3283 115.189 96.7061C116.033 96.0755 117.004 95.7601 118.104 95.7601C118.376 95.7601 118.67 95.7772 118.986 95.8113C119.301 95.8453 119.578 95.8922 119.817 95.9519V100.784C119.561 100.708 119.207 100.639 118.756 100.58C118.304 100.52 117.891 100.49 117.516 100.49C116.714 100.49 115.999 100.665 115.368 101.014C114.746 101.355 114.251 101.833 113.885 102.446C113.527 103.06 113.348 103.767 113.348 104.568V115.678H107.902ZM126.949 116.048C125.696 116.048 124.58 115.831 123.6 115.396C122.62 114.953 121.844 114.301 121.273 113.441C120.711 112.571 120.429 111.489 120.429 110.193C120.429 109.102 120.63 108.186 121.03 107.445C121.431 106.703 121.976 106.107 122.667 105.655C123.357 105.203 124.141 104.862 125.019 104.632C125.905 104.402 126.834 104.24 127.806 104.146C128.948 104.027 129.868 103.916 130.567 103.814C131.266 103.703 131.773 103.541 132.089 103.328C132.404 103.115 132.562 102.8 132.562 102.382V102.306C132.562 101.496 132.306 100.869 131.795 100.426C131.292 99.9831 130.576 99.7615 129.647 99.7615C128.667 99.7615 127.887 99.9789 127.307 100.414C126.728 100.84 126.344 101.377 126.157 102.024L121.12 101.615C121.375 100.422 121.878 99.3908 122.628 98.5215C123.378 97.6436 124.346 96.9703 125.53 96.5016C126.723 96.0243 128.104 95.7857 129.672 95.7857C130.763 95.7857 131.807 95.9135 132.804 96.1692C133.81 96.4249 134.701 96.8212 135.476 97.3581C136.26 97.8951 136.878 98.5854 137.33 99.4292C137.782 100.264 138.008 101.266 138.008 102.433V115.678H132.843V112.955H132.689C132.374 113.568 131.952 114.11 131.424 114.578C130.895 115.039 130.26 115.401 129.519 115.665C128.777 115.921 127.921 116.048 126.949 116.048ZM128.509 112.29C129.31 112.29 130.018 112.132 130.631 111.817C131.245 111.493 131.726 111.058 132.076 110.513C132.425 109.968 132.6 109.35 132.6 108.659V106.575C132.429 106.686 132.195 106.789 131.897 106.882C131.607 106.968 131.279 107.048 130.912 107.125C130.546 107.193 130.179 107.257 129.813 107.317C129.446 107.368 129.114 107.415 128.816 107.458C128.177 107.551 127.618 107.7 127.141 107.905C126.664 108.11 126.293 108.387 126.029 108.736C125.765 109.077 125.633 109.503 125.633 110.014C125.633 110.756 125.901 111.323 126.438 111.715C126.983 112.098 127.674 112.29 128.509 112.29ZM148.749 115.997C147.257 115.997 145.906 115.614 144.696 114.847C143.494 114.071 142.54 112.933 141.832 111.433C141.133 109.925 140.784 108.075 140.784 105.885C140.784 103.635 141.146 101.764 141.871 100.273C142.595 98.7729 143.558 97.6522 144.76 96.9107C145.97 96.1607 147.295 95.7857 148.736 95.7857C149.835 95.7857 150.751 95.9732 151.484 96.3482C152.226 96.7147 152.822 97.1749 153.274 97.7289C153.734 98.2743 154.084 98.8113 154.322 99.3397H154.489V89.4959H159.922V115.678H154.553V112.533H154.322C154.067 113.078 153.704 113.619 153.236 114.156C152.776 114.685 152.175 115.124 151.433 115.473C150.7 115.823 149.805 115.997 148.749 115.997ZM150.474 111.664C151.352 111.664 152.094 111.425 152.699 110.948C153.312 110.462 153.781 109.784 154.105 108.915C154.437 108.046 154.604 107.027 154.604 105.86C154.604 104.692 154.442 103.678 154.118 102.817C153.794 101.956 153.325 101.291 152.712 100.823C152.098 100.354 151.352 100.119 150.474 100.119C149.579 100.119 148.825 100.362 148.212 100.848C147.598 101.334 147.133 102.007 146.818 102.868C146.503 103.729 146.345 104.726 146.345 105.86C146.345 107.002 146.503 108.012 146.818 108.889C147.142 109.759 147.606 110.441 148.212 110.935C148.825 111.421 149.579 111.664 150.474 111.664ZM163.679 115.678V96.0414H169.125V115.678H163.679ZM166.415 93.5101C165.606 93.5101 164.911 93.2417 164.331 92.7047C163.76 92.1593 163.475 91.5073 163.475 90.7488C163.475 89.9988 163.76 89.3553 164.331 88.8184C164.911 88.2729 165.606 88.0002 166.415 88.0002C167.225 88.0002 167.915 88.2729 168.486 88.8184C169.066 89.3553 169.356 89.9988 169.356 90.7488C169.356 91.5073 169.066 92.1593 168.486 92.7047C167.915 93.2417 167.225 93.5101 166.415 93.5101ZM178.214 104.325V115.678H172.768V96.0414H177.958V99.5059H178.188C178.623 98.3638 179.352 97.4604 180.375 96.7956C181.397 96.1223 182.637 95.7857 184.095 95.7857C185.458 95.7857 186.647 96.084 187.662 96.6806C188.676 97.2772 189.464 98.1294 190.027 99.2374C190.589 100.337 190.87 101.649 190.87 103.175V115.678H185.424V104.146C185.433 102.945 185.126 102.007 184.504 101.334C183.882 100.652 183.025 100.311 181.934 100.311C181.201 100.311 180.554 100.469 179.991 100.784C179.437 101.1 179.002 101.56 178.687 102.165C178.38 102.762 178.223 103.482 178.214 104.325ZM203.289 123.45C201.525 123.45 200.012 123.208 198.751 122.722C197.498 122.244 196.501 121.593 195.759 120.766C195.018 119.939 194.536 119.01 194.315 117.979L199.352 117.301C199.505 117.693 199.748 118.06 200.08 118.401C200.413 118.742 200.852 119.014 201.397 119.219C201.951 119.432 202.624 119.539 203.417 119.539C204.602 119.539 205.578 119.249 206.345 118.669C207.12 118.098 207.508 117.139 207.508 115.793V112.2H207.278C207.039 112.746 206.681 113.262 206.204 113.747C205.727 114.233 205.113 114.629 204.363 114.936C203.613 115.243 202.718 115.396 201.678 115.396C200.204 115.396 198.862 115.056 197.651 114.374C196.45 113.683 195.491 112.631 194.775 111.216C194.068 109.793 193.714 107.994 193.714 105.821C193.714 103.597 194.076 101.739 194.801 100.247C195.525 98.7559 196.488 97.6394 197.69 96.8979C198.9 96.1564 200.225 95.7857 201.666 95.7857C202.765 95.7857 203.685 95.9732 204.427 96.3482C205.168 96.7147 205.765 97.1749 206.217 97.7289C206.677 98.2743 207.031 98.8113 207.278 99.3397H207.482V96.0414H212.89V115.869C212.89 117.54 212.481 118.938 211.663 120.063C210.845 121.188 209.711 122.031 208.262 122.594C206.822 123.165 205.164 123.45 203.289 123.45ZM203.404 111.306C204.282 111.306 205.024 111.088 205.629 110.654C206.242 110.21 206.711 109.58 207.035 108.762C207.367 107.935 207.533 106.946 207.533 105.796C207.533 104.645 207.372 103.648 207.048 102.804C206.724 101.952 206.255 101.291 205.641 100.823C205.028 100.354 204.282 100.119 203.404 100.119C202.509 100.119 201.755 100.362 201.141 100.848C200.528 101.325 200.063 101.99 199.748 102.843C199.433 103.695 199.275 104.679 199.275 105.796C199.275 106.929 199.433 107.909 199.748 108.736C200.072 109.554 200.536 110.189 201.141 110.641C201.755 111.084 202.509 111.306 203.404 111.306Z" fill="white" fill-opacity="0.6"/>
</svg>
