<svg width="517" height="123" viewBox="0 0 517 123" fill="none" xmlns="http://www.w3.org/2000/svg">
<path d="M12.4862 46.1289L0.000355154 2.49254H10.0785L17.3015 32.8121H17.6637L25.6325 2.49254H34.2617L42.2092 32.8761H42.5927L49.8157 2.49254H59.8938L47.408 46.1289H38.4165L30.1069 17.5991H29.766L21.4776 46.1289H12.4862ZM73.7379 27.2085V46.1289H64.6612V2.49254H73.4822V19.1758H73.8658C74.6044 17.244 75.7976 15.7312 77.4453 14.6374C79.093 13.5295 81.1598 12.9755 83.6456 12.9755C85.9183 12.9755 87.8999 13.4727 89.5902 14.467C91.2947 15.4471 92.6158 16.8604 93.5533 18.707C94.505 20.5394 94.9737 22.734 94.9595 25.2908V46.1289H85.8828V26.9102C85.897 24.8931 85.3857 23.3235 84.3487 22.2013C83.326 21.0792 81.8913 20.5181 80.0447 20.5181C78.8089 20.5181 77.7152 20.7809 76.7635 21.3065C75.826 21.832 75.0874 22.5991 74.5476 23.6076C74.022 24.6019 73.7521 25.8022 73.7379 27.2085ZM106.534 58.4016C105.384 58.4016 104.304 58.3093 103.296 58.1246C102.301 57.9542 101.478 57.734 100.824 57.4641L102.87 50.6886C103.935 51.0153 104.894 51.1928 105.746 51.2212C106.613 51.2496 107.358 51.0508 107.983 50.6246C108.623 50.1985 109.141 49.4741 109.539 48.4513L110.071 47.0664L98.3313 13.4016H107.877L114.652 37.4357H114.993L121.833 13.4016H131.442L118.722 49.6658C118.111 51.4272 117.28 52.9613 116.229 54.2681C115.192 55.5891 113.878 56.6048 112.287 57.315C110.696 58.0394 108.779 58.4016 106.534 58.4016ZM393.873 46.1289L381.387 2.49254H391.465L398.688 32.8121H399.05L407.019 2.49254H415.648L423.596 32.8761H423.979L431.202 2.49254H441.281L428.795 46.1289H419.803L411.494 17.5991H411.153L402.864 46.1289H393.873ZM446.048 46.1289V13.4016H455.125V46.1289H446.048ZM450.608 9.18288C449.258 9.18288 448.1 8.73544 447.135 7.84055C446.183 6.93146 445.707 5.84481 445.707 4.58061C445.707 3.33061 446.183 2.25817 447.135 1.36328C448.1 0.454189 449.258 -0.000357389 450.608 -0.000357389C451.957 -0.000357389 453.108 0.454189 454.059 1.36328C455.025 2.25817 455.508 3.33061 455.508 4.58061C455.508 5.84481 455.025 6.93146 454.059 7.84055C453.108 8.73544 451.957 9.18288 450.608 9.18288ZM479.803 13.4016V20.2198H460.094V13.4016H479.803ZM464.569 5.56072H473.646V36.0721C473.646 36.9102 473.773 37.5636 474.029 38.0323C474.285 38.4869 474.64 38.8065 475.094 38.9911C475.563 39.1758 476.103 39.2681 476.714 39.2681C477.14 39.2681 477.566 39.2326 477.992 39.1616C478.418 39.0763 478.745 39.0124 478.972 38.9698L480.4 45.7241C479.945 45.8661 479.306 46.0295 478.482 46.2141C477.658 46.413 476.657 46.5337 475.478 46.5763C473.29 46.6616 471.373 46.3704 469.725 45.7028C468.092 45.0352 466.82 43.9982 465.911 42.592C465.002 41.1857 464.555 39.4102 464.569 37.2653V5.56072ZM495.496 27.2085V46.1289H486.419V2.49254H495.24V19.1758H495.624C496.362 17.244 497.555 15.7312 499.203 14.6374C500.851 13.5295 502.918 12.9755 505.403 12.9755C507.676 12.9755 509.658 13.4727 511.348 14.467C513.053 15.4471 514.374 16.8604 515.311 18.707C516.263 20.5394 516.732 22.734 516.717 25.2908V46.1289H507.641V26.9102C507.655 24.8931 507.143 23.3235 506.107 22.2013C505.084 21.0792 503.649 20.5181 501.803 20.5181C500.567 20.5181 499.473 20.7809 498.521 21.3065C497.584 21.832 496.845 22.5991 496.305 23.6076C495.78 24.6019 495.51 25.8022 495.496 27.2085ZM2.66371 110.129V66.4925H20.1353C23.3455 66.4925 26.0231 66.9684 28.168 67.9201C30.3129 68.8718 31.9251 70.1928 33.0046 71.8832C34.0842 73.5593 34.6239 75.4911 34.6239 77.6786C34.6239 79.3832 34.283 80.8817 33.6012 82.1744C32.9194 83.4528 31.9819 84.5039 30.7887 85.3278C29.6097 86.1374 28.2603 86.7127 26.7404 87.0536V87.4798C28.4023 87.5508 29.9577 88.0195 31.4066 88.886C32.8697 89.7525 34.0558 90.967 34.9648 92.5295C35.8739 94.0778 36.3285 95.9244 36.3285 98.0692C36.3285 100.385 35.7532 102.451 34.6026 104.27C33.4663 106.074 31.783 107.501 29.5529 108.552C27.3228 109.603 24.5742 110.129 21.3072 110.129H2.66371ZM11.8896 102.586H19.4109C21.9819 102.586 23.8569 102.096 25.0359 101.116C26.2148 100.122 26.8043 98.8008 26.8043 97.1531C26.8043 95.9457 26.5131 94.8803 25.9308 93.957C25.3484 93.0337 24.5174 92.3093 23.4379 91.7837C22.3725 91.2582 21.1012 90.9954 19.6239 90.9954H11.8896V102.586ZM11.8896 84.7525H18.729C19.9933 84.7525 21.1154 84.5323 22.0955 84.092C23.0898 83.6374 23.8711 82.9982 24.4393 82.1744C25.0217 81.3505 25.3129 80.3633 25.3129 79.2127C25.3129 77.636 24.7518 76.3647 23.6296 75.3988C22.5217 74.4329 20.945 73.9499 18.8995 73.9499H11.8896V84.7525ZM63.1484 96.1942V77.4016H72.2251V110.129H63.5107V104.184H63.1697C62.4311 106.102 61.2024 107.643 59.4837 108.808C57.7791 109.973 55.6982 110.555 53.2408 110.555C51.0533 110.555 49.1286 110.058 47.4666 109.064C45.8047 108.069 44.505 106.656 43.5675 104.824C42.6442 102.991 42.1754 100.797 42.1612 98.2397V77.4016H51.2379V96.6204C51.2521 98.5522 51.7706 100.079 52.7933 101.201C53.8161 102.324 55.1868 102.885 56.9055 102.885C57.9993 102.885 59.022 102.636 59.9737 102.139C60.9254 101.627 61.6925 100.875 62.2749 99.8803C62.8714 98.886 63.1626 97.6573 63.1484 96.1942ZM79.4854 110.129V77.4016H88.2852V83.1119H88.6261C89.2227 81.0806 90.2241 79.5465 91.6303 78.5096C93.0366 77.4585 94.6559 76.9329 96.4883 76.9329C96.9428 76.9329 97.4329 76.9613 97.9585 77.0181C98.484 77.0749 98.9457 77.1531 99.3434 77.2525V85.3065C98.9173 85.1786 98.3278 85.065 97.5749 84.9656C96.8221 84.8661 96.1332 84.8164 95.5082 84.8164C94.1729 84.8164 92.9798 85.1076 91.9286 85.69C90.8917 86.2582 90.0678 87.0536 89.457 88.0763C88.8604 89.0991 88.5621 90.2781 88.5621 91.6133V110.129H79.4854ZM104.036 110.129V77.4016H112.836V83.1119H113.177C113.773 81.0806 114.775 79.5465 116.181 78.5096C117.587 77.4585 119.207 76.9329 121.039 76.9329C121.494 76.9329 121.984 76.9613 122.509 77.0181C123.035 77.0749 123.496 77.1531 123.894 77.2525V85.3065C123.468 85.1786 122.879 85.065 122.126 84.9656C121.373 84.8661 120.684 84.8164 120.059 84.8164C118.724 84.8164 117.531 85.1076 116.479 85.69C115.442 86.2582 114.619 87.0536 114.008 88.0763C113.411 89.0991 113.113 90.2781 113.113 91.6133V110.129H104.036ZM141.85 110.768C138.541 110.768 135.679 110.065 133.264 108.659C130.863 107.238 129.01 105.264 127.703 102.735C126.396 100.193 125.743 97.2454 125.743 93.8931C125.743 90.5124 126.396 87.5579 127.703 85.0295C129.01 82.4869 130.863 80.5124 133.264 79.1062C135.679 77.6857 138.541 76.9755 141.85 76.9755C145.16 76.9755 148.015 77.6857 150.416 79.1062C152.831 80.5124 154.691 82.4869 155.998 85.0295C157.305 87.5579 157.958 90.5124 157.958 93.8931C157.958 97.2454 157.305 100.193 155.998 102.735C154.691 105.264 152.831 107.238 150.416 108.659C148.015 110.065 145.16 110.768 141.85 110.768ZM141.893 103.737C143.399 103.737 144.656 103.311 145.664 102.458C146.673 101.592 147.433 100.413 147.944 98.9215C148.47 97.43 148.733 95.7326 148.733 93.8292C148.733 91.9258 148.47 90.2283 147.944 88.7369C147.433 87.2454 146.673 86.0664 145.664 85.1999C144.656 84.3335 143.399 83.9002 141.893 83.9002C140.373 83.9002 139.095 84.3335 138.058 85.1999C137.035 86.0664 136.261 87.2454 135.735 88.7369C135.224 90.2283 134.968 91.9258 134.968 93.8292C134.968 95.7326 135.224 97.43 135.735 98.9215C136.261 100.413 137.035 101.592 138.058 102.458C139.095 103.311 140.373 103.737 141.893 103.737ZM169.496 110.129L160.59 77.4016H169.773L174.844 99.3903H175.142L180.426 77.4016H189.439L194.809 99.2624H195.086L200.071 77.4016H209.233L200.348 110.129H190.739L185.114 89.5465H184.709L179.084 110.129H169.496ZM266.634 81.7695H257.301C257.131 80.5621 256.783 79.4897 256.257 78.5522C255.732 77.6005 255.057 76.7908 254.233 76.1232C253.409 75.4556 252.458 74.9442 251.378 74.5891C250.313 74.234 249.155 74.0565 247.905 74.0565C245.647 74.0565 243.679 74.6175 242.003 75.7397C240.327 76.8477 239.027 78.467 238.104 80.5977C237.181 82.7141 236.719 85.2852 236.719 88.3107C236.719 91.4215 237.181 94.0352 238.104 96.1516C239.042 98.2681 240.348 99.8661 242.025 100.946C243.701 102.025 245.64 102.565 247.841 102.565C249.077 102.565 250.221 102.402 251.272 102.075C252.337 101.748 253.282 101.272 254.105 100.647C254.929 100.008 255.611 99.234 256.151 98.3249C256.705 97.4158 257.088 96.3789 257.301 95.2141L266.634 95.2567C266.392 97.2596 265.789 99.1914 264.823 101.052C263.871 102.899 262.586 104.554 260.966 106.017C259.361 107.466 257.444 108.616 255.213 109.468C252.998 110.306 250.49 110.725 247.692 110.725C243.8 110.725 240.32 109.845 237.252 108.083C234.198 106.322 231.783 103.772 230.007 100.434C228.246 97.0962 227.365 93.055 227.365 88.3107C227.365 83.5522 228.26 79.5039 230.05 76.1658C231.84 72.8278 234.269 70.2852 237.337 68.538C240.405 66.7766 243.857 65.896 247.692 65.896C250.221 65.896 252.564 66.2511 254.723 66.9613C256.897 67.6715 258.821 68.7085 260.498 70.0721C262.174 71.4215 263.537 73.0763 264.588 75.0366C265.654 76.9968 266.336 79.2411 266.634 81.7695ZM282.412 110.747C280.324 110.747 278.463 110.385 276.829 109.66C275.196 108.922 273.903 107.835 272.951 106.4C272.014 104.951 271.545 103.147 271.545 100.988C271.545 99.1701 271.879 97.6431 272.547 96.4073C273.214 95.1715 274.123 94.1772 275.274 93.4244C276.424 92.6715 277.731 92.1033 279.194 91.7198C280.672 91.3363 282.22 91.0664 283.839 90.9102C285.743 90.7113 287.277 90.5266 288.441 90.3562C289.606 90.1715 290.451 89.9016 290.977 89.5465C291.502 89.1914 291.765 88.6658 291.765 87.9698V87.842C291.765 86.4925 291.339 85.4485 290.487 84.7099C289.649 83.9712 288.456 83.6019 286.907 83.6019C285.274 83.6019 283.974 83.9641 283.008 84.6886C282.042 85.3988 281.403 86.2937 281.091 87.3732L272.696 86.6914C273.122 84.7028 273.96 82.984 275.21 81.5352C276.46 80.0721 278.072 78.9499 280.047 78.1687C282.035 77.3732 284.336 76.9755 286.95 76.9755C288.768 76.9755 290.508 77.1886 292.17 77.6147C293.846 78.0408 295.331 78.7013 296.623 79.5962C297.93 80.4911 298.96 81.6417 299.713 83.0479C300.466 84.44 300.842 86.109 300.842 88.055V110.129H292.234V105.591H291.978C291.453 106.613 290.75 107.515 289.869 108.297C288.988 109.064 287.93 109.667 286.694 110.108C285.458 110.534 284.031 110.747 282.412 110.747ZM285.011 104.483C286.346 104.483 287.525 104.22 288.548 103.694C289.571 103.154 290.373 102.43 290.956 101.521C291.538 100.612 291.829 99.582 291.829 98.4315V94.9585C291.545 95.1431 291.154 95.3136 290.657 95.4698C290.174 95.6119 289.627 95.7468 289.017 95.8746C288.406 95.9883 287.795 96.0948 287.184 96.1942C286.574 96.2795 286.02 96.3576 285.522 96.4286C284.457 96.5849 283.527 96.8335 282.731 97.1744C281.936 97.5153 281.318 97.9769 280.877 98.5593C280.437 99.1275 280.217 99.8377 280.217 100.69C280.217 101.926 280.664 102.87 281.559 103.524C282.468 104.163 283.619 104.483 285.011 104.483ZM307.884 122.402V77.4016H316.833V82.8988H317.238C317.635 82.0181 318.211 81.1232 318.963 80.2141C319.73 79.2908 320.725 78.5238 321.946 77.913C323.182 77.288 324.716 76.9755 326.549 76.9755C328.935 76.9755 331.137 77.6005 333.154 78.8505C335.171 80.0863 336.783 81.9542 337.99 84.4542C339.198 86.94 339.801 90.0579 339.801 93.8079C339.801 97.4585 339.212 100.541 338.033 103.055C336.868 105.555 335.277 107.451 333.26 108.744C331.257 110.022 329.013 110.662 326.527 110.662C324.766 110.662 323.267 110.37 322.032 109.788C320.81 109.206 319.809 108.474 319.027 107.593C318.246 106.699 317.65 105.797 317.238 104.887H316.961V122.402H307.884ZM316.769 93.7653C316.769 95.7113 317.039 97.4087 317.578 98.8576C318.118 100.306 318.9 101.436 319.922 102.245C320.945 103.041 322.188 103.439 323.651 103.439C325.128 103.439 326.378 103.034 327.401 102.224C328.424 101.4 329.198 100.264 329.723 98.815C330.263 97.3519 330.533 95.6687 330.533 93.7653C330.533 91.8761 330.27 90.2141 329.745 88.7795C329.219 87.3448 328.445 86.2227 327.422 85.413C326.4 84.6033 325.142 84.1985 323.651 84.1985C322.174 84.1985 320.924 84.5891 319.901 85.3704C318.892 86.1516 318.118 87.2596 317.578 88.6942C317.039 90.1289 316.769 91.8192 316.769 93.7653ZM345.853 110.129V77.4016H354.929V110.129H345.853ZM350.412 73.1829C349.063 73.1829 347.905 72.7354 346.939 71.8406C345.988 70.9315 345.512 69.8448 345.512 68.5806C345.512 67.3306 345.988 66.2582 346.939 65.3633C347.905 64.4542 349.063 63.9996 350.412 63.9996C351.762 63.9996 352.912 64.4542 353.864 65.3633C354.83 66.2582 355.313 67.3306 355.313 68.5806C355.313 69.8448 354.83 70.9315 353.864 71.8406C352.912 72.7354 351.762 73.1829 350.412 73.1829ZM379.608 77.4016V84.2198H359.899V77.4016H379.608ZM364.374 69.5607H373.45V100.072C373.45 100.91 373.578 101.564 373.834 102.032C374.089 102.487 374.445 102.806 374.899 102.991C375.368 103.176 375.908 103.268 376.518 103.268C376.945 103.268 377.371 103.233 377.797 103.162C378.223 103.076 378.55 103.012 378.777 102.97L380.205 109.724C379.75 109.866 379.111 110.029 378.287 110.214C377.463 110.413 376.462 110.534 375.283 110.576C373.095 110.662 371.178 110.37 369.53 109.703C367.896 109.035 366.625 107.998 365.716 106.592C364.807 105.186 364.359 103.41 364.374 101.265V69.5607ZM394.853 110.747C392.765 110.747 390.904 110.385 389.271 109.66C387.637 108.922 386.344 107.835 385.393 106.4C384.455 104.951 383.987 103.147 383.987 100.988C383.987 99.1701 384.32 97.6431 384.988 96.4073C385.656 95.1715 386.565 94.1772 387.715 93.4244C388.866 92.6715 390.173 92.1033 391.636 91.7198C393.113 91.3363 394.661 91.0664 396.281 90.9102C398.184 90.7113 399.718 90.5266 400.883 90.3562C402.048 90.1715 402.893 89.9016 403.418 89.5465C403.944 89.1914 404.207 88.6658 404.207 87.9698V87.842C404.207 86.4925 403.781 85.4485 402.928 84.7099C402.09 83.9712 400.897 83.6019 399.349 83.6019C397.715 83.6019 396.415 83.9641 395.45 84.6886C394.484 85.3988 393.844 86.2937 393.532 87.3732L385.137 86.6914C385.563 84.7028 386.401 82.984 387.651 81.5352C388.901 80.0721 390.513 78.9499 392.488 78.1687C394.477 77.3732 396.778 76.9755 399.391 76.9755C401.21 76.9755 402.95 77.1886 404.612 77.6147C406.288 78.0408 407.772 78.7013 409.065 79.5962C410.371 80.4911 411.401 81.6417 412.154 83.0479C412.907 84.44 413.283 86.109 413.283 88.055V110.129H404.675V105.591H404.42C403.894 106.613 403.191 107.515 402.31 108.297C401.43 109.064 400.371 109.667 399.136 110.108C397.9 110.534 396.472 110.747 394.853 110.747ZM397.452 104.483C398.788 104.483 399.967 104.22 400.989 103.694C402.012 103.154 402.815 102.43 403.397 101.521C403.979 100.612 404.271 99.582 404.271 98.4315V94.9585C403.987 95.1431 403.596 95.3136 403.099 95.4698C402.616 95.6119 402.069 95.7468 401.458 95.8746C400.847 95.9883 400.237 96.0948 399.626 96.1942C399.015 96.2795 398.461 96.3576 397.964 96.4286C396.898 96.5849 395.968 96.8335 395.173 97.1744C394.377 97.5153 393.759 97.9769 393.319 98.5593C392.879 99.1275 392.658 99.8377 392.658 100.69C392.658 101.926 393.106 102.87 394.001 103.524C394.91 104.163 396.06 104.483 397.452 104.483ZM429.402 66.4925V110.129H420.325V66.4925H429.402Z" fill="white" fill-opacity="0.8"/>
<path d="M150.144 46.1289V2.49254H167.36C170.67 2.49254 173.489 3.12464 175.819 4.38885C178.148 5.63885 179.924 7.37891 181.146 9.60902C182.381 11.8249 182.999 14.3817 182.999 17.2795C182.999 20.1772 182.374 22.734 181.124 24.9499C179.874 27.1658 178.063 28.8917 175.691 30.1275C173.333 31.3633 170.478 31.9812 167.126 31.9812H156.153V24.5877H165.634C167.41 24.5877 168.873 24.2823 170.023 23.6715C171.188 23.0465 172.055 22.1871 172.623 21.0934C173.205 19.9854 173.496 18.7141 173.496 17.2795C173.496 15.8306 173.205 14.5664 172.623 13.4869C172.055 12.3931 171.188 11.5479 170.023 10.9513C168.859 10.3406 167.381 10.0352 165.592 10.0352H159.37V46.1289H150.144ZM197.275 46.7468C195.187 46.7468 193.326 46.3846 191.692 45.6602C190.059 44.9215 188.766 43.8349 187.815 42.4002C186.877 40.9513 186.408 39.1474 186.408 36.9883C186.408 35.1701 186.742 33.6431 187.41 32.4073C188.077 31.1715 188.987 30.1772 190.137 29.4244C191.288 28.6715 192.594 28.1033 194.058 27.7198C195.535 27.3363 197.083 27.0664 198.702 26.9102C200.606 26.7113 202.14 26.5266 203.305 26.3562C204.469 26.1715 205.315 25.9016 205.84 25.5465C206.366 25.1914 206.629 24.6658 206.629 23.9698V23.842C206.629 22.4925 206.202 21.4485 205.35 20.7099C204.512 19.9712 203.319 19.6019 201.771 19.6019C200.137 19.6019 198.837 19.9641 197.871 20.6886C196.906 21.3988 196.266 22.2937 195.954 23.3732L187.559 22.6914C187.985 20.7028 188.823 18.984 190.073 17.5352C191.323 16.0721 192.935 14.9499 194.91 14.1687C196.898 13.3732 199.2 12.9755 201.813 12.9755C203.631 12.9755 205.371 13.1886 207.033 13.6147C208.71 14.0408 210.194 14.7013 211.487 15.5962C212.793 16.4911 213.823 17.6417 214.576 19.0479C215.329 20.44 215.705 22.109 215.705 24.055V46.1289H207.097V41.5906H206.842C206.316 42.6133 205.613 43.5153 204.732 44.2965C203.852 45.0636 202.793 45.6673 201.558 46.1076C200.322 46.5337 198.894 46.7468 197.275 46.7468ZM199.874 40.4826C201.21 40.4826 202.388 40.2198 203.411 39.6942C204.434 39.1545 205.237 38.43 205.819 37.521C206.401 36.6119 206.692 35.582 206.692 34.4315V30.9585C206.408 31.1431 206.018 31.3136 205.521 31.4698C205.038 31.6119 204.491 31.7468 203.88 31.8746C203.269 31.9883 202.658 32.0948 202.048 32.1942C201.437 32.2795 200.883 32.3576 200.386 32.4286C199.32 32.5849 198.39 32.8335 197.594 33.1744C196.799 33.5153 196.181 33.9769 195.741 34.5593C195.3 35.1275 195.08 35.8377 195.08 36.69C195.08 37.9258 195.528 38.8704 196.423 39.5238C197.332 40.163 198.482 40.4826 199.874 40.4826ZM222.747 46.1289V13.4016H231.547V19.1119H231.888C232.484 17.0806 233.486 15.5465 234.892 14.5096C236.298 13.4585 237.918 12.9329 239.75 12.9329C240.205 12.9329 240.695 12.9613 241.22 13.0181C241.746 13.0749 242.207 13.1531 242.605 13.2525V21.3065C242.179 21.1786 241.589 21.065 240.837 20.9656C240.084 20.8661 239.395 20.8164 238.77 20.8164C237.435 20.8164 236.241 21.1076 235.19 21.69C234.153 22.2582 233.33 23.0536 232.719 24.0763C232.122 25.0991 231.824 26.2781 231.824 27.6133V46.1289H222.747ZM266.346 13.4016V20.2198H246.637V13.4016H266.346ZM251.112 5.56072H260.189V36.0721C260.189 36.9102 260.316 37.5636 260.572 38.0323C260.828 38.4869 261.183 38.8065 261.637 38.9911C262.106 39.1758 262.646 39.2681 263.257 39.2681C263.683 39.2681 264.109 39.2326 264.535 39.1616C264.961 39.0763 265.288 39.0124 265.515 38.9698L266.943 45.7241C266.488 45.8661 265.849 46.0295 265.025 46.2141C264.201 46.413 263.2 46.5337 262.021 46.5763C259.833 46.6616 257.916 46.3704 256.268 45.7028C254.635 45.0352 253.363 43.9982 252.454 42.592C251.545 41.1857 251.098 39.4102 251.112 37.2653V5.56072ZM281.336 27.2085V46.1289H272.259V13.4016H280.909V19.1758H281.293C282.017 17.2724 283.232 15.7667 284.936 14.6587C286.641 13.5366 288.708 12.9755 291.137 12.9755C293.409 12.9755 295.391 13.4727 297.081 14.467C298.772 15.4613 300.086 16.8817 301.023 18.7283C301.961 20.5607 302.429 22.7482 302.429 25.2908V46.1289H293.353V26.9102C293.367 24.9073 292.855 23.3448 291.819 22.2227C290.782 21.0863 289.354 20.5181 287.536 20.5181C286.314 20.5181 285.235 20.7809 284.297 21.3065C283.374 21.832 282.65 22.5991 282.124 23.6076C281.613 24.6019 281.35 25.8022 281.336 27.2085ZM324.498 46.7681C321.131 46.7681 318.234 46.0863 315.805 44.7227C313.39 43.3448 311.529 41.3988 310.222 38.8846C308.915 36.3562 308.262 33.3661 308.262 29.9144C308.262 26.5479 308.915 23.5934 310.222 21.0508C311.529 18.5082 313.369 16.5266 315.741 15.1062C318.127 13.6857 320.925 12.9755 324.136 12.9755C326.295 12.9755 328.305 13.3235 330.165 14.0195C332.04 14.7013 333.674 15.7312 335.066 17.109C336.472 18.4869 337.566 20.2198 338.347 22.3079C339.129 24.3817 339.519 26.8107 339.519 29.5948V32.0877H311.884V26.4627H330.975C330.975 25.1559 330.691 23.9982 330.123 22.9897C329.555 21.9812 328.766 21.1928 327.758 20.6246C326.763 20.0423 325.606 19.7511 324.285 19.7511C322.907 19.7511 321.685 20.0707 320.62 20.7099C319.569 21.3349 318.745 22.18 318.148 23.2454C317.552 24.2965 317.246 25.4684 317.232 26.761V32.109C317.232 33.7283 317.531 35.1275 318.127 36.3065C318.738 37.4854 319.597 38.3945 320.705 39.0337C321.813 39.6729 323.127 39.9925 324.647 39.9925C325.656 39.9925 326.579 39.8505 327.417 39.5664C328.255 39.2823 328.972 38.8562 329.569 38.288C330.165 37.7198 330.62 37.0238 330.933 36.1999L339.327 36.7539C338.901 38.771 338.028 40.5323 336.707 42.038C335.4 43.5295 333.71 44.6942 331.636 45.5323C329.576 46.3562 327.197 46.7681 324.498 46.7681ZM345.442 46.1289V13.4016H354.242V19.1119H354.583C355.18 17.0806 356.181 15.5465 357.587 14.5096C358.994 13.4585 360.613 12.9329 362.445 12.9329C362.9 12.9329 363.39 12.9613 363.915 13.0181C364.441 13.0749 364.903 13.1531 365.3 13.2525V21.3065C364.874 21.1786 364.285 21.065 363.532 20.9656C362.779 20.8661 362.09 20.8164 361.465 20.8164C360.13 20.8164 358.937 21.1076 357.886 21.69C356.849 22.2582 356.025 23.0536 355.414 24.0763C354.817 25.0991 354.519 26.2781 354.519 27.6133V46.1289H345.442Z" fill="white"/>
</svg>
