<svg width="300" height="80" viewBox="0 0 300 80" fill="none" xmlns="http://www.w3.org/2000/svg">
<path d="M7.4913 27.6777L-0.000177532 1.49592H6.0467L10.3805 19.6877H10.5978L15.3791 1.49592H20.5566L25.3251 19.726H25.5552L29.889 1.49592H35.9359L28.4444 27.6777H23.0495L18.0637 10.5598H17.8592L12.8862 27.6777H7.4913ZM43.5224 16.3255V27.6777H38.0763V1.49592H43.369V11.5059H43.5991C44.0423 10.3468 44.7582 9.4391 45.7468 8.78285C46.7354 8.11807 47.9755 7.78569 49.467 7.78569C50.8306 7.78569 52.0195 8.08398 53.0337 8.68057C54.0565 9.26864 54.8491 10.1167 55.4116 11.2246C55.9826 12.324 56.2638 13.6408 56.2553 15.1749V27.6777H50.8093V16.1465C50.8178 14.9363 50.511 13.9945 49.8888 13.3212C49.2752 12.6479 48.4144 12.3113 47.3065 12.3113C46.565 12.3113 45.9087 12.4689 45.3377 12.7843C44.7752 13.0996 44.332 13.5598 44.0082 14.1649C43.6928 14.7615 43.5309 15.4817 43.5224 16.3255ZM62.4803 35.0414C61.7899 35.0414 61.1422 34.986 60.5371 34.8752C59.9405 34.7729 59.4462 34.6408 59.0541 34.4789L60.2814 30.4135C60.9206 30.6096 61.4959 30.7161 62.0073 30.7331C62.5272 30.7502 62.9746 30.6309 63.3496 30.3752C63.7331 30.1195 64.0442 29.6848 64.2828 29.0712L64.6024 28.2402L57.5584 8.04137H63.2857L67.351 22.4618H67.5556L71.6593 8.04137H77.4249L69.7928 29.7999C69.4263 30.8567 68.9277 31.7772 68.297 32.5613C67.6749 33.3539 66.8865 33.9632 65.932 34.3894C64.9774 34.824 63.8269 35.0414 62.4803 35.0414ZM227.683 27.6777L220.192 1.49592H226.239L230.573 19.6877H230.79L235.571 1.49592H240.749L245.517 19.726H245.747L250.081 1.49592H256.128L248.636 27.6777H243.242L238.256 10.5598H238.051L233.078 27.6777H227.683ZM258.268 27.6777V8.04137H263.714V27.6777H258.268ZM261.004 5.51012C260.195 5.51012 259.5 5.24165 258.92 4.70472C258.349 4.15927 258.064 3.50728 258.064 2.74876C258.064 1.99876 258.349 1.35529 258.92 0.818359C259.5 0.272904 260.195 0.000176191 261.004 0.000176191C261.814 0.000176191 262.504 0.272904 263.075 0.818359C263.655 1.35529 263.945 1.99876 263.945 2.74876C263.945 3.50728 263.655 4.15927 263.075 4.70472C262.504 5.24165 261.814 5.51012 261.004 5.51012ZM277.802 8.04137V12.1323H265.976V8.04137H277.802ZM268.661 3.33682H274.107V21.6436C274.107 22.1465 274.184 22.5385 274.337 22.8198C274.491 23.0925 274.704 23.2843 274.976 23.3951C275.258 23.5059 275.581 23.5613 275.948 23.5613C276.204 23.5613 276.459 23.54 276.715 23.4973C276.971 23.4462 277.167 23.4078 277.303 23.3823L278.16 27.4348C277.887 27.5201 277.503 27.6181 277.009 27.7289C276.515 27.8482 275.914 27.9206 275.206 27.9462C273.894 27.9973 272.743 27.8226 271.755 27.4221C270.775 27.0215 270.012 26.3993 269.466 25.5556C268.921 24.7118 268.652 23.6465 268.661 22.3596V3.33682ZM286.497 16.3255V27.6777H281.051V1.49592H286.344V11.5059H286.574C287.017 10.3468 287.733 9.4391 288.721 8.78285C289.71 8.11807 290.95 7.78569 292.442 7.78569C293.805 7.78569 294.994 8.08398 296.008 8.68057C297.031 9.26864 297.824 10.1167 298.386 11.2246C298.957 12.324 299.239 13.6408 299.23 15.1749V27.6777H293.784V16.1465C293.793 14.9363 293.486 13.9945 292.864 13.3212C292.25 12.6479 291.389 12.3113 290.281 12.3113C289.54 12.3113 288.883 12.4689 288.312 12.7843C287.75 13.0996 287.307 13.5598 286.983 14.1649C286.668 14.7615 286.506 15.4817 286.497 16.3255ZM1.59783 71.6777V45.4959H12.0808C14.0069 45.4959 15.6135 45.7814 16.9004 46.3524C18.1873 46.9235 19.1547 47.7161 19.8024 48.7303C20.4501 49.736 20.774 50.8951 20.774 52.2076C20.774 53.2303 20.5694 54.1294 20.1603 54.905C19.7512 55.6721 19.1887 56.3027 18.4728 56.7971C17.7654 57.2828 16.9558 57.628 16.0439 57.8326V58.0882C17.041 58.1309 17.9743 58.4121 18.8436 58.932C19.7214 59.4519 20.4331 60.1806 20.9785 61.1181C21.524 62.0471 21.7967 63.155 21.7967 64.4419C21.7967 65.8311 21.4515 67.0712 20.7612 68.1621C20.0794 69.2445 19.0694 70.101 17.7314 70.7317C16.3933 71.3624 14.7441 71.6777 12.7839 71.6777H1.59783ZM7.13335 67.1522H11.6461C13.1887 67.1522 14.3137 66.8581 15.0211 66.2701C15.7285 65.6735 16.0822 64.8809 16.0822 63.8922C16.0822 63.1678 15.9075 62.5286 15.5581 61.9746C15.2086 61.4206 14.7101 60.986 14.0623 60.6706C13.4231 60.3553 12.6603 60.1976 11.774 60.1976H7.13335V67.1522ZM7.13335 56.4519H11.237C11.9956 56.4519 12.6689 56.3198 13.2569 56.0556C13.8535 55.7828 14.3223 55.3993 14.6632 54.905C15.0126 54.4107 15.1873 53.8184 15.1873 53.128C15.1873 52.182 14.8507 51.4192 14.1774 50.8397C13.5126 50.2601 12.5666 49.9703 11.3393 49.9703H7.13335V56.4519ZM37.1687 63.3169V52.0414H42.6147V71.6777H37.386V68.111H37.1815C36.7383 69.2615 36.0011 70.1863 34.9698 70.8851C33.9471 71.584 32.6985 71.9334 31.2241 71.9334C29.9116 71.9334 28.7567 71.6351 27.7596 71.0385C26.7624 70.4419 25.9826 69.5939 25.4201 68.4945C24.8661 67.3951 24.5849 66.0783 24.5763 64.5442V52.0414H30.0224V63.5726C30.0309 64.7317 30.342 65.6479 30.9556 66.3212C31.5692 66.9945 32.3917 67.3311 33.4229 67.3311C34.0792 67.3311 34.6928 67.182 35.2638 66.8837C35.8349 66.5769 36.2951 66.1252 36.6445 65.5286C37.0025 64.932 37.1772 64.1948 37.1687 63.3169ZM46.2509 71.6777V52.0414H51.5307V55.4675H51.7353C52.0932 54.2488 52.6941 53.3283 53.5378 52.7061C54.3816 52.0755 55.3531 51.7601 56.4526 51.7601C56.7253 51.7601 57.0193 51.7772 57.3347 51.8113C57.65 51.8453 57.927 51.8922 58.1656 51.9519V56.7843C57.91 56.7076 57.5563 56.6394 57.1046 56.5797C56.6529 56.5201 56.2395 56.4902 55.8645 56.4902C55.0634 56.4902 54.3475 56.665 53.7168 57.0144C53.0946 57.3553 52.6003 57.8326 52.2338 58.4462C51.8759 59.0598 51.6969 59.7672 51.6969 60.5684V71.6777H46.2509ZM60.2613 71.6777V52.0414H65.5412V55.4675H65.7457C66.1037 54.2488 66.7045 53.3283 67.5483 52.7061C68.392 52.0755 69.3636 51.7601 70.463 51.7601C70.7358 51.7601 71.0298 51.7772 71.3451 51.8113C71.6605 51.8453 71.9375 51.8922 72.1761 51.9519V56.7843C71.9204 56.7076 71.5667 56.6394 71.115 56.5797C70.6633 56.5201 70.25 56.4902 69.875 56.4902C69.0738 56.4902 68.3579 56.665 67.7273 57.0144C67.1051 57.3553 66.6108 57.8326 66.2443 58.4462C65.8863 59.0598 65.7074 59.7672 65.7074 60.5684V71.6777H60.2613ZM82.2299 72.0613C80.2441 72.0613 78.5268 71.6394 77.0779 70.7956C75.6376 69.9434 74.5254 68.7587 73.7413 67.2417C72.9572 65.7161 72.5651 63.9476 72.5651 61.9363C72.5651 59.9078 72.9572 58.1351 73.7413 56.6181C74.5254 55.0925 75.6376 53.9078 77.0779 53.0641C78.5268 52.2118 80.2441 51.7857 82.2299 51.7857C84.2157 51.7857 85.9288 52.2118 87.3691 53.0641C88.818 53.9078 89.9345 55.0925 90.7185 56.6181C91.5026 58.1351 91.8947 59.9078 91.8947 61.9363C91.8947 63.9476 91.5026 65.7161 90.7185 67.2417C89.9345 68.7587 88.818 69.9434 87.3691 70.7956C85.9288 71.6394 84.2157 72.0613 82.2299 72.0613ZM82.2555 67.8425C83.1589 67.8425 83.9131 67.5868 84.5183 67.0755C85.1234 66.5556 85.5793 65.8482 85.8862 64.9533C86.2015 64.0584 86.3592 63.0399 86.3592 61.8979C86.3592 60.7559 86.2015 59.7374 85.8862 58.8425C85.5793 57.9476 85.1234 57.2402 84.5183 56.7203C83.9131 56.2005 83.1589 55.9405 82.2555 55.9405C81.3435 55.9405 80.5765 56.2005 79.9543 56.7203C79.3407 57.2402 78.8762 57.9476 78.5609 58.8425C78.2541 59.7374 78.1006 60.7559 78.1006 61.8979C78.1006 63.0399 78.2541 64.0584 78.5609 64.9533C78.8762 65.8482 79.3407 66.5556 79.9543 67.0755C80.5765 67.5868 81.3435 67.8425 82.2555 67.8425ZM98.0973 71.6777L92.7535 52.0414H98.2635L101.306 65.2346H101.485L104.656 52.0414H110.063L113.285 65.1578H113.451L116.442 52.0414H121.94L116.609 71.6777H110.843L107.468 59.3283H107.225L103.85 71.6777H98.0973ZM154.94 54.6621H149.341C149.238 53.9377 149.029 53.2942 148.714 52.7317C148.399 52.1607 147.994 51.6749 147.5 51.2743C147.005 50.8738 146.434 50.5669 145.787 50.3539C145.147 50.1408 144.453 50.0343 143.703 50.0343C142.348 50.0343 141.167 50.3709 140.162 51.0442C139.156 51.709 138.376 52.6806 137.822 53.959C137.268 55.2289 136.991 56.7715 136.991 58.5868C136.991 60.4533 137.268 62.0215 137.822 63.2914C138.385 64.5613 139.169 65.5201 140.174 66.1678C141.18 66.8155 142.343 67.1394 143.664 67.1394C144.406 67.1394 145.092 67.0414 145.723 66.8453C146.362 66.6493 146.929 66.3638 147.423 65.9888C147.917 65.6053 148.326 65.1408 148.65 64.5953C148.983 64.0499 149.213 63.4277 149.341 62.7289L154.94 62.7544C154.795 63.9561 154.433 65.1152 153.853 66.2317C153.282 67.3397 152.511 68.3326 151.539 69.2104C150.576 70.0797 149.426 70.7701 148.088 71.2814C146.758 71.7843 145.254 72.0357 143.575 72.0357C141.24 72.0357 139.152 71.5073 137.311 70.4505C135.478 69.3936 134.029 67.8638 132.964 65.861C131.907 63.8581 131.379 61.4334 131.379 58.5868C131.379 55.7317 131.916 53.3027 132.99 51.2999C134.064 49.2971 135.521 47.7715 137.362 46.7232C139.203 45.6664 141.274 45.138 143.575 45.138C145.092 45.138 146.498 45.351 147.794 45.7772C149.098 46.2033 150.252 46.8255 151.258 47.6436C152.264 48.4533 153.082 49.4462 153.713 50.6223C154.352 51.7985 154.761 53.1451 154.94 54.6621ZM163.687 72.0485C162.434 72.0485 161.317 71.8311 160.337 71.3965C159.357 70.9533 158.581 70.3013 158.01 69.4405C157.448 68.5712 157.167 67.4888 157.167 66.1934C157.167 65.1025 157.367 64.1863 157.768 63.4448C158.168 62.7033 158.714 62.1067 159.404 61.655C160.094 61.2033 160.878 60.8624 161.756 60.6323C162.643 60.4022 163.572 60.2402 164.543 60.1465C165.685 60.0272 166.606 59.9164 167.304 59.8141C168.003 59.7033 168.51 59.5414 168.826 59.3283C169.141 59.1152 169.299 58.7999 169.299 58.3823V58.3056C169.299 57.4959 169.043 56.8695 168.532 56.4263C168.029 55.9831 167.313 55.7615 166.384 55.7615C165.404 55.7615 164.624 55.9789 164.045 56.4135C163.465 56.8397 163.081 57.3766 162.894 58.0243L157.857 57.6152C158.113 56.4221 158.616 55.3908 159.366 54.5215C160.116 53.6436 161.083 52.9703 162.268 52.5016C163.461 52.0243 164.841 51.7857 166.41 51.7857C167.5 51.7857 168.545 51.9135 169.542 52.1692C170.547 52.4249 171.438 52.8212 172.214 53.3581C172.998 53.8951 173.616 54.5854 174.067 55.4292C174.519 56.2644 174.745 57.2658 174.745 58.4334V71.6777H169.58V68.9547H169.427C169.111 69.5684 168.689 70.1096 168.161 70.5783C167.633 71.0385 166.998 71.4007 166.256 71.665C165.515 71.9206 164.658 72.0485 163.687 72.0485ZM165.246 68.29C166.047 68.29 166.755 68.1323 167.368 67.8169C167.982 67.4931 168.464 67.0584 168.813 66.513C169.162 65.9675 169.337 65.3496 169.337 64.6593V62.5755C169.167 62.6863 168.932 62.7885 168.634 62.8823C168.344 62.9675 168.016 63.0485 167.65 63.1252C167.283 63.1934 166.917 63.2573 166.55 63.3169C166.184 63.3681 165.851 63.415 165.553 63.4576C164.914 63.5513 164.356 63.7005 163.878 63.905C163.401 64.1096 163.03 64.3865 162.766 64.736C162.502 65.0769 162.37 65.503 162.37 66.0144C162.37 66.7559 162.638 67.3226 163.175 67.7147C163.721 68.0982 164.411 68.29 165.246 68.29ZM178.25 79.0414V52.0414H183.619V55.3397H183.862C184.101 54.8113 184.446 54.2743 184.898 53.7289C185.358 53.1749 185.954 52.7147 186.687 52.3482C187.429 51.9732 188.349 51.7857 189.449 51.7857C190.881 51.7857 192.202 52.1607 193.412 52.9107C194.622 53.6522 195.589 54.7729 196.314 56.2729C197.038 57.7644 197.401 59.6351 197.401 61.8851C197.401 64.0755 197.047 65.9249 196.339 67.4334C195.641 68.9334 194.686 70.0712 193.476 70.8468C192.274 71.6138 190.927 71.9973 189.436 71.9973C188.379 71.9973 187.48 71.8226 186.739 71.4732C186.006 71.1238 185.405 70.6848 184.936 70.1564C184.467 69.6195 184.109 69.0783 183.862 68.5328H183.696V79.0414H178.25ZM183.581 61.8596C183.581 63.0272 183.743 64.0456 184.067 64.9149C184.391 65.7843 184.859 66.4618 185.473 66.9476C186.087 67.4249 186.832 67.6635 187.71 67.6635C188.597 67.6635 189.347 67.4206 189.96 66.9348C190.574 66.4405 191.038 65.7587 191.354 64.8894C191.677 64.0115 191.839 63.0016 191.839 61.8596C191.839 60.726 191.682 59.7289 191.366 58.8681C191.051 58.0073 190.587 57.334 189.973 56.8482C189.359 56.3624 188.605 56.1195 187.71 56.1195C186.824 56.1195 186.074 56.3539 185.46 56.8226C184.855 57.2914 184.391 57.9561 184.067 58.8169C183.743 59.6777 183.581 60.6919 183.581 61.8596ZM200.311 71.6777V52.0414H205.757V71.6777H200.311ZM203.047 49.5101C202.237 49.5101 201.543 49.2417 200.963 48.7047C200.392 48.1593 200.107 47.5073 200.107 46.7488C200.107 45.9988 200.392 45.3553 200.963 44.8184C201.543 44.2729 202.237 44.0002 203.047 44.0002C203.857 44.0002 204.547 44.2729 205.118 44.8184C205.698 45.3553 205.987 45.9988 205.987 46.7488C205.987 47.5073 205.698 48.1593 205.118 48.7047C204.547 49.2417 203.857 49.5101 203.047 49.5101ZM219.844 52.0414V56.1323H208.019V52.0414H219.844ZM210.704 47.3368H216.15V65.6436C216.15 66.1465 216.226 66.5385 216.38 66.8198C216.533 67.0925 216.746 67.2843 217.019 67.3951C217.3 67.5059 217.624 67.5613 217.991 67.5613C218.246 67.5613 218.502 67.54 218.758 67.4973C219.013 67.4462 219.209 67.4078 219.346 67.3823L220.202 71.4348C219.93 71.5201 219.546 71.6181 219.052 71.7289C218.557 71.8482 217.957 71.9206 217.249 71.9462C215.937 71.9973 214.786 71.8226 213.798 71.4221C212.817 71.0215 212.055 70.3993 211.509 69.5556C210.964 68.7118 210.695 67.6465 210.704 66.3596V47.3368ZM228.271 72.0485C227.019 72.0485 225.902 71.8311 224.922 71.3965C223.942 70.9533 223.166 70.3013 222.595 69.4405C222.033 68.5712 221.752 67.4888 221.752 66.1934C221.752 65.1025 221.952 64.1863 222.352 63.4448C222.753 62.7033 223.298 62.1067 223.989 61.655C224.679 61.2033 225.463 60.8624 226.341 60.6323C227.227 60.4022 228.156 60.2402 229.128 60.1465C230.27 60.0272 231.19 59.9164 231.889 59.8141C232.588 59.7033 233.095 59.5414 233.411 59.3283C233.726 59.1152 233.884 58.7999 233.884 58.3823V58.3056C233.884 57.4959 233.628 56.8695 233.117 56.4263C232.614 55.9831 231.898 55.7615 230.969 55.7615C229.989 55.7615 229.209 55.9789 228.629 56.4135C228.05 56.8397 227.666 57.3766 227.479 58.0243L222.442 57.6152C222.698 56.4221 223.2 55.3908 223.95 54.5215C224.7 53.6436 225.668 52.9703 226.852 52.5016C228.046 52.0243 229.426 51.7857 230.994 51.7857C232.085 51.7857 233.129 51.9135 234.127 52.1692C235.132 52.4249 236.023 52.8212 236.798 53.3581C237.582 53.8951 238.2 54.5854 238.652 55.4292C239.104 56.2644 239.33 57.2658 239.33 58.4334V71.6777H234.165V68.9547H234.011C233.696 69.5684 233.274 70.1096 232.746 70.5783C232.217 71.0385 231.582 71.4007 230.841 71.665C230.1 71.9206 229.243 72.0485 228.271 72.0485ZM229.831 68.29C230.632 68.29 231.34 68.1323 231.953 67.8169C232.567 67.4931 233.048 67.0584 233.398 66.513C233.747 65.9675 233.922 65.3496 233.922 64.6593V62.5755C233.752 62.6863 233.517 62.7885 233.219 62.8823C232.929 62.9675 232.601 63.0485 232.234 63.1252C231.868 63.1934 231.502 63.2573 231.135 63.3169C230.769 63.3681 230.436 63.415 230.138 63.4576C229.499 63.5513 228.94 63.7005 228.463 63.905C227.986 64.1096 227.615 64.3865 227.351 64.736C227.087 65.0769 226.955 65.503 226.955 66.0144C226.955 66.7559 227.223 67.3226 227.76 67.7147C228.305 68.0982 228.996 68.29 229.831 68.29ZM248.281 45.4959V71.6777H242.835V45.4959H248.281Z" fill="white" fill-opacity="0.8"/>
<path d="M87.2061 27.6777V1.49592H97.5357C99.5215 1.49592 101.213 1.87518 102.611 2.6337C104.009 3.3837 105.074 4.42773 105.807 5.7658C106.548 7.09535 106.919 8.62944 106.919 10.3681C106.919 12.1067 106.544 13.6408 105.794 14.9703C105.044 16.2999 103.958 17.3354 102.534 18.0769C101.119 18.8184 99.4064 19.1891 97.395 19.1891H90.8112V14.753H96.5002C97.5655 14.753 98.4433 14.5698 99.1337 14.2033C99.8325 13.8283 100.352 13.3127 100.693 12.6564C101.043 11.9917 101.217 11.2289 101.217 10.3681C101.217 9.49876 101.043 8.74023 100.693 8.09251C100.352 7.43626 99.8325 6.92915 99.1337 6.5712C98.4348 6.20472 97.5484 6.02148 96.4746 6.02148H92.7416V27.6777H87.2061ZM114.765 28.0485C113.512 28.0485 112.395 27.8311 111.415 27.3965C110.435 26.9533 109.659 26.3013 109.088 25.4405C108.526 24.5712 108.245 23.4888 108.245 22.1934C108.245 21.1025 108.445 20.1863 108.845 19.4448C109.246 18.7033 109.792 18.1067 110.482 17.655C111.172 17.2033 111.956 16.8624 112.834 16.6323C113.72 16.4022 114.649 16.2402 115.621 16.1465C116.763 16.0272 117.684 15.9164 118.382 15.8141C119.081 15.7033 119.588 15.5414 119.904 15.3283C120.219 15.1152 120.377 14.7999 120.377 14.3823V14.3056C120.377 13.4959 120.121 12.8695 119.61 12.4263C119.107 11.9831 118.391 11.7615 117.462 11.7615C116.482 11.7615 115.702 11.9789 115.122 12.4135C114.543 12.8397 114.159 13.3766 113.972 14.0243L108.935 13.6152C109.191 12.4221 109.694 11.3908 110.444 10.5215C111.194 9.64364 112.161 8.97035 113.345 8.5016C114.539 8.02432 115.919 7.78569 117.488 7.78569C118.578 7.78569 119.622 7.91353 120.62 8.16921C121.625 8.42489 122.516 8.8212 123.292 9.35813C124.076 9.89506 124.694 10.5854 125.145 11.4292C125.597 12.2644 125.823 13.2658 125.823 14.4334V27.6777H120.658V24.9547H120.505C120.189 25.5684 119.767 26.1096 119.239 26.5783C118.711 27.0385 118.076 27.4007 117.334 27.665C116.593 27.9206 115.736 28.0485 114.765 28.0485ZM116.324 24.29C117.125 24.29 117.833 24.1323 118.446 23.8169C119.06 23.4931 119.542 23.0584 119.891 22.513C120.24 21.9675 120.415 21.3496 120.415 20.6593V18.5755C120.245 18.6863 120.01 18.7885 119.712 18.8823C119.422 18.9675 119.094 19.0485 118.728 19.1252C118.361 19.1934 117.995 19.2573 117.628 19.3169C117.262 19.3681 116.929 19.415 116.631 19.4576C115.992 19.5513 115.434 19.7005 114.956 19.905C114.479 20.1096 114.108 20.3865 113.844 20.736C113.58 21.0769 113.448 21.503 113.448 22.0144C113.448 22.7559 113.716 23.3226 114.253 23.7147C114.799 24.0982 115.489 24.29 116.324 24.29ZM129.328 27.6777V8.04137H134.608V11.4675H134.812C135.17 10.2488 135.771 9.3283 136.615 8.70614C137.459 8.07546 138.43 7.76012 139.53 7.76012C139.802 7.76012 140.096 7.77717 140.412 7.81126C140.727 7.84535 141.004 7.89222 141.243 7.95188V12.7843C140.987 12.7076 140.633 12.6394 140.182 12.5797C139.73 12.5201 139.317 12.4902 138.942 12.4902C138.14 12.4902 137.424 12.665 136.794 13.0144C136.172 13.3553 135.677 13.8326 135.311 14.4462C134.953 15.0598 134.774 15.7672 134.774 16.5684V27.6777H129.328ZM154.767 8.04137V12.1323H142.942V8.04137H154.767ZM145.627 3.33682H151.073V21.6436C151.073 22.1465 151.149 22.5385 151.303 22.8198C151.456 23.0925 151.669 23.2843 151.942 23.3951C152.223 23.5059 152.547 23.5613 152.914 23.5613C153.169 23.5613 153.425 23.54 153.681 23.4973C153.936 23.4462 154.132 23.4078 154.269 23.3823L155.125 27.4348C154.853 27.5201 154.469 27.6181 153.975 27.7289C153.48 27.8482 152.88 27.9206 152.172 27.9462C150.86 27.9973 149.709 27.8226 148.72 27.4221C147.74 27.0215 146.978 26.3993 146.432 25.5556C145.887 24.7118 145.618 23.6465 145.627 22.3596V3.33682ZM163.041 16.3255V27.6777H157.595V8.04137H162.785V11.5059H163.015C163.45 10.3638 164.179 9.4604 165.201 8.79563C166.224 8.12234 167.464 7.78569 168.922 7.78569C170.285 7.78569 171.474 8.08398 172.488 8.68057C173.503 9.27717 174.291 10.1294 174.853 11.2374C175.416 12.3368 175.697 13.6493 175.697 15.1749V27.6777H170.251V16.1465C170.26 14.9448 169.953 14.0073 169.331 13.334C168.709 12.6522 167.852 12.3113 166.761 12.3113C166.028 12.3113 165.38 12.4689 164.818 12.7843C164.264 13.0996 163.829 13.5598 163.514 14.1649C163.207 14.7615 163.049 15.4817 163.041 16.3255ZM188.218 28.0613C186.198 28.0613 184.46 27.6522 183.002 26.834C181.554 26.0073 180.437 24.8397 179.653 23.3311C178.869 21.8141 178.477 20.0201 178.477 17.949C178.477 15.9292 178.869 14.1564 179.653 12.6309C180.437 11.1053 181.541 9.91637 182.964 9.0641C184.396 8.21182 186.075 7.78569 188.001 7.78569C189.296 7.78569 190.502 7.9945 191.619 8.41211C192.744 8.8212 193.724 9.4391 194.559 10.2658C195.403 11.0925 196.059 12.1323 196.528 13.3851C196.997 14.6294 197.231 16.0868 197.231 17.7573V19.253H180.65V15.878H192.105C192.105 15.0939 191.934 14.3993 191.593 13.7942C191.252 13.1891 190.779 12.7161 190.174 12.3752C189.578 12.0257 188.883 11.851 188.09 11.851C187.264 11.851 186.531 12.0428 185.892 12.4263C185.261 12.8013 184.767 13.3084 184.409 13.9476C184.051 14.5783 183.867 15.2814 183.859 16.057V19.2658C183.859 20.2374 184.038 21.0769 184.396 21.7843C184.762 22.4917 185.278 23.0371 185.943 23.4206C186.608 23.8042 187.396 23.9959 188.308 23.9959C188.913 23.9959 189.467 23.9107 189.97 23.7402C190.473 23.5698 190.903 23.3141 191.261 22.9732C191.619 22.6323 191.892 22.2147 192.079 21.7203L197.116 22.0527C196.86 23.263 196.336 24.3198 195.544 25.2232C194.76 26.1181 193.745 26.8169 192.501 27.3198C191.265 27.8141 189.838 28.0613 188.218 28.0613ZM200.065 27.6777V8.04137H205.345V11.4675H205.549C205.907 10.2488 206.508 9.3283 207.352 8.70614C208.196 8.07546 209.167 7.76012 210.267 7.76012C210.54 7.76012 210.834 7.77717 211.149 7.81126C211.464 7.84535 211.741 7.89222 211.98 7.95188V12.7843C211.724 12.7076 211.37 12.6394 210.919 12.5797C210.467 12.5201 210.054 12.4902 209.679 12.4902C208.878 12.4902 208.162 12.665 207.531 13.0144C206.909 13.3553 206.415 13.8326 206.048 14.4462C205.69 15.0598 205.511 15.7672 205.511 16.5684V27.6777H200.065Z" fill="white"/>
</svg>
