<svg width="356" height="47" viewBox="0 0 356 47" fill="none" xmlns="http://www.w3.org/2000/svg">
<path d="M40.8667 24.3107C40.8667 29.0692 39.9647 33.1175 38.1607 36.4556C36.3709 39.7937 33.9277 42.3434 30.8311 44.1048C27.7488 45.8519 24.2828 46.7255 20.4334 46.7255C16.5556 46.7255 13.0755 45.8448 9.99308 44.0835C6.91069 42.3221 4.47461 39.7724 2.68484 36.4343C0.895064 33.0962 0.000177577 29.055 0.000177577 24.3107C0.000177577 19.5522 0.895064 15.5039 2.68484 12.1658C4.47461 8.82777 6.91069 6.28516 9.99308 4.538C13.0755 2.77663 16.5556 1.89595 20.4334 1.89595C24.2828 1.89595 27.7488 2.77663 30.8311 4.538C33.9277 6.28516 36.3709 8.82777 38.1607 12.1658C39.9647 15.5039 40.8667 19.5522 40.8667 24.3107ZM31.513 24.3107C31.513 21.2283 31.0513 18.6289 30.128 16.5124C29.2189 14.396 27.9334 12.7908 26.2715 11.6971C24.6096 10.6033 22.6635 10.0565 20.4334 10.0565C18.2033 10.0565 16.2573 10.6033 14.5953 11.6971C12.9334 12.7908 11.6408 14.396 10.7175 16.5124C9.80842 18.6289 9.35387 21.2283 9.35387 24.3107C9.35387 27.3931 9.80842 29.9925 10.7175 32.109C11.6408 34.2255 12.9334 35.8306 14.5953 36.9244C16.2573 38.0181 18.2033 38.565 20.4334 38.565C22.6635 38.565 24.6096 38.0181 26.2715 36.9244C27.9334 35.8306 29.2189 34.2255 30.128 32.109C31.0513 29.9925 31.513 27.3931 31.513 24.3107ZM67.3176 32.1942V13.4016H76.3943V46.1289H67.6798V40.1843H67.3389C66.6002 42.1019 65.3716 43.6431 63.6528 44.8079C61.9483 45.9727 59.8673 46.555 57.4099 46.555C55.2224 46.555 53.2977 46.0579 51.6358 45.0636C49.9738 44.0692 48.6741 42.6559 47.7366 40.8235C46.8133 38.9911 46.3446 36.7965 46.3304 34.2397V13.4016H55.4071V32.6204C55.4213 34.5522 55.9397 36.0792 56.9625 37.2013C57.9852 38.3235 59.3559 38.8846 61.0747 38.8846C62.1684 38.8846 63.1912 38.636 64.1429 38.1388C65.0946 37.6275 65.8616 36.8746 66.444 35.8803C67.0406 34.886 67.3318 33.6573 67.3176 32.1942ZM82.4546 46.1289V13.4016H91.2543V19.1119H91.5952C92.1918 17.0806 93.1932 15.5465 94.5995 14.5096C96.0057 13.4585 97.625 12.9329 99.4574 12.9329C99.912 12.9329 100.402 12.9613 100.928 13.0181C101.453 13.0749 101.915 13.1531 102.313 13.2525V21.3065C101.886 21.1786 101.297 21.065 100.544 20.9656C99.7912 20.8661 99.1023 20.8164 98.4773 20.8164C97.1421 20.8164 95.9489 21.1076 94.8978 21.69C93.8608 22.2582 93.037 23.0536 92.4262 24.0763C91.8296 25.0991 91.5313 26.2781 91.5313 27.6133V46.1289H82.4546Z" fill="white" fill-opacity="0.8"/>
<path d="M118.663 46.1289V2.49254H135.878C139.188 2.49254 142.008 3.12464 144.337 4.38885C146.667 5.63885 148.442 7.37891 149.664 9.60902C150.9 11.8249 151.518 14.3817 151.518 17.2795C151.518 20.1772 150.893 22.734 149.643 24.9499C148.393 27.1658 146.582 28.8917 144.209 30.1275C141.851 31.3633 138.996 31.9812 135.644 31.9812H124.671V24.5877H134.153C135.928 24.5877 137.391 24.2823 138.542 23.6715C139.707 23.0465 140.573 22.1871 141.141 21.0934C141.724 19.9854 142.015 18.7141 142.015 17.2795C142.015 15.8306 141.724 14.5664 141.141 13.4869C140.573 12.3931 139.707 11.5479 138.542 10.9513C137.377 10.3406 135.9 10.0352 134.11 10.0352H127.888V46.1289H118.663ZM170.399 46.7681C167.09 46.7681 164.227 46.065 161.813 44.6587C159.412 43.2383 157.558 41.2638 156.252 38.7354C154.945 36.1928 154.291 33.2454 154.291 29.8931C154.291 26.5124 154.945 23.5579 156.252 21.0295C157.558 18.4869 159.412 16.5124 161.813 15.1062C164.227 13.6857 167.09 12.9755 170.399 12.9755C173.709 12.9755 176.564 13.6857 178.965 15.1062C181.379 16.5124 183.24 18.4869 184.547 21.0295C185.854 23.5579 186.507 26.5124 186.507 29.8931C186.507 33.2454 185.854 36.1928 184.547 38.7354C183.24 41.2638 181.379 43.2383 178.965 44.6587C176.564 46.065 173.709 46.7681 170.399 46.7681ZM170.442 39.7369C171.948 39.7369 173.205 39.3107 174.213 38.4585C175.222 37.592 175.982 36.413 176.493 34.9215C177.019 33.43 177.281 31.7326 177.281 29.8292C177.281 27.9258 177.019 26.2283 176.493 24.7369C175.982 23.2454 175.222 22.0664 174.213 21.1999C173.205 20.3335 171.948 19.9002 170.442 19.9002C168.922 19.9002 167.644 20.3335 166.607 21.1999C165.584 22.0664 164.81 23.2454 164.284 24.7369C163.773 26.2283 163.517 27.9258 163.517 29.8292C163.517 31.7326 163.773 33.43 164.284 34.9215C164.81 36.413 165.584 37.592 166.607 38.4585C167.644 39.3107 168.922 39.7369 170.442 39.7369ZM191.209 46.1289V13.4016H200.009V19.1119H200.35C200.946 17.0806 201.948 15.5465 203.354 14.5096C204.76 13.4585 206.38 12.9329 208.212 12.9329C208.667 12.9329 209.157 12.9613 209.682 13.0181C210.208 13.0749 210.669 13.1531 211.067 13.2525V21.3065C210.641 21.1786 210.052 21.065 209.299 20.9656C208.546 20.8661 207.857 20.8164 207.232 20.8164C205.897 20.8164 204.704 21.1076 203.652 21.69C202.616 22.2582 201.792 23.0536 201.181 24.0763C200.584 25.0991 200.286 26.2781 200.286 27.6133V46.1289H191.209ZM233.608 13.4016V20.2198H213.9V13.4016H233.608ZM218.374 5.56072H227.451V36.0721C227.451 36.9102 227.579 37.5636 227.834 38.0323C228.09 38.4869 228.445 38.8065 228.9 38.9911C229.368 39.1758 229.908 39.2681 230.519 39.2681C230.945 39.2681 231.371 39.2326 231.797 39.1616C232.223 39.0763 232.55 39.0124 232.777 38.9698L234.205 45.7241C233.75 45.8661 233.111 46.0295 232.287 46.2141C231.463 46.413 230.462 46.5337 229.283 46.5763C227.096 46.6616 225.178 46.3704 223.53 45.7028C221.897 45.0352 220.625 43.9982 219.716 42.592C218.807 41.1857 218.36 39.4102 218.374 37.2653V5.56072ZM255.92 13.4016V20.2198H235.722V13.4016H255.92ZM240.345 46.1289V11.0366C240.345 8.66442 240.807 6.69709 241.73 5.13459C242.668 3.57209 243.946 2.40021 245.565 1.61896C247.185 0.83771 249.024 0.447085 251.084 0.447085C252.476 0.447085 253.747 0.55362 254.898 0.76669C256.062 0.979758 256.929 1.17152 257.497 1.34197L255.878 8.16016C255.523 8.04652 255.082 7.93998 254.557 7.84055C254.045 7.74112 253.52 7.69141 252.98 7.69141C251.645 7.69141 250.714 8.00391 250.189 8.62891C249.663 9.2397 249.401 10.0991 249.401 11.207V46.1289H240.345ZM273.881 46.7681C270.571 46.7681 267.709 46.065 265.294 44.6587C262.893 43.2383 261.04 41.2638 259.733 38.7354C258.426 36.1928 257.773 33.2454 257.773 29.8931C257.773 26.5124 258.426 23.5579 259.733 21.0295C261.04 18.4869 262.893 16.5124 265.294 15.1062C267.709 13.6857 270.571 12.9755 273.881 12.9755C277.19 12.9755 280.045 13.6857 282.446 15.1062C284.861 16.5124 286.721 18.4869 288.028 21.0295C289.335 23.5579 289.989 26.5124 289.989 29.8931C289.989 33.2454 289.335 36.1928 288.028 38.7354C286.721 41.2638 284.861 43.2383 282.446 44.6587C280.045 46.065 277.19 46.7681 273.881 46.7681ZM273.923 39.7369C275.429 39.7369 276.686 39.3107 277.695 38.4585C278.703 37.592 279.463 36.413 279.974 34.9215C280.5 33.43 280.763 31.7326 280.763 29.8292C280.763 27.9258 280.5 26.2283 279.974 24.7369C279.463 23.2454 278.703 22.0664 277.695 21.1999C276.686 20.3335 275.429 19.9002 273.923 19.9002C272.403 19.9002 271.125 20.3335 270.088 21.1999C269.065 22.0664 268.291 23.2454 267.766 24.7369C267.254 26.2283 266.998 27.9258 266.998 29.8292C266.998 31.7326 267.254 33.43 267.766 34.9215C268.291 36.413 269.065 37.592 270.088 38.4585C271.125 39.3107 272.403 39.7369 273.923 39.7369ZM303.767 2.49254V46.1289H294.691V2.49254H303.767ZM309.838 46.1289V13.4016H318.915V46.1289H309.838ZM314.398 9.18288C313.048 9.18288 311.891 8.73544 310.925 7.84055C309.973 6.93146 309.497 5.84481 309.497 4.58061C309.497 3.33061 309.973 2.25817 310.925 1.36328C311.891 0.454189 313.048 -0.000357389 314.398 -0.000357389C315.747 -0.000357389 316.898 0.454189 317.85 1.36328C318.815 2.25817 319.298 3.33061 319.298 4.58061C319.298 5.84481 318.815 6.93146 317.85 7.84055C316.898 8.73544 315.747 9.18288 314.398 9.18288ZM339.773 46.7681C336.463 46.7681 333.601 46.065 331.186 44.6587C328.786 43.2383 326.932 41.2638 325.625 38.7354C324.318 36.1928 323.665 33.2454 323.665 29.8931C323.665 26.5124 324.318 23.5579 325.625 21.0295C326.932 18.4869 328.786 16.5124 331.186 15.1062C333.601 13.6857 336.463 12.9755 339.773 12.9755C343.082 12.9755 345.938 13.6857 348.338 15.1062C350.753 16.5124 352.614 18.4869 353.92 21.0295C355.227 23.5579 355.881 26.5124 355.881 29.8931C355.881 33.2454 355.227 36.1928 353.92 38.7354C352.614 41.2638 350.753 43.2383 348.338 44.6587C345.938 46.065 343.082 46.7681 339.773 46.7681ZM339.815 39.7369C341.321 39.7369 342.578 39.3107 343.587 38.4585C344.595 37.592 345.355 36.413 345.867 34.9215C346.392 33.43 346.655 31.7326 346.655 29.8292C346.655 27.9258 346.392 26.2283 345.867 24.7369C345.355 23.2454 344.595 22.0664 343.587 21.1999C342.578 20.3335 341.321 19.9002 339.815 19.9002C338.295 19.9002 337.017 20.3335 335.98 21.1999C334.957 22.0664 334.183 23.2454 333.658 24.7369C333.146 26.2283 332.891 27.9258 332.891 29.8292C332.891 31.7326 333.146 33.43 333.658 34.9215C334.183 36.413 334.957 37.592 335.98 38.4585C337.017 39.3107 338.295 39.7369 339.815 39.7369Z" fill="white"/>
</svg>
