<svg width="214" height="29" viewBox="0 0 214 29" fill="none" xmlns="http://www.w3.org/2000/svg">
<path d="M24.5198 14.5868C24.5198 17.4419 23.9786 19.8709 22.8962 21.8738C21.8224 23.8766 20.3564 25.4064 18.4985 26.4632C16.6491 27.5115 14.5695 28.0357 12.2599 28.0357C9.93315 28.0357 7.84508 27.5073 5.99565 26.4505C4.14622 25.3936 2.68457 23.8638 1.61071 21.861C0.536843 19.8581 -8.87662e-05 17.4334 -8.87662e-05 14.5868C-8.87662e-05 11.7317 0.536843 9.30273 1.61071 7.29989C2.68457 5.29705 4.14622 3.77148 5.99565 2.72319C7.84508 1.66637 9.93315 1.13796 12.2599 1.13796C14.5695 1.13796 16.6491 1.66637 18.4985 2.72319C20.3564 3.77148 21.8224 5.29705 22.8962 7.29989C23.9786 9.30273 24.5198 11.7317 24.5198 14.5868ZM18.9076 14.5868C18.9076 12.7374 18.6306 11.1777 18.0766 9.90785C17.5312 8.63796 16.7599 7.67489 15.7627 7.01864C14.7655 6.36239 13.5979 6.03427 12.2599 6.03427C10.9218 6.03427 9.75417 6.36239 8.75701 7.01864C7.75985 7.67489 6.98429 8.63796 6.43031 9.90785C5.88485 11.1777 5.61213 12.7374 5.61213 14.5868C5.61213 16.4363 5.88485 17.9959 6.43031 19.2658C6.98429 20.5357 7.75985 21.4988 8.75701 22.155C9.75417 22.8113 10.9218 23.1394 12.2599 23.1394C13.5979 23.1394 14.7655 22.8113 15.7627 22.155C16.7599 21.4988 17.5312 20.5357 18.0766 19.2658C18.6306 17.9959 18.9076 16.4363 18.9076 14.5868ZM40.3904 19.3169V8.04137H45.8364V27.6777H40.6077V24.111H40.4031C39.96 25.2615 39.2227 26.1863 38.1915 26.8851C37.1688 27.584 35.9202 27.9334 34.4458 27.9334C33.1333 27.9334 31.9784 27.6351 30.9813 27.0385C29.9841 26.4419 29.2043 25.5939 28.6418 24.4945C28.0878 23.3951 27.8065 22.0783 27.798 20.5442V8.04137H33.244V19.5726C33.2526 20.7317 33.5636 21.6479 34.1773 22.3212C34.7909 22.9945 35.6134 23.3311 36.6446 23.3311C37.3009 23.3311 37.9145 23.182 38.4855 22.8837C39.0565 22.5769 39.5168 22.1252 39.8662 21.5286C40.2242 20.932 40.3989 20.1948 40.3904 19.3169ZM49.4726 27.6777V8.04137H54.7524V11.4675H54.9569C55.3149 10.2488 55.9157 9.3283 56.7595 8.70614C57.6032 8.07546 58.5748 7.76012 59.6743 7.76012C59.947 7.76012 60.241 7.77717 60.5564 7.81126C60.8717 7.84535 61.1487 7.89222 61.3873 7.95188V12.7843C61.1316 12.7076 60.778 12.6394 60.3262 12.5797C59.8745 12.5201 59.4612 12.4902 59.0862 12.4902C58.2851 12.4902 57.5691 12.665 56.9385 13.0144C56.3163 13.3553 55.822 13.8326 55.4555 14.4462C55.0976 15.0598 54.9186 15.7672 54.9186 16.5684V27.6777H49.4726Z" fill="white" fill-opacity="0.8"/>
<path d="M71.1973 27.6777V1.49592H81.5269C83.5127 1.49592 85.2044 1.87518 86.6022 2.6337C87.9999 3.3837 89.0652 4.42773 89.7982 5.7658C90.5397 7.09535 90.9104 8.62944 90.9104 10.3681C90.9104 12.1067 90.5354 13.6408 89.7854 14.9703C89.0354 16.2999 87.9488 17.3354 86.5255 18.0769C85.1107 18.8184 83.3976 19.1891 81.3862 19.1891H74.8024V14.753H80.4914C81.5567 14.753 82.4345 14.5698 83.1249 14.2033C83.8237 13.8283 84.3436 13.3127 84.6845 12.6564C85.034 11.9917 85.2087 11.2289 85.2087 10.3681C85.2087 9.49876 85.034 8.74023 84.6845 8.09251C84.3436 7.43626 83.8237 6.92915 83.1249 6.5712C82.426 6.20472 81.5397 6.02148 80.4658 6.02148H76.7328V27.6777H71.1973ZM102.239 28.0613C100.254 28.0613 98.5363 27.6394 97.0874 26.7956C95.6471 25.9434 94.5349 24.7587 93.7508 23.2417C92.9667 21.7161 92.5746 19.9476 92.5746 17.9363C92.5746 15.9078 92.9667 14.1351 93.7508 12.6181C94.5349 11.0925 95.6471 9.90785 97.0874 9.0641C98.5363 8.21182 100.254 7.78569 102.239 7.78569C104.225 7.78569 105.938 8.21182 107.379 9.0641C108.827 9.90785 109.944 11.0925 110.728 12.6181C111.512 14.1351 111.904 15.9078 111.904 17.9363C111.904 19.9476 111.512 21.7161 110.728 23.2417C109.944 24.7587 108.827 25.9434 107.379 26.7956C105.938 27.6394 104.225 28.0613 102.239 28.0613ZM102.265 23.8425C103.168 23.8425 103.923 23.5868 104.528 23.0755C105.133 22.5556 105.589 21.8482 105.896 20.9533C106.211 20.0584 106.369 19.0399 106.369 17.8979C106.369 16.7559 106.211 15.7374 105.896 14.8425C105.589 13.9476 105.133 13.2402 104.528 12.7203C103.923 12.2005 103.168 11.9405 102.265 11.9405C101.353 11.9405 100.586 12.2005 99.9638 12.7203C99.3502 13.2402 98.8857 13.9476 98.5704 14.8425C98.2635 15.7374 98.1101 16.7559 98.1101 17.8979C98.1101 19.0399 98.2635 20.0584 98.5704 20.9533C98.8857 21.8482 99.3502 22.5556 99.9638 23.0755C100.586 23.5868 101.353 23.8425 102.265 23.8425ZM114.725 27.6777V8.04137H120.005V11.4675H120.21C120.568 10.2488 121.169 9.3283 122.012 8.70614C122.856 8.07546 123.828 7.76012 124.927 7.76012C125.2 7.76012 125.494 7.77717 125.809 7.81126C126.125 7.84535 126.402 7.89222 126.64 7.95188V12.7843C126.384 12.7076 126.031 12.6394 125.579 12.5797C125.127 12.5201 124.714 12.4902 124.339 12.4902C123.538 12.4902 122.822 12.665 122.191 13.0144C121.569 13.3553 121.075 13.8326 120.708 14.4462C120.35 15.0598 120.171 15.7672 120.171 16.5684V27.6777H114.725ZM140.165 8.04137V12.1323H128.34V8.04137H140.165ZM131.024 3.33682H136.47V21.6436C136.47 22.1465 136.547 22.5385 136.7 22.8198C136.854 23.0925 137.067 23.2843 137.34 23.3951C137.621 23.5059 137.945 23.5613 138.311 23.5613C138.567 23.5613 138.822 23.54 139.078 23.4973C139.334 23.4462 139.53 23.4078 139.666 23.3823L140.523 27.4348C140.25 27.5201 139.867 27.6181 139.372 27.7289C138.878 27.8482 138.277 27.9206 137.57 27.9462C136.257 27.9973 135.107 27.8226 134.118 27.4221C133.138 27.0215 132.375 26.3993 131.83 25.5556C131.284 24.7118 131.016 23.6465 131.024 22.3596V3.33682ZM153.552 8.04137V12.1323H141.433V8.04137H153.552ZM144.207 27.6777V6.62234C144.207 5.19904 144.484 4.01864 145.038 3.08114C145.6 2.14364 146.367 1.44052 147.339 0.971767C148.311 0.503017 149.414 0.268642 150.65 0.268642C151.485 0.268642 152.248 0.332563 152.938 0.460405C153.637 0.588245 154.157 0.703302 154.498 0.805575L153.526 4.89648C153.313 4.8283 153.049 4.76438 152.734 4.70472C152.427 4.64506 152.112 4.61523 151.788 4.61523C150.987 4.61523 150.428 4.80273 150.113 5.17773C149.798 5.54421 149.64 6.05984 149.64 6.72461V27.6777H144.207ZM164.328 28.0613C162.342 28.0613 160.625 27.6394 159.176 26.7956C157.736 25.9434 156.624 24.7587 155.84 23.2417C155.055 21.7161 154.663 19.9476 154.663 17.9363C154.663 15.9078 155.055 14.1351 155.84 12.6181C156.624 11.0925 157.736 9.90785 159.176 9.0641C160.625 8.21182 162.342 7.78569 164.328 7.78569C166.314 7.78569 168.027 8.21182 169.467 9.0641C170.916 9.90785 172.033 11.0925 172.817 12.6181C173.601 14.1351 173.993 15.9078 173.993 17.9363C173.993 19.9476 173.601 21.7161 172.817 23.2417C172.033 24.7587 170.916 25.9434 169.467 26.7956C168.027 27.6394 166.314 28.0613 164.328 28.0613ZM164.354 23.8425C165.257 23.8425 166.011 23.5868 166.617 23.0755C167.222 22.5556 167.678 21.8482 167.984 20.9533C168.3 20.0584 168.457 19.0399 168.457 17.8979C168.457 16.7559 168.3 15.7374 167.984 14.8425C167.678 13.9476 167.222 13.2402 166.617 12.7203C166.011 12.2005 165.257 11.9405 164.354 11.9405C163.442 11.9405 162.675 12.2005 162.053 12.7203C161.439 13.2402 160.974 13.9476 160.659 14.8425C160.352 15.7374 160.199 16.7559 160.199 17.8979C160.199 19.0399 160.352 20.0584 160.659 20.9533C160.974 21.8482 161.439 22.5556 162.053 23.0755C162.675 23.5868 163.442 23.8425 164.354 23.8425ZM182.26 1.49592V27.6777H176.814V1.49592H182.26ZM185.903 27.6777V8.04137H191.349V27.6777H185.903ZM188.639 5.51012C187.829 5.51012 187.134 5.24165 186.555 4.70472C185.984 4.15927 185.698 3.50728 185.698 2.74876C185.698 1.99876 185.984 1.35529 186.555 0.818359C187.134 0.272904 187.829 0.000176191 188.639 0.000176191C189.448 0.000176191 190.139 0.272904 190.71 0.818359C191.289 1.35529 191.579 1.99876 191.579 2.74876C191.579 3.50728 191.289 4.15927 190.71 4.70472C190.139 5.24165 189.448 5.51012 188.639 5.51012ZM203.863 28.0613C201.878 28.0613 200.16 27.6394 198.711 26.7956C197.271 25.9434 196.159 24.7587 195.375 23.2417C194.591 21.7161 194.199 19.9476 194.199 17.9363C194.199 15.9078 194.591 14.1351 195.375 12.6181C196.159 11.0925 197.271 9.90785 198.711 9.0641C200.16 8.21182 201.878 7.78569 203.863 7.78569C205.849 7.78569 207.562 8.21182 209.003 9.0641C210.452 9.90785 211.568 11.0925 212.352 12.6181C213.136 14.1351 213.528 15.9078 213.528 17.9363C213.528 19.9476 213.136 21.7161 212.352 23.2417C211.568 24.7587 210.452 25.9434 209.003 26.7956C207.562 27.6394 205.849 28.0613 203.863 28.0613ZM203.889 23.8425C204.792 23.8425 205.547 23.5868 206.152 23.0755C206.757 22.5556 207.213 21.8482 207.52 20.9533C207.835 20.0584 207.993 19.0399 207.993 17.8979C207.993 16.7559 207.835 15.7374 207.52 14.8425C207.213 13.9476 206.757 13.2402 206.152 12.7203C205.547 12.2005 204.792 11.9405 203.889 11.9405C202.977 11.9405 202.21 12.2005 201.588 12.7203C200.974 13.2402 200.51 13.9476 200.194 14.8425C199.888 15.7374 199.734 16.7559 199.734 17.8979C199.734 19.0399 199.888 20.0584 200.194 20.9533C200.51 21.8482 200.974 22.5556 201.588 23.0755C202.21 23.5868 202.977 23.8425 203.889 23.8425Z" fill="white"/>
</svg>
