<svg width="18" height="62" viewBox="0 0 18 62" fill="none" xmlns="http://www.w3.org/2000/svg">
<path d="M5.03711 51.4713C4.29279 51.5509 3.71325 51.8861 3.29847 52.477C2.8837 53.0622 2.67631 53.8236 2.67631 54.7611C2.67631 55.4202 2.77575 55.9855 2.97461 56.4571C3.17347 56.9287 3.44336 57.2895 3.78427 57.5395C4.12518 57.7895 4.51438 57.9173 4.95188 57.923C5.31552 57.923 5.63086 57.8406 5.8979 57.6759C6.16495 57.5054 6.39222 57.2753 6.57972 56.9855C6.76154 56.6958 6.91495 56.3747 7.03995 56.0225C7.16495 55.6702 7.27006 55.3151 7.35529 54.9571L7.76438 53.3208C7.91779 52.6617 8.12518 52.0281 8.38654 51.4202C8.6479 50.8066 8.97745 50.2583 9.37518 49.7753C9.7729 49.2867 10.253 48.9003 10.8155 48.6162C11.378 48.3321 12.0371 48.1901 12.7928 48.1901C13.8155 48.1901 14.7161 48.4514 15.4945 48.9742C16.2672 49.4969 16.8723 50.2526 17.3098 51.2412C17.7417 52.2242 17.9576 53.4145 17.9576 54.8122C17.9576 56.1702 17.7473 57.3492 17.3269 58.3492C16.9064 59.3435 16.2928 60.1219 15.486 60.6844C14.6792 61.2412 13.6962 61.5423 12.5371 61.5878L12.5371 58.477C13.1451 58.4316 13.6507 58.2441 14.0542 57.9145C14.4576 57.585 14.7587 57.156 14.9576 56.6276C15.1564 56.0935 15.2559 55.4969 15.2559 54.8378C15.2559 54.1503 15.1536 53.548 14.949 53.031C14.7388 52.5083 14.449 52.0992 14.0797 51.8037C13.7047 51.5083 13.2672 51.3577 12.7672 51.352C12.3127 51.3577 11.9377 51.4912 11.6422 51.7526C11.3411 52.0139 11.0911 52.3804 10.8922 52.852C10.6877 53.3179 10.5059 53.8634 10.3468 54.4884L9.8354 56.4742C9.46609 57.9117 8.90643 59.048 8.15643 59.8833C7.40075 60.7128 6.3979 61.1276 5.1479 61.1276C4.11949 61.1276 3.21893 60.8492 2.4462 60.2923C1.67347 59.7298 1.07404 58.9656 0.647904 57.9997C0.216086 57.0338 0.000176612 55.9401 0.000176559 54.7185C0.000176504 53.4798 0.216085 52.3946 0.647903 51.4628C1.07404 50.5253 1.66779 49.7895 2.42915 49.2554C3.18484 48.7213 4.05415 48.4458 5.03711 48.4287L5.03711 51.4713ZM17.949 39.7973C17.949 41.1041 17.6621 42.2263 17.0882 43.1638C16.5144 44.0956 15.7218 44.8144 14.7104 45.32C13.6934 45.82 12.5229 46.07 11.199 46.07C9.86949 46.07 8.6962 45.8144 7.67915 45.303C6.65643 44.7916 5.86097 44.07 5.29279 43.1382C4.71893 42.2007 4.43199 41.0928 4.43199 39.8144C4.43199 38.7519 4.62802 37.8115 5.02006 36.9933C5.40643 36.1695 5.95472 35.5132 6.66495 35.0246C7.36949 34.536 8.19336 34.2575 9.13654 34.1894L9.13654 37.1382C8.50586 37.2575 7.98029 37.5416 7.55984 37.9905C7.1337 38.4337 6.92063 39.0274 6.92063 39.7717C6.92063 40.4024 7.09109 40.9564 7.43199 41.4337C7.76722 41.911 8.25018 42.2831 8.88086 42.5502C9.51154 42.8115 10.2672 42.9422 11.1479 42.9422C12.0399 42.9422 12.807 42.8115 13.449 42.5502C14.0854 42.2888 14.5769 41.9223 14.9235 41.4507C15.2644 40.9735 15.4348 40.4138 15.4348 39.7717C15.4348 39.3172 15.3496 38.911 15.1792 38.553C15.003 38.1894 14.7502 37.8854 14.4206 37.6411C14.0911 37.3967 13.6905 37.2291 13.2189 37.1382L13.2189 34.1894C14.1451 34.2632 14.9661 34.536 15.682 35.0075C16.3922 35.4791 16.949 36.1212 17.3524 36.9337C17.7502 37.7462 17.949 38.7007 17.949 39.7973ZM17.9576 27.8889C17.9576 28.7185 17.8098 29.4656 17.5144 30.1304C17.2132 30.7895 16.7701 31.3122 16.1848 31.6986C15.5996 32.0793 14.878 32.2696 14.0201 32.2696C13.2814 32.2696 12.6706 32.1333 12.1877 31.8605C11.7047 31.5878 11.3184 31.2156 11.0286 30.7441C10.7388 30.2725 10.5201 29.7412 10.3723 29.1503C10.2189 28.5537 10.1081 27.9372 10.0399 27.3009C9.9604 26.5338 9.88938 25.9117 9.82688 25.4344C9.7587 24.9571 9.65643 24.6105 9.52006 24.3946C9.37802 24.173 9.15927 24.0622 8.86381 24.0622L8.81268 24.0622C8.17063 24.0622 7.67347 24.2526 7.3212 24.6333C6.96893 25.0139 6.79279 25.5622 6.79279 26.2781C6.79279 27.0338 6.95756 27.6333 7.28711 28.0764C7.61665 28.5139 8.00586 28.8094 8.45472 28.9628L8.04563 31.8435C7.25018 31.6162 6.5854 31.2412 6.05131 30.7185C5.51154 30.1958 5.10813 29.5566 4.84108 28.8009C4.56836 28.0452 4.43199 27.21 4.43199 26.2952C4.43199 25.6645 4.50586 25.0367 4.65358 24.4117C4.80131 23.7867 5.04563 23.2156 5.38654 22.6986C5.72177 22.1816 6.17915 21.7668 6.7587 21.4543C7.33824 21.1361 8.06268 20.977 8.93199 20.977L17.6934 20.977L17.6934 23.9429L15.8951 23.9429L15.8951 24.0452C16.2587 24.2327 16.5996 24.4969 16.9178 24.8378C17.2303 25.173 17.4831 25.5963 17.6763 26.1077C17.8638 26.6134 17.9576 27.2071 17.9576 27.8889ZM15.6905 27.0878C15.6905 26.4685 15.5684 25.9316 15.324 25.477C15.074 25.0225 14.7445 24.673 14.3354 24.4287C13.9263 24.1787 13.4803 24.0537 12.9973 24.0537L11.4547 24.0537C11.5343 24.1503 11.6081 24.3151 11.6763 24.548C11.7445 24.7753 11.8042 25.031 11.8553 25.3151C11.9064 25.5992 11.9519 25.8804 11.9917 26.1588C12.0314 26.4372 12.0655 26.6787 12.0939 26.8833C12.1564 27.3435 12.2587 27.7554 12.4007 28.1191C12.5428 28.4827 12.7417 28.7696 12.9973 28.9798C13.2473 29.1901 13.5712 29.2952 13.9689 29.2952C14.5371 29.2952 14.9661 29.0878 15.2559 28.673C15.5456 28.2583 15.6905 27.7298 15.6905 27.0878ZM0.238811 14.7895L17.6934 14.7895L17.6934 17.8747L0.238811 17.8747L0.238811 14.7895ZM17.949 5.82147C17.949 7.13397 17.6763 8.26749 17.1309 9.22203C16.5797 10.1709 15.8013 10.901 14.7956 11.4124C13.7843 11.9237 12.5939 12.1794 11.2246 12.1794C9.87802 12.1794 8.6962 11.9237 7.67915 11.4124C6.65642 10.8953 5.86097 10.1737 5.29279 9.2476C4.71893 8.32147 4.43199 7.2334 4.43199 5.9834C4.43199 5.17658 4.56267 4.41522 4.82404 3.69931C5.07972 2.97772 5.47745 2.34135 6.01722 1.79022C6.55699 1.2334 7.24449 0.795897 8.07972 0.477715C8.90927 0.159533 9.8979 0.00044223 11.0456 0.00044218L11.9917 0.000442138L11.9917 10.7306L9.91211 10.7306L9.91211 2.95783C9.3212 2.96351 8.79563 3.09135 8.3354 3.34135C7.86949 3.59135 7.50302 3.94078 7.23597 4.38965C6.96892 4.83283 6.8354 5.34987 6.8354 5.94078C6.8354 6.57147 6.98881 7.12544 7.29563 7.60272C7.59677 8.07999 7.99449 8.45215 8.48881 8.71919C8.97745 8.98056 9.51438 9.11408 10.0996 9.11976L11.9149 9.11976C12.6763 9.11976 13.3297 8.98056 13.8752 8.70215C14.4149 8.42374 14.8297 8.03453 15.1195 7.53453C15.4036 7.03453 15.5456 6.44931 15.5456 5.77885C15.5456 5.32999 15.4831 4.92374 15.3581 4.5601C15.2274 4.19647 15.0371 3.88112 14.7871 3.61408C14.5371 3.34703 14.2274 3.14533 13.8581 3.00897L14.182 0.128284C14.9434 0.310102 15.6081 0.656692 16.1763 1.16806C16.7388 1.67374 17.1763 2.32147 17.4888 3.11124C17.7956 3.90101 17.949 4.80442 17.949 5.82147Z" fill="white"/>
</svg>
