<svg width="18" height="61" viewBox="0 0 18 61" fill="none" xmlns="http://www.w3.org/2000/svg">
<path d="M2.65061 60.9927L4.38273e-05 60.9927L4.32186e-05 47.0666L2.65061 47.0666L2.65061 52.4615L17.4546 52.4615L17.4546 55.5978L2.65061 55.5978L2.65061 60.9927ZM17.7103 40.6213C17.7103 41.9338 17.4375 43.0673 16.8921 44.0218C16.341 44.9707 15.5625 45.7008 14.5569 46.2122C13.5455 46.7235 12.3552 46.9792 10.9858 46.9792C9.63925 46.9792 8.45743 46.7235 7.44038 46.2122C6.41766 45.6951 5.6222 44.9735 5.05402 44.0474C4.48016 43.1213 4.19323 42.0332 4.19323 40.7832C4.19323 39.9764 4.32391 39.215 4.58527 38.4991C4.84095 37.7775 5.23868 37.1412 5.77845 36.59C6.31822 36.0332 7.00572 35.5957 7.84095 35.2775C8.6705 34.9593 9.65913 34.8002 10.8069 34.8002L11.7529 34.8002L11.7529 45.5304L9.67334 45.5304L9.67334 37.7576C9.08243 37.7633 8.55686 37.8912 8.09663 38.1412C7.63073 38.3912 7.26425 38.7406 6.9972 39.1895C6.73016 39.6326 6.59663 40.1497 6.59663 40.7406C6.59663 41.3713 6.75004 41.9252 7.05686 42.4025C7.358 42.8798 7.75573 43.252 8.25004 43.519C8.73868 43.7804 9.27561 43.9139 9.86084 43.9196L11.6762 43.9196C12.4375 43.9196 13.091 43.7804 13.6364 43.502C14.1762 43.2235 14.591 42.8343 14.8807 42.3343C15.1648 41.8343 15.3069 41.2491 15.3069 40.5787C15.3069 40.1298 15.2444 39.7235 15.1194 39.3599C14.9887 38.9963 14.7983 38.6809 14.5483 38.4139C14.2983 38.1468 13.9887 37.9451 13.6194 37.8088L13.9432 34.9281C14.7046 35.1099 15.3694 35.4565 15.9375 35.9679C16.5 36.4735 16.9375 37.1213 17.25 37.911C17.5569 38.7008 17.7103 39.6042 17.7103 40.6213ZM17.7188 28.4231C17.7188 29.2527 17.5711 29.9998 17.2756 30.6646C16.9745 31.3237 16.5313 31.8464 15.9461 32.2328C15.3608 32.6135 14.6392 32.8038 13.7813 32.8038C13.0427 32.8038 12.4319 32.6674 11.9489 32.3947C11.466 32.122 11.0796 31.7498 10.7898 31.2782C10.5 30.8066 10.2813 30.2754 10.1336 29.6845C9.98016 29.0879 9.86936 28.4714 9.80118 27.835C9.72163 27.068 9.65061 26.4458 9.58811 25.9686C9.51993 25.4913 9.41766 25.1447 9.28129 24.9288C9.13925 24.7072 8.9205 24.5964 8.62504 24.5964L8.57391 24.5964C7.93186 24.5964 7.4347 24.7868 7.08243 25.1674C6.73016 25.5481 6.55402 26.0964 6.55402 26.8123C6.55402 27.568 6.71879 28.1674 7.04834 28.6106C7.37788 29.0481 7.76709 29.3436 8.21595 29.497L7.80686 32.3777C7.01141 32.1504 6.34663 31.7754 5.81254 31.2527C5.27277 30.7299 4.86936 30.0907 4.60232 29.335C4.32959 28.5794 4.19322 27.7441 4.19322 26.8294C4.19322 26.1987 4.26709 25.5708 4.41482 24.9458C4.56254 24.3208 4.80686 23.7498 5.14777 23.2328C5.483 22.7157 5.94038 22.301 6.51993 21.9885C7.09947 21.6703 7.82391 21.5112 8.69322 21.5112L17.4546 21.5112L17.4546 24.4771L15.6563 24.4771L15.6563 24.5794C16.0199 24.7669 16.3608 25.0311 16.679 25.372C16.9915 25.7072 17.2444 26.1305 17.4375 26.6419C17.625 27.1475 17.7188 27.7413 17.7188 28.4231ZM15.4517 27.622C15.4517 27.0027 15.3296 26.4657 15.0853 26.0112C14.8353 25.5566 14.5057 25.2072 14.0966 24.9629C13.6875 24.7129 13.2415 24.5879 12.7586 24.5879L11.216 24.5879C11.2955 24.6845 11.3694 24.8493 11.4375 25.0822C11.5057 25.3095 11.5654 25.5652 11.6165 25.8493C11.6677 26.1333 11.7131 26.4146 11.7529 26.693C11.7927 26.9714 11.8267 27.2129 11.8552 27.4174C11.9177 27.8777 12.0199 28.2896 12.162 28.6532C12.304 29.0169 12.5029 29.3038 12.7586 29.514C13.0086 29.7243 13.3324 29.8294 13.7302 29.8294C14.2983 29.8294 14.7273 29.622 15.0171 29.2072C15.3069 28.7924 15.4517 28.264 15.4517 27.622ZM17.4546 18.4089L4.36368 18.4089L4.36368 15.46L6.58811 15.46L6.58811 15.3066C5.83811 15.0339 5.25288 14.5822 4.83243 13.9515C4.40629 13.3208 4.19322 12.568 4.19322 11.693C4.19322 10.8066 4.40913 10.0595 4.84095 9.45153C5.26709 8.83789 5.84947 8.40607 6.58811 8.15607L6.58811 8.01971C5.86084 7.72993 5.28129 7.2413 4.84947 6.5538C4.41197 5.86062 4.19322 5.03959 4.19322 4.09073C4.19322 2.88618 4.57391 1.90323 5.33527 1.14187C6.09663 0.380503 7.20743 -0.000178982 8.66766 -0.000179046L17.4546 -0.00017943L17.4546 3.09357L9.14493 3.09357C8.33243 3.09357 7.73868 3.30948 7.36368 3.7413C6.983 4.17312 6.79265 4.70153 6.79265 5.32653C6.79265 6.07084 7.02561 6.65323 7.49152 7.07368C7.95175 7.48846 8.55118 7.69584 9.28981 7.69584L17.4546 7.69584L17.4546 10.7214L9.01709 10.7214C8.34095 10.7214 7.80118 10.926 7.39777 11.335C6.99436 11.7385 6.79266 12.2669 6.79266 12.9203C6.79266 13.3635 6.90629 13.7669 7.13356 14.1305C7.35516 14.4941 7.6705 14.7839 8.07959 14.9998C8.483 15.2157 8.95459 15.3237 9.49436 15.3237L17.4546 15.3237L17.4546 18.4089Z" fill="white"/>
</svg>
