<svg width="142" height="18" viewBox="0 0 142 18" fill="none" xmlns="http://www.w3.org/2000/svg">
<path d="M4.92614 17.4541L0 -0.000444412H3.40057L6.54545 12.8263H6.70739L10.0653 -0.000444412H13.1591L16.5256 12.8348H16.679L19.8239 -0.000444412H23.2244L18.2983 17.4541H15.179L11.6847 5.20694H11.5483L8.04545 17.4541H4.92614ZM28.3658 9.78365V17.4541H25.2805V-0.000444412H28.2976V6.58762H28.451C28.7578 5.84899 29.2322 5.2666 29.8743 4.84047C30.522 4.40865 31.3459 4.19274 32.3459 4.19274C33.255 4.19274 34.0476 4.38308 34.7237 4.76376C35.3999 5.14444 35.9226 5.70126 36.2919 6.43422C36.6669 7.16717 36.8544 8.06206 36.8544 9.11887V17.4541H33.7692V9.59615C33.7692 8.71546 33.5419 8.03081 33.0874 7.54217C32.6385 7.04785 32.0078 6.80069 31.1953 6.80069C30.6499 6.80069 30.1612 6.92001 29.7294 7.15865C29.3033 7.3916 28.968 7.72967 28.7237 8.17285C28.4851 8.61603 28.3658 9.15296 28.3658 9.78365ZM45.7095 17.7098C44.4311 17.7098 43.3232 17.4285 42.3857 16.866C41.4482 16.3035 40.7209 15.5166 40.2038 14.5052C39.6925 13.4939 39.4368 12.3121 39.4368 10.9598C39.4368 9.60751 39.6925 8.42285 40.2038 7.40581C40.7209 6.38876 41.4482 5.59899 42.3857 5.03649C43.3232 4.47399 44.4311 4.19274 45.7095 4.19274C46.9879 4.19274 48.0959 4.47399 49.0334 5.03649C49.9709 5.59899 50.6953 6.38876 51.2067 7.40581C51.7237 8.42285 51.9822 9.60751 51.9822 10.9598C51.9822 12.3121 51.7237 13.4939 51.2067 14.5052C50.6953 15.5166 49.9709 16.3035 49.0334 16.866C48.0959 17.4285 46.9879 17.7098 45.7095 17.7098ZM45.7266 15.2382C46.4197 15.2382 46.9993 15.0479 47.4652 14.6672C47.9311 14.2808 48.2777 13.7638 48.505 13.116C48.7379 12.4683 48.8544 11.7467 48.8544 10.9513C48.8544 10.1501 48.7379 9.42569 48.505 8.77797C48.2777 8.12456 47.9311 7.60467 47.4652 7.21831C46.9993 6.83194 46.4197 6.63876 45.7266 6.63876C45.0163 6.63876 44.4254 6.83194 43.9538 7.21831C43.4879 7.60467 43.1385 8.12456 42.9055 8.77797C42.6783 9.42569 42.5646 10.1501 42.5646 10.9513C42.5646 11.7467 42.6783 12.4683 42.9055 13.116C43.1385 13.7638 43.4879 14.2808 43.9538 14.6672C44.4254 15.0479 45.0163 15.2382 45.7266 15.2382ZM64.3636 17.4541L59.4375 -0.000444412H62.8381L65.983 12.8263H66.1449L69.5028 -0.000444412H72.5966L75.9631 12.8348H76.1165L79.2614 -0.000444412H82.6619L77.7358 17.4541H74.6165L71.1222 5.20694H70.9858L67.483 17.4541H64.3636ZM89.1776 17.7098C87.8651 17.7098 86.7315 17.4371 85.777 16.8916C84.8281 16.3405 84.098 15.5621 83.5866 14.5564C83.0753 13.545 82.8196 12.3547 82.8196 10.9854C82.8196 9.63876 83.0753 8.45694 83.5866 7.4399C84.1037 6.41717 84.8253 5.62171 85.7514 5.05353C86.6776 4.47967 87.7656 4.19274 89.0156 4.19274C89.8224 4.19274 90.5838 4.32342 91.2997 4.58478C92.0213 4.84046 92.6577 5.23819 93.2088 5.77797C93.7656 6.31774 94.2031 7.00524 94.5213 7.84047C94.8395 8.67001 94.9986 9.65865 94.9986 10.8064V11.7524H84.2685V9.67285H92.0412C92.0355 9.08194 91.9077 8.55637 91.6577 8.09615C91.4077 7.63024 91.0582 7.26376 90.6094 6.99672C90.1662 6.72967 89.6491 6.59615 89.0582 6.59615C88.4276 6.59615 87.8736 6.74956 87.3963 7.05637C86.919 7.35751 86.5469 7.75524 86.2798 8.24956C86.0185 8.73819 85.8849 9.27512 85.8793 9.86035V11.6757C85.8793 12.4371 86.0185 13.0905 86.2969 13.6359C86.5753 14.1757 86.9645 14.5905 87.4645 14.8802C87.9645 15.1643 88.5497 15.3064 89.2202 15.3064C89.669 15.3064 90.0753 15.2439 90.4389 15.1189C90.8026 14.9882 91.1179 14.7979 91.3849 14.5479C91.652 14.2979 91.8537 13.9882 91.9901 13.6189L94.8707 13.9427C94.6889 14.7041 94.3423 15.3689 93.831 15.9371C93.3253 16.4996 92.6776 16.9371 91.8878 17.2496C91.098 17.5564 90.1946 17.7098 89.1776 17.7098ZM105.94 17.4541H102.565L108.71 -0.000444412H112.613L118.766 17.4541H115.391L110.729 3.5791H110.593L105.94 17.4541ZM106.05 10.6104H115.255V13.1501H106.05V10.6104ZM120.929 17.4541V4.36319H123.92V6.54501H124.057C124.295 5.78933 124.705 5.20694 125.284 4.79785C125.869 4.38308 126.537 4.17569 127.287 4.17569C127.457 4.17569 127.648 4.18421 127.858 4.20126C128.074 4.21262 128.253 4.23251 128.395 4.26092V7.09899C128.264 7.05353 128.057 7.01376 127.773 6.97967C127.494 6.9399 127.224 6.92001 126.963 6.92001C126.401 6.92001 125.895 7.04217 125.446 7.28649C125.003 7.52512 124.653 7.85751 124.398 8.28365C124.142 8.70978 124.014 9.20126 124.014 9.75808V17.4541H120.929ZM135.701 17.7098C134.388 17.7098 133.255 17.4371 132.3 16.8916C131.352 16.3405 130.621 15.5621 130.11 14.5564C129.599 13.545 129.343 12.3547 129.343 10.9854C129.343 9.63876 129.599 8.45694 130.11 7.4399C130.627 6.41717 131.349 5.62171 132.275 5.05353C133.201 4.47967 134.289 4.19274 135.539 4.19274C136.346 4.19274 137.107 4.32342 137.823 4.58478C138.545 4.84046 139.181 5.23819 139.732 5.77797C140.289 6.31774 140.727 7.00524 141.045 7.84047C141.363 8.67001 141.522 9.65865 141.522 10.8064V11.7524H130.792V9.67285H138.565C138.559 9.08194 138.431 8.55637 138.181 8.09615C137.931 7.63024 137.582 7.26376 137.133 6.99672C136.69 6.72967 136.173 6.59615 135.582 6.59615C134.951 6.59615 134.397 6.74956 133.92 7.05637C133.442 7.35751 133.07 7.75524 132.803 8.24956C132.542 8.73819 132.408 9.27512 132.403 9.86035V11.6757C132.403 12.4371 132.542 13.0905 132.82 13.6359C133.099 14.1757 133.488 14.5905 133.988 14.8802C134.488 15.1643 135.073 15.3064 135.744 15.3064C136.192 15.3064 136.599 15.2439 136.962 15.1189C137.326 14.9882 137.641 14.7979 137.908 14.5479C138.175 14.2979 138.377 13.9882 138.513 13.6189L141.394 13.9427C141.212 14.7041 140.866 15.3689 140.354 15.9371C139.849 16.4996 139.201 16.9371 138.411 17.2496C137.621 17.5564 136.718 17.7098 135.701 17.7098Z" fill="white"/>
</svg>
