<svg width="206" height="27" viewBox="0 0 206 27" fill="none" xmlns="http://www.w3.org/2000/svg">
<path d="M7.3892 26.1816L0 -0.000178337H5.10085L9.81818 19.2399H10.0611L15.098 -0.000178337H19.7386L24.7884 19.2527H25.0185L29.7358 -0.000178337H34.8366L27.4474 26.1816H22.7685L17.527 7.8109H17.3224L12.0682 26.1816H7.3892ZM41.8286 14.676V26.1816H37.2008V-0.000178337H41.7264V9.88192H41.9565C42.4167 8.77397 43.1284 7.90039 44.0914 7.26119C45.063 6.61346 46.2988 6.2896 47.7988 6.2896C49.1625 6.2896 50.3514 6.57511 51.3656 7.14613C52.3798 7.71715 53.1639 8.55238 53.7179 9.65181C54.2804 10.7512 54.5616 12.0936 54.5616 13.6788V26.1816H49.9338V14.3947C49.9338 13.0737 49.5929 12.0467 48.911 11.3137C48.2377 10.5723 47.2917 10.2015 46.073 10.2015C45.2548 10.2015 44.5218 10.3805 43.8741 10.7385C43.2349 11.0879 42.7321 11.595 42.3656 12.2598C42.0076 12.9245 41.8286 13.7299 41.8286 14.676ZM67.1243 26.5652C65.2067 26.5652 63.5447 26.1433 62.1385 25.2995C60.7322 24.4558 59.6413 23.2754 58.8658 21.7583C58.0987 20.2413 57.7152 18.4686 57.7152 16.4402C57.7152 14.4118 58.0987 12.6348 58.8658 11.1092C59.6413 9.58363 60.7322 8.39897 62.1385 7.55522C63.5447 6.71147 65.2067 6.2896 67.1243 6.2896C69.0419 6.2896 70.7038 6.71147 72.1101 7.55522C73.5163 8.39897 74.603 9.58363 75.37 11.1092C76.1456 12.6348 76.5334 14.4118 76.5334 16.4402C76.5334 18.4686 76.1456 20.2413 75.37 21.7583C74.603 23.2754 73.5163 24.4558 72.1101 25.2995C70.7038 26.1433 69.0419 26.5652 67.1243 26.5652ZM67.1498 22.8578C68.1896 22.8578 69.0589 22.5723 69.7578 22.0012C70.4567 21.4217 70.9765 20.6461 71.3175 19.6745C71.6669 18.7029 71.8416 17.6206 71.8416 16.4274C71.8416 15.2257 71.6669 14.139 71.3175 13.1674C70.9765 12.1873 70.4567 11.4075 69.7578 10.8279C69.0589 10.2484 68.1896 9.95863 67.1498 9.95863C66.0845 9.95863 65.1981 10.2484 64.4908 10.8279C63.7919 11.4075 63.2677 12.1873 62.9183 13.1674C62.5774 14.139 62.4069 15.2257 62.4069 16.4274C62.4069 17.6206 62.5774 18.7029 62.9183 19.6745C63.2677 20.6461 63.7919 21.4217 64.4908 22.0012C65.1981 22.5723 66.0845 22.8578 67.1498 22.8578ZM93.6655 26.1816L86.2763 -0.000178337H91.3771L96.0944 19.2399H96.3373L101.374 -0.000178337H106.015L111.065 19.2527H111.295L116.012 -0.000178337H121.113L113.724 26.1816H109.045L103.803 7.8109H103.599L98.3444 26.1816H93.6655ZM130.166 26.5652C128.198 26.5652 126.497 26.1561 125.065 25.3379C123.642 24.5112 122.547 23.3436 121.78 21.835C121.013 20.318 120.629 18.5325 120.629 16.4785C120.629 14.4586 121.013 12.6859 121.78 11.1603C122.556 9.62624 123.638 8.43306 125.027 7.58079C126.416 6.71999 128.048 6.2896 129.923 6.2896C131.134 6.2896 132.276 6.48562 133.35 6.87766C134.432 7.26119 135.387 7.85778 136.213 8.66744C137.048 9.47709 137.705 10.5083 138.182 11.7612C138.659 13.0055 138.898 14.4885 138.898 16.21V17.6291H122.803V14.5098H134.462C134.453 13.6234 134.262 12.835 133.887 12.1447C133.512 11.4458 132.987 10.8961 132.314 10.4956C131.649 10.095 130.874 9.89471 129.987 9.89471C129.041 9.89471 128.21 10.1248 127.494 10.585C126.779 11.0368 126.22 11.6333 125.82 12.3748C125.428 13.1078 125.227 13.9132 125.219 14.791V17.514C125.219 18.6561 125.428 19.6362 125.845 20.4544C126.263 21.264 126.847 21.8862 127.597 22.3208C128.347 22.747 129.225 22.96 130.23 22.96C130.904 22.96 131.513 22.8663 132.058 22.6788C132.604 22.4828 133.077 22.1973 133.477 21.8223C133.878 21.4473 134.181 20.9828 134.385 20.4288L138.706 20.9146C138.433 22.0566 137.913 23.0538 137.146 23.9061C136.388 24.7498 135.416 25.4061 134.232 25.8748C133.047 26.335 131.692 26.5652 130.166 26.5652ZM153.869 26.1816H148.807L158.024 -0.000178337H163.879L173.11 26.1816H168.047L161.054 5.36914H160.85L153.869 26.1816ZM154.036 15.916H167.842V19.7257H154.036V15.916ZM175.633 26.1816V6.54528H180.121V9.818H180.325C180.683 8.68448 181.297 7.8109 182.166 7.19727C183.044 6.57511 184.045 6.26403 185.17 6.26403C185.426 6.26403 185.712 6.27681 186.027 6.30238C186.351 6.31942 186.619 6.34925 186.832 6.39187V10.649C186.636 10.5808 186.325 10.5211 185.899 10.47C185.481 10.4103 185.077 10.3805 184.685 10.3805C183.841 10.3805 183.082 10.5637 182.409 10.9302C181.744 11.2882 181.22 11.7868 180.837 12.426C180.453 13.0652 180.261 13.8024 180.261 14.6376V26.1816H175.633ZM197.071 26.5652C195.103 26.5652 193.402 26.1561 191.971 25.3379C190.547 24.5112 189.452 23.3436 188.685 21.835C187.918 20.318 187.535 18.5325 187.535 16.4785C187.535 14.4586 187.918 12.6859 188.685 11.1603C189.461 9.62624 190.543 8.43306 191.932 7.58079C193.321 6.71999 194.954 6.2896 196.829 6.2896C198.039 6.2896 199.181 6.48562 200.255 6.87766C201.337 7.26119 202.292 7.85778 203.118 8.66744C203.954 9.47709 204.61 10.5083 205.087 11.7612C205.564 13.0055 205.803 14.4885 205.803 16.21V17.6291H189.708V14.5098H201.367C201.358 13.6234 201.167 12.835 200.792 12.1447C200.417 11.4458 199.893 10.8961 199.219 10.4956C198.554 10.095 197.779 9.89471 196.893 9.89471C195.946 9.89471 195.116 10.1248 194.4 10.585C193.684 11.0368 193.125 11.6333 192.725 12.3748C192.333 13.1078 192.133 13.9132 192.124 14.791V17.514C192.124 18.6561 192.333 19.6362 192.75 20.4544C193.168 21.264 193.752 21.8862 194.502 22.3208C195.252 22.747 196.13 22.96 197.135 22.96C197.809 22.96 198.418 22.8663 198.964 22.6788C199.509 22.4828 199.982 22.1973 200.383 21.8223C200.783 21.4473 201.086 20.9828 201.29 20.4288L205.611 20.9146C205.339 22.0566 204.819 23.0538 204.052 23.9061C203.293 24.7498 202.321 25.4061 201.137 25.8748C199.952 26.335 198.597 26.5652 197.071 26.5652Z" fill="white"/>
</svg>
